STARTFONT 2.1
COMMENT
COMMENT Converted from OpenType font "NotoSansMono-Regular.ttf" by "otf2bdf 3.0".
COMMENT
FONT -FreeType-Noto Sans Mono-Medium-R-Normal--50-500-72-72-P-237-ISO10646-1
SIZE 50 72 72
FONTBOUNDINGBOX 121 80 -31 -19
STARTPROPERTIES 19
FOUNDRY "FreeType"
FAMILY_NAME "Noto Sans Mono"
WEIGHT_NAME "Medium"
SLANT "R"
SETWIDTH_NAME "Normal"
ADD_STYLE_NAME ""
PIXEL_SIZE 50
POINT_SIZE 500
RESOLUTION_X 72
RESOLUTION_Y 72
SPACING "P"
AVERAGE_WIDTH 237
CHARSET_REGISTRY "ISO10646"
CHARSET_ENCODING "1"
FONT_ASCENT 53
FONT_DESCENT 14
COPYRIGHT "Copyright 2015 Google LLC. All Rights Reserved."
_OTF_FONTFILE "NotoSansMono-Regular.ttf"
_OTF_PSNAME "NotoSansMono-Regular"
ENDPROPERTIES
CHARS 3363
STARTCHAR 0000
ENCODING 0
SWIDTH 0 0
DWIDTH 0 0
BBX 0 0 0 0
BITMAP
ENDCHAR
STARTCHAR 000D
ENCODING 13
SWIDTH 600 0
DWIDTH 30 0
BBX 0 0 0 0
BITMAP
ENDCHAR
STARTCHAR 0020
ENCODING 32
SWIDTH 600 0
DWIDTH 30 0
BBX 0 0 0 0
BITMAP
ENDCHAR
STARTCHAR 0021
ENCODING 33
SWIDTH 600 0
DWIDTH 30 0
BBX 6 36 12 -1
BITMAP
FC
FC
FC
FC
FC
FC
7C
7C
78
78
78
78
78
78
78
78
78
78
78
78
78
78
78
78
78
00
00
00
20
78
FC
FC
FC
FC
78
20
ENDCHAR
STARTCHAR 0022
ENCODING 34
SWIDTH 600 0
DWIDTH 30 0
BBX 14 13 8 22
BITMAP
F87C
F87C
F87C
F83C
F03C
F03C
F03C
7038
7038
7038
7038
7038
7038
ENDCHAR
STARTCHAR 0023
ENCODING 35
SWIDTH 600 0
DWIDTH 30 0
BBX 28 35 1 0
BITMAP
001C0F00
003C0F00
003C0F00
003C0E00
003C0E00
00381E00
00781E00
00781E00
00781C00
00781C00
3FFFFFF0
3FFFFFF0
3FFFFFF0
3FFFFFF0
00F03800
00E07800
00E07800
01E07800
01E07000
01C07000
01C0F000
FFFFFFC0
FFFFFFC0
FFFFFFC0
FFFFFFC0
0381E000
0381E000
0781E000
0781C000
0781C000
0703C000
0703C000
0F03C000
0F038000
0F038000
ENDCHAR
STARTCHAR 0024
ENCODING 36
SWIDTH 600 0
DWIDTH 30 0
BBX 22 40 4 -2
BITMAP
007000
007000
007000
007000
07FFC0
1FFFF8
3FFFF0
7FFFF0
7C7070
F87000
F87000
F07000
F07000
F07000
F87000
7C7000
7E7000
3FF000
1FF800
0FFF00
01FFC0
007FF0
007FF8
0071F8
00707C
00707C
00703C
00703C
00707C
00707C
C070F8
F873F8
FFFFF0
FFFFC0
7FFF00
00F000
007000
007000
007000
007000
ENDCHAR
STARTCHAR 0025
ENCODING 37
SWIDTH 600 0
DWIDTH 30 0
BBX 30 37 0 -1
BITMAP
01000000
1FE003C0
3FF00780
7EF80780
78380F00
F03C0F00
F03C1E00
F03C1E00
F01C3C00
F01C3800
F03C7800
F03C7000
703CF000
7878E000
3FF9E000
1FF1C000
0FC3C000
00038000
00078000
00070000
000F0FC0
000E3FE0
001E7FF0
003C7878
003CF038
0078F03C
0078F03C
00F0E03C
00F0E03C
01E0E03C
01E0F03C
03C0F03C
03C0F078
07807DF8
07803FF0
0F001FE0
00000200
ENDCHAR
STARTCHAR 0026
ENCODING 38
SWIDTH 600 0
DWIDTH 30 0
BBX 27 37 2 -1
BITMAP
00200000
03FE0000
07FF0000
0FFF8000
0F8F8000
1F07C000
1E03C000
1E03C000
1E03C000
1E03C000
1E07C000
0F078000
0F0F8000
0F9F0000
07BE0000
03FC0000
03F80000
03F00000
0FF80000
1FF80780
3F7C0780
3E3E0780
7C1F0F80
780F8F00
F80F8F00
F007DE00
F003FE00
F001FE00
F000FC00
F800FC00
F801FC00
7C03FE00
7F0FFF00
3FFFCF80
1FFF0FC0
0FFC07E0
00C00000
ENDCHAR
STARTCHAR 0027
ENCODING 39
SWIDTH 600 0
DWIDTH 30 0
BBX 4 13 13 22
BITMAP
F0
F0
F0
F0
F0
F0
F0
F0
F0
F0
F0
E0
60
ENDCHAR
STARTCHAR 0028
ENCODING 40
SWIDTH 600 0
DWIDTH 30 0
BBX 12 43 10 -8
BITMAP
01F0
03C0
07C0
0780
0F80
0F00
1F00
1E00
3E00
3C00
3C00
7C00
7C00
7800
7800
F800
F800
F800
F800
F800
F000
F000
F000
F000
F800
F800
F800
F800
7800
7800
7C00
7C00
3C00
3C00
3E00
1E00
1F00
0F00
0F80
0780
07C0
03C0
01E0
ENDCHAR
STARTCHAR 0029
ENCODING 41
SWIDTH 600 0
DWIDTH 30 0
BBX 12 43 8 -7
BITMAP
7800
3C00
3E00
1E00
1F00
0F00
0F80
0780
07C0
03C0
03C0
03E0
03E0
01E0
01E0
01F0
01F0
01F0
01F0
01F0
00F0
00F0
00F0
01F0
01F0
01F0
01F0
01F0
01E0
01E0
03E0
03E0
03C0
03C0
07C0
0780
0F80
0F00
1F00
1E00
3E00
3C00
F800
ENDCHAR
STARTCHAR 002A
ENCODING 42
SWIDTH 600 0
DWIDTH 30 0
BBX 22 20 4 17
BITMAP
007800
007800
007800
007800
007800
007800
003808
783078
7FB7F8
7FFFF8
BFFFFC
00FC00
00FC00
01FE00
03CF00
07CF80
0F87C0
1F03E0
0F03C0
020180
ENDCHAR
STARTCHAR 002B
ENCODING 43
SWIDTH 600 0
DWIDTH 30 0
BBX 22 23 4 6
BITMAP
007800
007800
007800
007800
007800
007800
007800
007800
007800
007800
FFFFFC
FFFFFC
FFFFFC
FFFFFC
007800
007800
007800
007800
007800
007800
007800
007800
007800
ENDCHAR
STARTCHAR 002C
ENCODING 44
SWIDTH 600 0
DWIDTH 30 0
BBX 8 13 11 -7
BITMAP
3F
3F
3E
3E
7E
7C
7C
7C
78
F8
F0
F0
E0
ENDCHAR
STARTCHAR 002D
ENCODING 45
SWIDTH 600 0
DWIDTH 30 0
BBX 16 4 7 11
BITMAP
FFFF
FFFF
FFFF
FFFF
ENDCHAR
STARTCHAR 002E
ENCODING 46
SWIDTH 600 0
DWIDTH 30 0
BBX 6 8 12 -1
BITMAP
20
78
FC
FC
FC
FC
78
20
ENDCHAR
STARTCHAR 002F
ENCODING 47
SWIDTH 600 0
DWIDTH 30 0
BBX 18 35 6 0
BITMAP
0007C0
000780
000780
000F80
000F00
000F00
001E00
001E00
003E00
003C00
003C00
007C00
007800
00F800
00F000
00F000
01F000
01E000
03E000
03C000
03C000
07C000
078000
0F8000
0F0000
0F0000
1F0000
1E0000
1E0000
3C0000
3C0000
7C0000
780000
780000
F80000
ENDCHAR
STARTCHAR 0030
ENCODING 48
SWIDTH 600 0
DWIDTH 30 0
BBX 24 37 3 -1
BITMAP
001000
01FF80
07FFE0
0FFFF0
1FC3F8
1F00F8
3E007C
3C00FC
7C01FE
7801FE
7803FE
7803DE
F807DF
F00F8F
F00F0F
F01F0F
F01E0F
F03E0F
F07C0F
F0780F
F0F80F
F0F00F
F1F00F
F3E00F
FBC00F
7FC01E
7F801E
7F801E
7F003E
3E003C
3E007C
1F00F8
1FC3F8
0FFFF0
07FFE0
01FF80
001800
ENDCHAR
STARTCHAR 0031
ENCODING 49
SWIDTH 600 0
DWIDTH 30 0
BBX 21 35 5 0
BITMAP
007800
01F800
07F800
1FF800
7FF800
FF7800
7C7800
707800
007800
007800
007800
007800
007800
007800
007800
007800
007800
007800
007800
007800
007800
007800
007800
007800
007800
007800
007800
007800
007800
007800
007800
3FFFF8
3FFFF8
3FFFF8
3FFFF8
ENDCHAR
STARTCHAR 0032
ENCODING 50
SWIDTH 600 0
DWIDTH 30 0
BBX 24 36 3 0
BITMAP
001000
03FF80
0FFFE0
1FFFF0
7F83F8
7E00F8
38007C
10007C
00003C
00003C
00003C
00003C
00003C
00007C
00007C
0000F8
0000F8
0001F0
0003F0
0007E0
0007C0
000F80
001F80
003F00
007E00
00FC00
01F800
03F000
07E000
0FC000
1F0000
3E0000
7FFFFF
FFFFFF
FFFFFF
FFFFFF
ENDCHAR
STARTCHAR 0033
ENCODING 51
SWIDTH 600 0
DWIDTH 30 0
BBX 22 37 4 -1
BITMAP
002000
0FFF00
3FFFC0
FFFFE0
FE07F0
7801F0
2000F8
0000F8
000078
000078
0000F8
0000F8
0000F8
0001F0
0003E0
000FC0
07FF80
07FC00
07FF80
07FFE0
0003F0
0000F8
00007C
00007C
00003C
00003C
00003C
00003C
00007C
00007C
0000F8
C001F8
FC0FF0
FFFFE0
FFFFC0
3FFF00
00C000
ENDCHAR
STARTCHAR 0034
ENCODING 52
SWIDTH 600 0
DWIDTH 30 0
BBX 26 35 2 0
BITMAP
0001F000
0003F000
0003F000
0007F000
000FF000
000FF000
001EF000
001EF000
003CF000
007CF000
0078F000
00F0F000
01F0F000
01E0F000
03C0F000
03C0F000
0780F000
0F80F000
0F00F000
1E00F000
3E00F000
3C00F000
7800F000
7FFFFFC0
FFFFFFC0
FFFFFFC0
FFFFFFC0
0000F000
0000F000
0000F000
0000F000
0000F000
0000F000
0000F000
0000F000
ENDCHAR
STARTCHAR 0035
ENCODING 53
SWIDTH 600 0
DWIDTH 30 0
BBX 22 36 4 -1
BITMAP
3FFFF0
3FFFF0
3FFFF0
3FFFF0
3C0000
3C0000
3C0000
7C0000
7C0000
780000
780000
780000
780000
78F000
7FFF00
7FFFC0
7FFFE0
100FF0
0003F8
0000F8
0000F8
00007C
00007C
00007C
00007C
00007C
00007C
00007C
0000F8
0000F8
C003F0
F80FE0
FFFFC0
FFFF80
3FFE00
00C000
ENDCHAR
STARTCHAR 0036
ENCODING 54
SWIDTH 600 0
DWIDTH 30 0
BBX 24 37 3 -1
BITMAP
000080
003FF8
00FFF8
03FFF8
07F808
0FC000
1F8000
1F0000
3E0000
3C0000
7C0000
780000
780000
780E00
F8FFE0
F9FFF0
FBFFF8
F780FC
FE007E
FC003E
FC001E
F8001F
F8000F
F0000F
F0000F
F8000F
78000F
78001F
7C001F
7C001E
3E003E
3F007C
1FC1FC
0FFFF8
07FFE0
01FFC0
001800
ENDCHAR
STARTCHAR 0037
ENCODING 55
SWIDTH 600 0
DWIDTH 30 0
BBX 24 35 3 0
BITMAP
FFFFFF
FFFFFF
FFFFFF
FFFFFF
00001E
00001E
00003E
00003C
00007C
000078
0000F8
0000F0
0000F0
0001F0
0001E0
0003E0
0003C0
0007C0
000780
000F80
000F80
000F00
001F00
001E00
003E00
003E00
007C00
007C00
007800
00F800
00F000
01F000
01F000
03E000
03E000
ENDCHAR
STARTCHAR 0038
ENCODING 56
SWIDTH 600 0
DWIDTH 30 0
BBX 24 37 3 -1
BITMAP
000800
01FF80
07FFE0
0FFFF0
1F81F8
3E00FC
3E007C
3C003C
3C003C
3C003C
3C003C
3C003C
3E007C
1F00F8
0F81F0
07E7E0
03FFC0
01FF00
03FF80
07EFE0
1F83F0
3F01F8
3E007C
7C003E
78001E
78001E
F8001F
F8001F
F8001E
78001E
7C003E
7E007C
3F81FC
1FFFF8
0FFFE0
03FFC0
001000
ENDCHAR
STARTCHAR 0039
ENCODING 57
SWIDTH 600 0
DWIDTH 30 0
BBX 24 37 3 -1
BITMAP
001000
03FF80
0FFFE0
1FFFF0
3F83F8
3E00F8
7C007C
78003C
F8001E
F8001E
F0001E
F0001F
F0000F
F0001F
F8001F
F8001F
78003F
7C007F
3E01FF
3FFFFF
1FFFDF
07FF1F
01FC1F
00001E
00001E
00003E
00003E
00003C
00007C
0000F8
0001F8
0003F0
101FE0
1FFFC0
1FFF00
1FFC00
010000
ENDCHAR
STARTCHAR 003A
ENCODING 58
SWIDTH 600 0
DWIDTH 30 0
BBX 6 29 12 -1
BITMAP
10
78
FC
FC
FC
FC
78
10
00
00
00
00
00
00
00
00
00
00
00
00
00
20
78
FC
FC
FC
FC
78
20
ENDCHAR
STARTCHAR 003B
ENCODING 59
SWIDTH 600 0
DWIDTH 30 0
BBX 8 35 11 -7
BITMAP
04
1F
3F
3F
3F
3F
1F
04
00
00
00
00
00
00
00
00
00
00
00
00
00
00
3F
3F
3E
3E
7E
7C
7C
7C
78
F8
F0
F0
E0
ENDCHAR
STARTCHAR 003C
ENCODING 60
SWIDTH 600 0
DWIDTH 30 0
BBX 22 24 4 6
BITMAP
00000C
00003C
0000FC
0003FC
0007F0
001FC0
007F00
01FC00
03F000
0FE000
3F8000
FE0000
F80000
FE0000
3F8000
0FF000
03FC00
00FF00
003FC0
000FF0
0003FC
0000FC
00003C
00000C
ENDCHAR
STARTCHAR 003D
ENCODING 61
SWIDTH 600 0
DWIDTH 30 0
BBX 24 13 3 11
BITMAP
FFFFFF
FFFFFF
FFFFFF
FFFFFF
000000
000000
000000
000000
000000
FFFFFF
FFFFFF
FFFFFF
FFFFFF
ENDCHAR
STARTCHAR 003E
ENCODING 62
SWIDTH 600 0
DWIDTH 30 0
BBX 22 24 4 6
BITMAP
C00000
F00000
FC0000
FF0000
3F8000
0FE000
03F800
00FE00
003F00
001FC0
0007F0
0001FC
00007C
0001FC
0007F0
003FC0
00FF00
03FC00
0FF000
3FC000
FF0000
FC0000
F00000
C00000
ENDCHAR
STARTCHAR 003F
ENCODING 63
SWIDTH 600 0
DWIDTH 30 0
BBX 22 37 4 -1
BITMAP
002000
0FFF00
FFFFC0
7FFFE0
7E03F0
3000F8
0000F8
000078
00007C
000078
000078
000078
000078
0000F8
0001F0
0003E0
0007E0
001F80
003F00
007E00
00FC00
00F800
00F000
00F000
01E000
01E000
000000
000000
000000
004000
01F000
01F800
01F800
01F800
01F800
01F000
004000
ENDCHAR
STARTCHAR 0040
ENCODING 64
SWIDTH 600 0
DWIDTH 30 0
BBX 28 40 1 -5
BITMAP
001FE000
00FFF800
01FFFC00
03FFFE00
07E01F00
0F800F80
1F0007C0
1E0003C0
3C0001E0
380001E0
780FE0E0
783FF8F0
707FF8F0
F0FFF870
F0F07870
F1F07870
E1E07870
E1E07870
E1E07870
E1C07870
E3C07870
E3C07870
E3C07870
E1C0F8F0
E1E0F8F0
F1E0F8E0
F1F1D9E0
F0FFDFE0
70FF9FC0
787F0F80
781C0200
3C000000
3C000000
1E000000
1F800000
0FC00700
07FFFF00
01FFFF00
00FFFE00
001FF000
ENDCHAR
STARTCHAR 0041
ENCODING 65
SWIDTH 600 0
DWIDTH 30 0
BBX 28 35 1 0
BITMAP
001F8000
001F8000
001F8000
003FC000
003FC000
003FC000
007FE000
0079E000
0079E000
00F9F000
00F0F000
00F0F000
01F0F800
01E07800
01E07800
03E07C00
03C03C00
03C03C00
07C03E00
07803E00
07FFFE00
0FFFFF00
0FFFFF00
0FFFFF00
1F000F80
1F000F80
1E000780
3E0007C0
3E0007C0
3C0003C0
7C0003E0
7C0003E0
780001E0
F80001F0
F80001F0
ENDCHAR
STARTCHAR 0042
ENCODING 66
SWIDTH 600 0
DWIDTH 30 0
BBX 22 35 5 0
BITMAP
FFFC00
FFFF80
FFFFE0
FFFFF0
F003F0
F000F8
F000F8
F00078
F00078
F00078
F00078
F000F8
F000F8
F001F0
F007E0
FFFFC0
FFFE00
FFFF80
FFFFE0
F001F0
F000F8
F0007C
F0007C
F0003C
F0003C
F0003C
F0007C
F0007C
F0007C
F000F8
F001F8
FFFFF0
FFFFE0
FFFFC0
FFFE00
ENDCHAR
STARTCHAR 0043
ENCODING 67
SWIDTH 600 0
DWIDTH 30 0
BBX 25 37 3 -1
BITMAP
00010000
003FFC00
00FFFF80
03FFFF00
07F81F00
0FC00200
1F800000
1F000000
3E000000
3E000000
7C000000
7C000000
7C000000
78000000
78000000
F8000000
F8000000
F8000000
F8000000
F8000000
F8000000
F8000000
78000000
78000000
7C000000
7C000000
7C000000
3C000000
3E000000
1F000000
1F800000
0FC00200
07F01E00
03FFFE00
01FFFE00
007FFC00
00030000
ENDCHAR
STARTCHAR 0044
ENCODING 68
SWIDTH 600 0
DWIDTH 30 0
BBX 25 35 3 0
BITMAP
FFFC0000
FFFF8000
FFFFC000
FFFFF000
F803F800
F801F800
F8007C00
F8003E00
F8003E00
F8001F00
F8001F00
F8001F00
F8000F00
F8000F80
F8000F80
F8000F80
F8000F80
F8000F80
F8000F80
F8000F80
F8000F80
F8000F00
F8000F00
F8001F00
F8001F00
F8001E00
F8003E00
F8007E00
F800FC00
F801F800
F807F000
FFFFE000
FFFFC000
FFFF0000
FFF80000
ENDCHAR
STARTCHAR 0045
ENCODING 69
SWIDTH 600 0
DWIDTH 30 0
BBX 21 35 5 0
BITMAP
FFFFF8
FFFFF8
FFFFF8
FFFFF8
F00000
F00000
F00000
F00000
F00000
F00000
F00000
F00000
F00000
F00000
F00000
FFFFF0
FFFFF0
FFFFF0
FFFFF0
F00000
F00000
F00000
F00000
F00000
F00000
F00000
F00000
F00000
F00000
F00000
F00000
FFFFF8
FFFFF8
FFFFF8
FFFFF8
ENDCHAR
STARTCHAR 0046
ENCODING 70
SWIDTH 600 0
DWIDTH 30 0
BBX 21 35 5 0
BITMAP
FFFFF8
FFFFF8
FFFFF8
FFFFF8
F00000
F00000
F00000
F00000
F00000
F00000
F00000
F00000
F00000
F00000
F00000
F00000
FFFFF0
FFFFF0
FFFFF0
FFFFF0
F00000
F00000
F00000
F00000
F00000
F00000
F00000
F00000
F00000
F00000
F00000
F00000
F00000
F00000
F00000
ENDCHAR
STARTCHAR 0047
ENCODING 71
SWIDTH 600 0
DWIDTH 30 0
BBX 25 37 2 -1
BITMAP
00010000
003FFC00
01FFFF00
03FFFF00
07F81E00
0FC00200
1F800000
1F000000
3E000000
3E000000
7C000000
7C000000
7C000000
78000000
78000000
F8000000
F8000000
F803FF80
F803FF80
F803FF80
F803FF80
F8000F80
F8000F80
78000F80
78000F80
7C000F80
7C000F80
7C000F80
3E000F80
3F000F80
1F000F80
0FC00F80
0FF01F80
07FFFF80
01FFFF80
007FFC00
00030000
ENDCHAR
STARTCHAR 0048
ENCODING 72
SWIDTH 600 0
DWIDTH 30 0
BBX 24 35 3 0
BITMAP
F8001F
F8001F
F8001F
F8001F
F8001F
F8001F
F8001F
F8001F
F8001F
F8001F
F8001F
F8001F
F8001F
F8001F
F8001F
FFFFFF
FFFFFF
FFFFFF
FFFFFF
F8001F
F8001F
F8001F
F8001F
F8001F
F8001F
F8001F
F8001F
F8001F
F8001F
F8001F
F8001F
F8001F
F8001F
F8001F
F8001F
ENDCHAR
STARTCHAR 0049
ENCODING 73
SWIDTH 600 0
DWIDTH 30 0
BBX 20 35 5 0
BITMAP
FFFFF0
FFFFF0
FFFFF0
1FFF80
00F000
00F000
00F000
00F000
00F000
00F000
00F000
00F000
00F000
00F000
00F000
00F000
00F000
00F000
00F000
00F000
00F000
00F000
00F000
00F000
00F000
00F000
00F000
00F000
00F000
00F000
00F000
03FC00
FFFFF0
FFFFF0
FFFFF0
ENDCHAR
STARTCHAR 004A
ENCODING 74
SWIDTH 600 0
DWIDTH 30 0
BBX 18 36 5 -1
BITMAP
0003C0
0003C0
0003C0
0003C0
0003C0
0003C0
0003C0
0003C0
0003C0
0003C0
0003C0
0003C0
0003C0
0003C0
0003C0
0003C0
0003C0
0003C0
0003C0
0003C0
0003C0
0003C0
0003C0
0003C0
0003C0
0003C0
0003C0
0007C0
0007C0
000F80
800F80
F03F00
FFFF00
FFFE00
7FF800
010000
ENDCHAR
STARTCHAR 004B
ENCODING 75
SWIDTH 600 0
DWIDTH 30 0
BBX 25 35 3 0
BITMAP
F8001F00
F8003E00
F8007C00
F800F800
F801F800
F801F000
F803E000
F807C000
F80FC000
F80F8000
F81F0000
F83E0000
F87E0000
F87C0000
F8F80000
F9F00000
F9F00000
FBF80000
FFFC0000
FFFC0000
FF3E0000
FE1F0000
FC1F0000
F80F8000
F807C000
F807C000
F803E000
F801F000
F801F000
F800F800
F800FC00
F8007C00
F8003E00
F8003F00
F8001F80
ENDCHAR
STARTCHAR 004C
ENCODING 76
SWIDTH 600 0
DWIDTH 30 0
BBX 20 35 6 0
BITMAP
F00000
F00000
F00000
F00000
F00000
F00000
F00000
F00000
F00000
F00000
F00000
F00000
F00000
F00000
F00000
F00000
F00000
F00000
F00000
F00000
F00000
F00000
F00000
F00000
F00000
F00000
F00000
F00000
F00000
F00000
F00000
FFFFF0
FFFFF0
FFFFF0
FFFFF0
ENDCHAR
STARTCHAR 004D
ENCODING 77
SWIDTH 600 0
DWIDTH 30 0
BBX 26 35 2 0
BITMAP
FE001FC0
FE001FC0
FF003FC0
FF003FC0
FF003FC0
F7807BC0
F7807BC0
F7807BC0
F78077C0
FBC0F7C0
FBC0F7C0
FBC0F7C0
F9E1E7C0
F9E1E7C0
F9E1E7C0
F8E3C7C0
F8F3C7C0
F8F3C7C0
F87387C0
F87F87C0
F87F87C0
F87F87C0
F83F07C0
F83F07C0
F83F07C0
F81E07C0
F80007C0
F80007C0
F80007C0
F80007C0
F80007C0
F80007C0
F80007C0
F80007C0
F80007C0
ENDCHAR
STARTCHAR 004E
ENCODING 78
SWIDTH 600 0
DWIDTH 30 0
BBX 24 35 3 0
BITMAP
FE001F
FE001F
FF001F
FF001F
FF001F
F7801F
F7801F
F3C01F
FBC01F
F9E01F
F9E01F
F9F01F
F8F01F
F8F01F
F8781F
F8781F
F83C1F
F83C1F
F81E1F
F81E1F
F80F1F
F80F1F
F80F1F
F8079F
F8079F
F803DF
F803DF
F801FF
F801EF
F800FF
F800FF
F800FF
F8007F
F8007F
F8003F
ENDCHAR
STARTCHAR 004F
ENCODING 79
SWIDTH 600 0
DWIDTH 30 0
BBX 26 37 2 -1
BITMAP
00080000
00FFC000
03FFF000
07FFF800
0FE0FC00
1F807E00
1F003E00
3E001F00
3C000F00
7C000F80
7C000F80
78000F80
78000780
78000780
F80007C0
F80007C0
F80007C0
F80007C0
F80007C0
F80007C0
F80007C0
F80007C0
F80007C0
78000780
78000780
78000F80
7C000F80
7C000F80
3C000F00
3E001F00
1F003E00
1F807E00
0FE0FC00
07FFF800
03FFF000
00FFC000
000C0000
ENDCHAR
STARTCHAR 0050
ENCODING 80
SWIDTH 600 0
DWIDTH 30 0
BBX 22 35 5 0
BITMAP
FFFE00
FFFFC0
FFFFE0
FFFFF0
F001F8
F000F8
F0007C
F0007C
F0003C
F0003C
F0003C
F0003C
F0007C
F0007C
F00078
F000F8
F003F0
FFFFF0
FFFFC0
FFFF80
FFFC00
F00000
F00000
F00000
F00000
F00000
F00000
F00000
F00000
F00000
F00000
F00000
F00000
F00000
F00000
ENDCHAR
STARTCHAR 0051
ENCODING 81
SWIDTH 600 0
DWIDTH 30 0
BBX 26 45 2 -9
BITMAP
00080000
00FFC000
03FFF000
07FFF800
0FE0FC00
1F807E00
1F003E00
3E001F00
3C000F00
7C000F80
7C000F80
78000F80
78000780
78000780
F80007C0
F80007C0
F80007C0
F80007C0
F80007C0
F80007C0
F80007C0
F80007C0
F80007C0
78000780
78000780
78000F80
7C000F80
7C000F80
3C000F00
3E001F00
1F003E00
1F807E00
0FE0FC00
07FFF800
03FFF000
00FFF000
0008F000
0000F800
00007C00
00007C00
00003E00
00003E00
00001F00
00001F00
00000F80
ENDCHAR
STARTCHAR 0052
ENCODING 82
SWIDTH 600 0
DWIDTH 30 0
BBX 23 35 5 0
BITMAP
FFF800
FFFF00
FFFFC0
FFFFE0
F007E0
F003F0
F001F0
F000F0
F000F8
F000F8
F000F8
F000F8
F000F0
F001F0
F001F0
F003E0
F00FC0
FFFF80
FFFF00
FFFC00
FFFE00
F03E00
F01F00
F00F00
F00F80
F007C0
F007C0
F003E0
F001E0
F001F0
F000F8
F000F8
F0007C
F0003E
F0003E
ENDCHAR
STARTCHAR 0053
ENCODING 83
SWIDTH 600 0
DWIDTH 30 0
BBX 22 37 4 -1
BITMAP
000800
01FFE0
07FFFC
1FFFF8
1FC0F8
3E0018
3C0000
7C0000
7C0000
7C0000
7C0000
7C0000
7C0000
3E0000
3F8000
1FE000
0FF800
07FF00
01FF80
007FE0
001FF0
0007F8
0001FC
00007C
00007C
00003C
00003C
00003C
00003C
00007C
00007C
C000F8
FC03F8
FFFFF0
FFFFE0
3FFF80
006000
ENDCHAR
STARTCHAR 0054
ENCODING 84
SWIDTH 600 0
DWIDTH 30 0
BBX 26 35 2 0
BITMAP
FFFFFFC0
FFFFFFC0
FFFFFFC0
FFFFFFC0
001E0000
001E0000
001E0000
001E0000
001E0000
001E0000
001E0000
001E0000
001E0000
001E0000
001E0000
001E0000
001E0000
001E0000
001E0000
001E0000
001E0000
001E0000
001E0000
001E0000
001E0000
001E0000
001E0000
001E0000
001E0000
001E0000
001E0000
001E0000
001E0000
001E0000
001E0000
ENDCHAR
STARTCHAR 0055
ENCODING 85
SWIDTH 600 0
DWIDTH 30 0
BBX 24 36 3 -1
BITMAP
F8001F
F8001F
F8001F
F8001F
F8001F
F8001F
F8001F
F8001F
F8001F
F8001F
F8001F
F8001F
F8001F
F8001F
F8001F
F8001F
F8001F
F8001F
F8001F
F8001F
F8001F
F8001F
F8001F
78001E
78001E
78001E
78001E
7C003E
7C003E
3E007C
3F007C
1F81F8
0FFFF0
07FFE0
03FFC0
001800
ENDCHAR
STARTCHAR 0056
ENCODING 86
SWIDTH 600 0
DWIDTH 30 0
BBX 28 35 1 0
BITMAP
F80001F0
780001E0
7C0003E0
7C0003E0
3C0003C0
3E0007C0
3E0007C0
1E000780
1F000F80
1F000F80
0F000F00
0F000F00
0F801F00
07801E00
07801E00
07C03E00
03C03C00
03C03C00
03E07C00
01E07800
01E07800
01F07800
00F0F800
00F0F000
00F0F000
0079F000
0079E000
0079E000
003DE000
003FC000
003FC000
001FC000
001F8000
001F8000
000F8000
ENDCHAR
STARTCHAR 0057
ENCODING 87
SWIDTH 600 0
DWIDTH 30 0
BBX 28 35 1 0
BITMAP
F00000F0
F80001F0
780001F0
780001E0
780001E0
780001E0
780001E0
780001E0
780F01E0
780F81E0
781F81E0
3C1F81E0
3C1F83C0
3C1FC3C0
3C3FC3C0
3C3DC3C0
3C39C3C0
3C39C3C0
3C79E3C0
3C78E3C0
1C70E3C0
1C70E3C0
1C70F380
1EF07380
1EE07380
1EE07380
1EE07F80
1EE07F80
0FE03F80
0FC03F80
0FC03F80
0FC03F80
0FC01F00
0F801F00
0F801F00
ENDCHAR
STARTCHAR 0058
ENCODING 88
SWIDTH 600 0
DWIDTH 30 0
BBX 26 35 2 0
BITMAP
FC000FC0
7C000F80
3E001F00
1E001E00
1F003E00
0F003C00
0F807C00
07C0F800
03C0F000
03E1F000
01E1E000
00F3E000
00F3C000
007F8000
007F8000
003F0000
001F0000
001E0000
003F0000
007F8000
007F8000
00FBC000
01F3E000
01E1E000
03E1F000
03C0F000
07C07800
0F807C00
0F003C00
1F003E00
1E001E00
3E000F00
7C000F80
78000780
F80007C0
ENDCHAR
STARTCHAR 0059
ENCODING 89
SWIDTH 600 0
DWIDTH 30 0
BBX 26 35 2 0
BITMAP
F80007C0
78000780
7C000F80
3C000F00
3E001F00
1E001E00
1F003E00
0F003C00
0F807C00
07807800
07C0F800
03C0F000
03E0F000
01E1E000
01F1E000
00F3C000
00F3C000
007F8000
007F8000
003F0000
003F0000
001E0000
001E0000
001E0000
001E0000
001E0000
001E0000
001E0000
001E0000
001E0000
001E0000
001E0000
001E0000
001E0000
001E0000
ENDCHAR
STARTCHAR 005A
ENCODING 90
SWIDTH 600 0
DWIDTH 30 0
BBX 20 35 5 0
BITMAP
7FFFF0
7FFFF0
7FFFF0
7FFFF0
0001F0
0001E0
0003C0
0007C0
000780
000F80
000F00
001F00
001E00
003E00
007C00
007800
00F800
00F000
01F000
01E000
03E000
03C000
07C000
0F8000
0F0000
1F0000
1E0000
3E0000
3C0000
7C0000
F80000
FFFFF0
FFFFF0
FFFFF0
FFFFF0
ENDCHAR
STARTCHAR 005B
ENCODING 91
SWIDTH 600 0
DWIDTH 30 0
BBX 11 43 12 -8
BITMAP
FFE0
FFE0
FFE0
FFE0
F000
F000
F000
F000
F000
F000
F000
F000
F000
F000
F000
F000
F000
F000
F000
F000
F000
F000
F000
F000
F000
F000
F000
F000
F000
F000
F000
F000
F000
F000
F000
F000
F000
F000
F000
FFE0
FFE0
FFE0
FFE0
ENDCHAR
STARTCHAR 005C
ENCODING 92
SWIDTH 600 0
DWIDTH 30 0
BBX 18 35 6 0
BITMAP
F80000
780000
780000
7C0000
3C0000
3C0000
1E0000
1E0000
1F0000
0F0000
0F0000
0F8000
078000
07C000
03C000
03C000
03E000
01E000
01F000
00F000
00F000
00F800
007800
007C00
003C00
003C00
003E00
001E00
001E00
000F00
000F00
000F80
000780
000780
0007C0
ENDCHAR
STARTCHAR 005D
ENCODING 93
SWIDTH 600 0
DWIDTH 30 0
BBX 11 43 7 -7
BITMAP
FFE0
FFE0
FFE0
FFE0
01E0
01E0
01E0
01E0
01E0
01E0
01E0
01E0
01E0
01E0
01E0
01E0
01E0
01E0
01E0
01E0
01E0
01E0
01E0
01E0
01E0
01E0
01E0
01E0
01E0
01E0
01E0
01E0
01E0
01E0
01E0
01E0
01E0
01E0
01E0
FFE0
FFE0
FFE0
FFE0
ENDCHAR
STARTCHAR 005E
ENCODING 94
SWIDTH 600 0
DWIDTH 30 0
BBX 26 23 2 13
BITMAP
001C0000
001C0000
003E0000
003E0000
007F0000
00770000
00F78000
00E38000
01E3C000
01E1C000
03C1E000
03C0E000
0780F000
07807800
07007800
0F003C00
0E003C00
1E001E00
1C001E00
3C000F00
3C000F00
78000780
F80007C0
ENDCHAR
STARTCHAR 005F
ENCODING 95
SWIDTH 600 0
DWIDTH 30 0
BBX 30 4 0 -8
BITMAP
FFFFFFFC
FFFFFFFC
FFFFFFFC
FFFFFFFC
ENDCHAR
STARTCHAR 0060
ENCODING 96
SWIDTH 600 0
DWIDTH 30 0
BBX 11 8 9 30
BITMAP
FC00
7E00
3E00
1F00
0F00
0780
03C0
01E0
ENDCHAR
STARTCHAR 0061
ENCODING 97
SWIDTH 600 0
DWIDTH 30 0
BBX 23 29 3 -1
BITMAP
001000
03FFC0
3FFFE0
1FFFF0
1F83F8
0C007C
00007C
00003C
00003C
00003C
00003E
00003E
00FFFE
07FFFE
1FFFFE
3FFFFE
7F003E
7C003E
78003E
78003E
F8003E
78007E
78007E
7C01FE
7F07FE
3FFF9E
1FFF1E
0FFC1E
00C000
ENDCHAR
STARTCHAR 0062
ENCODING 98
SWIDTH 600 0
DWIDTH 30 0
BBX 23 39 4 -1
BITMAP
F00000
F00000
F00000
F00000
F00000
F00000
F00000
F00000
F00000
F00000
F00800
F0FF80
F3FFE0
F7FFF0
FF83F8
FE00F8
FC007C
FC007C
F8003E
F8003E
F8003E
F8003E
F0001E
F0001E
F0001E
F0001E
F0001E
F8003E
F8003E
F8003E
F8003E
FC007C
FC007C
FE00F8
FF83F8
F7FFF0
F3FFE0
F0FF80
000800
ENDCHAR
STARTCHAR 0063
ENCODING 99
SWIDTH 600 0
DWIDTH 30 0
BBX 21 29 4 -1
BITMAP
000400
00FFF0
07FFF8
0FFFF8
1FE0F0
3F0010
3E0000
7C0000
7C0000
780000
780000
F80000
F80000
F80000
F80000
F80000
F80000
F80000
F80000
780000
7C0000
7C0000
3E0000
3F0008
1FE078
0FFFF8
07FFF8
01FFF0
000C00
ENDCHAR
STARTCHAR 0064
ENCODING 100
SWIDTH 600 0
DWIDTH 30 0
BBX 23 39 3 -1
BITMAP
00001E
00001E
00001E
00001E
00001E
00001E
00001E
00001E
00001E
00001E
00101E
03FF1E
0FFF9E
1FFFDE
3F83FE
3F00FE
7C007E
7C007E
F8003E
F8003E
F8003E
F8003E
F0003E
F0001E
F0001E
F0001E
F0001E
F0003E
F8003E
F8003E
F8003E
7C007E
7C007E
3E00FE
3F83FE
1FFFDE
0FFF9E
03FE1E
002000
ENDCHAR
STARTCHAR 0065
ENCODING 101
SWIDTH 600 0
DWIDTH 30 0
BBX 24 29 3 -1
BITMAP
000800
01FFC0
03FFE0
0FFFF8
1FC1F8
3F007C
3E003E
7C003E
7C001E
78001F
F8001F
F8001F
FFFFFF
FFFFFF
FFFFFF
FFFFFF
F80000
F80000
F80000
780000
7C0000
7C0000
3E0000
3F0006
1FE07E
0FFFFE
03FFFE
00FFF8
000600
ENDCHAR
STARTCHAR 0066
ENCODING 102
SWIDTH 600 0
DWIDTH 30 0
BBX 26 38 3 0
BITMAP
0001FF40
000FFF80
001FFF80
003FFF80
003E0000
007C0000
007C0000
007C0000
007C0000
007C0000
007C0000
3FFFFF00
FFFFFF00
FFFFFF00
FFFFFF00
007C0000
007C0000
007C0000
007C0000
007C0000
007C0000
007C0000
007C0000
007C0000
007C0000
007C0000
007C0000
007C0000
007C0000
007C0000
007C0000
007C0000
007C0000
007C0000
007C0000
007C0000
007C0000
007C0000
ENDCHAR
STARTCHAR 0067
ENCODING 103
SWIDTH 600 0
DWIDTH 30 0
BBX 23 40 3 -12
BITMAP
002000
03FE1E
0FFF9E
1FFFDE
3F83FE
3E00FE
7C007E
7C003E
78003E
F8003E
F8001E
F8001E
F0001E
F0001E
F0001E
F0001E
F0001E
F8001E
F8001E
F8001E
F8003E
7C003E
7C007E
3E00FE
3F83FE
1FFFDE
0FFF9E
03FF1E
00301E
00001E
00001E
00003E
00003E
00003C
40007C
7001F8
7FFFF8
7FFFF0
3FFFC0
03FE00
ENDCHAR
STARTCHAR 0068
ENCODING 104
SWIDTH 600 0
DWIDTH 30 0
BBX 22 38 4 0
BITMAP
F80000
F80000
F80000
F80000
F80000
F80000
F80000
F80000
F80000
F80000
F80800
F0FFC0
F1FFE0
F3FFF0
F7C3F8
FF00F8
FE007C
FC007C
F8007C
F8003C
F8003C
F8003C
F8003C
F8003C
F8003C
F8003C
F8003C
F8003C
F8003C
F8003C
F8003C
F8003C
F8003C
F8003C
F8003C
F8003C
F8003C
F8003C
ENDCHAR
STARTCHAR 0069
ENCODING 105
SWIDTH 600 0
DWIDTH 30 0
BBX 23 38 4 0
BITMAP
007800
00FC00
00FC00
00FE00
007C00
007800
000000
000000
000000
000000
000000
7FFC00
7FFC00
7FFC00
07FC00
003C00
003C00
003C00
003C00
003C00
003C00
003C00
003C00
003C00
003C00
003C00
003C00
003C00
003C00
003C00
003C00
003C00
003C00
003C00
03FFC0
FFFFFE
FFFFFE
FFFFFE
ENDCHAR
STARTCHAR 006A
ENCODING 106
SWIDTH 600 0
DWIDTH 30 0
BBX 17 50 3 -12
BITMAP
000F00
001F80
001F80
001F80
001F80
000F00
000000
000000
000000
000000
000000
0FFF80
0FFF80
0FFF80
0FFF80
000F80
000F80
000F80
000F80
000F80
000F80
000F80
000F80
000F80
000F80
000F80
000F80
000F80
000F80
000F80
000F80
000F80
000F80
000F80
000F80
000F80
000F80
000F80
000F80
000F80
000F80
000F80
000F80
000F00
001F00
803F00
FFFE00
FFFC00
FFF800
7FC000
ENDCHAR
STARTCHAR 006B
ENCODING 107
SWIDTH 600 0
DWIDTH 30 0
BBX 24 38 5 0
BITMAP
F80000
F80000
F80000
F80000
F80000
F80000
F80000
F80000
F80000
F80000
F80000
F8007E
F800F8
F801F8
F803F0
F807E0
F80FC0
F80F80
F81F00
F83E00
F87C00
F8F800
F9F000
FBF800
F7FC00
F7FC00
FF3E00
FE1F00
FC1F00
F80F80
F807C0
F803E0
F803E0
F801F0
F800F8
F800FC
F8007C
F8003F
ENDCHAR
STARTCHAR 006C
ENCODING 108
SWIDTH 600 0
DWIDTH 30 0
BBX 23 38 4 0
BITMAP
FFFC00
FFFC00
FFFC00
FFFC00
003C00
003C00
003C00
003C00
003C00
003C00
003C00
003C00
003C00
003C00
003C00
003C00
003C00
003C00
003C00
003C00
003C00
003C00
003C00
003C00
003C00
003C00
003C00
003C00
003C00
003C00
003C00
003C00
003C00
003C00
01FF80
FFFFFE
FFFFFE
FFFFFE
ENDCHAR
STARTCHAR 006D
ENCODING 109
SWIDTH 600 0
DWIDTH 30 0
BBX 26 28 2 0
BITMAP
00401000
F3F87E00
F7FDFF00
F7FDFF80
FE7FCF80
FC3F8780
F81F0780
F81F0780
F81E0780
F81E03C0
F81E03C0
F81E03C0
F81E03C0
F81E03C0
F81E03C0
F81E03C0
F81E03C0
F81E03C0
F81E03C0
F81E03C0
F81E03C0
F81E03C0
F81E03C0
F81E03C0
F81E03C0
F81E03C0
F81E03C0
F81E03C0
ENDCHAR
STARTCHAR 006E
ENCODING 110
SWIDTH 600 0
DWIDTH 30 0
BBX 22 28 4 0
BITMAP
000400
F0FFC0
F3FFE0
F7FFF0
F783F8
FE00FC
FC007C
FC007C
F8003C
F8003C
F8003C
F8003C
F8003C
F8003C
F8003C
F8003C
F8003C
F8003C
F8003C
F8003C
F8003C
F8003C
F8003C
F8003C
F8003C
F8003C
F8003C
F8003C
ENDCHAR
STARTCHAR 006F
ENCODING 111
SWIDTH 600 0
DWIDTH 30 0
BBX 24 29 3 -1
BITMAP
001000
01FF80
07FFE0
0FFFF0
1F83F8
3E00FC
7C007E
7C003E
78001E
F8001F
F8001F
F0001F
F0000F
F0000F
F0000F
F0000F
F0000F
F0001F
F8001F
F8001F
78001E
7C003E
7C007E
3F00FC
1F81F8
0FFFF0
07FFE0
01FF80
001800
ENDCHAR
STARTCHAR 0070
ENCODING 112
SWIDTH 600 0
DWIDTH 30 0
BBX 23 40 4 -12
BITMAP
000800
F0FF80
F3FFE0
F7FFF0
F783F8
FE00F8
FC007C
FC007C
F8003E
F8003E
F8003E
F8003E
F0001E
F0001E
F0001E
F0001E
F8001E
F8003E
F8003E
F8003E
F8003E
FC007C
FC007C
FE00F8
FF83F8
F7FFF0
F3FFE0
F0FF80
F00800
F00000
F00000
F00000
F00000
F00000
F00000
F00000
F00000
F00000
F00000
F00000
ENDCHAR
STARTCHAR 0071
ENCODING 113
SWIDTH 600 0
DWIDTH 30 0
BBX 23 40 3 -12
BITMAP
002000
03FE1E
0FFF9E
1FFFDE
3F83DE
3E00FE
7C007E
7C007E
78003E
F8003E
F8003E
F8003E
F0003E
F0001E
F0001E
F0001E
F0001E
F8003E
F8003E
F8003E
F8003E
7C007E
7C007E
3E00FE
3F83FE
1FFFDE
0FFF9E
03FE1E
00201E
00001E
00001E
00001E
00001E
00001E
00001E
00001E
00001E
00001E
00001E
00001E
ENDCHAR
STARTCHAR 0072
ENCODING 114
SWIDTH 600 0
DWIDTH 30 0
BBX 26 28 3 0
BITMAP
00000800
7FF0FFC0
7FF1FF80
7FF3FF80
00F7C180
00F70000
00FE0000
00FE0000
00FC0000
00FC0000
00F80000
00F80000
00F80000
00F80000
00F80000
00F80000
00F80000
00F80000
00F80000
00F80000
00F80000
00F80000
00F80000
00F80000
07FF0000
FFFFF800
FFFFF800
FFFFF800
ENDCHAR
STARTCHAR 0073
ENCODING 115
SWIDTH 600 0
DWIDTH 30 0
BBX 20 29 5 -1
BITMAP
002000
07FFC0
1FFFE0
3FFFE0
7F03E0
7C0040
780000
780000
780000
7C0000
7E0000
3F8000
1FE000
0FFC00
03FF00
00FF80
003FC0
0007E0
0003F0
0001F0
0001F0
0001F0
0001F0
C003E0
F80FE0
FFFFC0
FFFF80
3FFE00
00C000
ENDCHAR
STARTCHAR 0074
ENCODING 116
SWIDTH 600 0
DWIDTH 30 0
BBX 23 35 3 -1
BITMAP
00F000
00F000
00F000
00F000
01F000
01F000
01F000
7FFFFC
FFFFFC
FFFFFC
FFFFFC
01F000
01F000
01F000
01F000
01F000
01F000
01F000
01F000
01F000
01F000
01F000
01F000
01F000
01F000
01F000
01F000
01F000
01F000
00F800
00FE06
007FFE
003FFE
001FFE
0000C0
ENDCHAR
STARTCHAR 0075
ENCODING 117
SWIDTH 600 0
DWIDTH 30 0
BBX 22 28 4 -1
BITMAP
F0007C
F0007C
F0007C
F0007C
F0007C
F0007C
F0007C
F0007C
F0007C
F0007C
F0007C
F0007C
F0007C
F0007C
F0007C
F0007C
F0007C
F0007C
F0007C
F0007C
F800FC
F800FC
FC01FC
7F07BC
7FFFBC
3FFF3C
0FFC3C
00C000
ENDCHAR
STARTCHAR 0076
ENCODING 118
SWIDTH 600 0
DWIDTH 30 0
BBX 26 27 2 0
BITMAP
F80007C0
78000F80
7C000F80
3C000F00
3C001F00
3E001F00
1E001E00
1E003E00
1F003E00
0F003C00
0F807C00
0F807800
07807800
07C0F800
03C0F000
03C0F000
03E1F000
01E1E000
01E1E000
01F3C000
00F3C000
00F3C000
00FF8000
007F8000
007F8000
003F0000
003F0000
ENDCHAR
STARTCHAR 0077
ENCODING 119
SWIDTH 600 0
DWIDTH 30 0
BBX 28 27 1 0
BITMAP
F00000F0
F00000F0
F00000F0
F80000F0
780001F0
781F81E0
781F81E0
781F81E0
781F81E0
783FC1E0
7C3FC3E0
3C39C3C0
3C79C3C0
3C79E3C0
3C79E3C0
3C70E3C0
3CF0F3C0
1CF0F380
1EF0F780
1EE07780
1FE07780
1FE07F80
1FE07F80
0FC03F00
0FC03F00
0FC03F00
0F803F00
ENDCHAR
STARTCHAR 0078
ENCODING 120
SWIDTH 600 0
DWIDTH 30 0
BBX 26 27 2 0
BITMAP
7C000F80
3E001F00
1F003E00
1F003E00
0F807C00
07C0F800
07C0F800
03E1F000
01F3E000
00FFC000
00FFC000
007F8000
003F0000
003F0000
007F0000
007F8000
00FFC000
01F3E000
01E1E000
03E1F000
07C0F800
0F807C00
0F807C00
1F003E00
3E001F00
7C000F80
FC000FC0
ENDCHAR
STARTCHAR 0079
ENCODING 121
SWIDTH 600 0
DWIDTH 30 0
BBX 26 39 2 -12
BITMAP
F80007C0
78000780
7C000F80
3C000F00
3C000F00
1E001F00
1E001E00
1F001E00
0F003E00
0F803C00
07803C00
07807800
07C07800
03C07800
03E0F000
01E0F000
01E0F000
00F1E000
00F1E000
00F1C000
007BC000
007BC000
003B8000
003F8000
003F8000
001F0000
001F0000
001E0000
001E0000
003E0000
003C0000
003C0000
007C0000
00F80000
01F80000
7FF00000
7FE00000
7FC00000
7F000000
ENDCHAR
STARTCHAR 007A
ENCODING 122
SWIDTH 600 0
DWIDTH 30 0
BBX 22 27 4 0
BITMAP
7FFFF8
7FFFF8
7FFFF8
7FFFF8
0000F8
0001F0
0003E0
0007C0
000F80
000F80
001F00
003E00
007C00
007C00
00F800
01F000
03E000
03C000
07C000
0F8000
1F0000
1E0000
3E0000
7FFFFC
FFFFFC
FFFFFC
FFFFFC
ENDCHAR
STARTCHAR 007B
ENCODING 123
SWIDTH 600 0
DWIDTH 30 0
BBX 16 43 7 -8
BITMAP
000F
003F
00FF
01FF
01F0
03E0
03E0
03C0
03C0
03C0
03C0
03C0
03C0
03C0
03C0
03C0
03C0
03C0
07C0
1F80
FF00
FC00
FE00
FF80
0FC0
07C0
03C0
03C0
03C0
03C0
03C0
03C0
03C0
03C0
03C0
03C0
03E0
03E0
01F0
01FF
00FF
007F
000F
ENDCHAR
STARTCHAR 007C
ENCODING 124
SWIDTH 600 0
DWIDTH 30 0
BBX 4 50 13 -12
BITMAP
F0
F0
F0
F0
F0
F0
F0
F0
F0
F0
F0
F0
F0
F0
F0
F0
F0
F0
F0
F0
F0
F0
F0
F0
F0
F0
F0
F0
F0
F0
F0
F0
F0
F0
F0
F0
F0
F0
F0
F0
F0
F0
F0
F0
F0
F0
F0
F0
F0
F0
ENDCHAR
STARTCHAR 007D
ENCODING 125
SWIDTH 600 0
DWIDTH 30 0
BBX 16 43 7 -7
BITMAP
F000
FE00
FF00
FF80
0F80
07C0
07C0
03C0
03C0
03C0
03C0
03C0
03C0
03C0
03C0
03C0
03C0
03E0
03F0
01FF
007F
003F
00FF
01F8
03E0
03C0
03C0
03C0
03C0
03C0
03C0
03C0
03C0
03C0
03C0
07C0
07C0
07C0
0F80
FF80
FF00
FC00
F000
ENDCHAR
STARTCHAR 007E
ENCODING 126
SWIDTH 600 0
DWIDTH 30 0
BBX 22 9 4 14
BITMAP
0F001C
3FC01C
7FE01C
70F01C
707838
E03C38
E01FF0
E00FF0
E003C0
ENDCHAR
STARTCHAR 00A0
ENCODING 160
SWIDTH 600 0
DWIDTH 30 0
BBX 0 0 0 0
BITMAP
ENDCHAR
STARTCHAR 00A1
ENCODING 161
SWIDTH 600 0
DWIDTH 30 0
BBX 6 36 12 -9
BITMAP
20
78
FC
FC
FC
FC
78
20
00
00
00
78
78
78
78
78
78
78
78
78
78
78
78
78
78
78
78
78
F8
F8
FC
FC
FC
FC
FC
FC
ENDCHAR
STARTCHAR 00A2
ENCODING 162
SWIDTH 600 0
DWIDTH 30 0
BBX 22 37 4 -1
BITMAP
001C00
001C00
001C00
001C00
001E00
01FFFC
03FFF8
0FFFF8
1FC078
1F0000
3E0000
3C0000
7C0000
7C0000
780000
780000
780000
F80000
F80000
780000
780000
780000
780000
7C0000
7C0000
3E0000
3F0000
1F8018
0FFFF8
07FFF8
03FFF8
007FE0
001C00
001C00
001C00
001C00
001C00
ENDCHAR
STARTCHAR 00A3
ENCODING 163
SWIDTH 600 0
DWIDTH 30 0
BBX 22 36 4 0
BITMAP
000200
003FF0
00FFFC
01FFF8
03F078
03E008
03C000
07C000
07C000
07C000
07C000
07C000
07C000
07C000
07C000
07C000
07C000
7FFFC0
7FFFC0
7FFFC0
7FFFC0
07C000
07C000
07C000
07C000
07C000
07C000
078000
078000
0F8000
0F0000
1E0000
7FFFFC
FFFFFC
FFFFFC
FFFFFC
ENDCHAR
STARTCHAR 00A4
ENCODING 164
SWIDTH 600 0
DWIDTH 30 0
BBX 24 22 3 7
BITMAP
30000C
787E1E
FDFFBF
3FFFFC
1FFFF8
0F80F0
1E0078
1C0038
3C003C
3C003C
38001C
38001C
3C001C
3C003C
1C0038
1E0078
0F00F0
1FFFF8
3FFFFC
7DFFBE
787E1E
30000C
ENDCHAR
STARTCHAR 00A5
ENCODING 165
SWIDTH 600 0
DWIDTH 30 0
BBX 26 35 2 0
BITMAP
F80007C0
78000780
7C000F80
3C000F00
3E001F00
1E001E00
1F003E00
0F003C00
0F807C00
07807800
07C0F800
03C0F000
03E1E000
01E1E000
01F3C000
00F3C000
007F8000
007F8000
0FFFFC00
0FFFFC00
0FFFFC00
0FFFFC00
001E0000
001E0000
001E0000
0FFFFC00
0FFFFC00
0FFFFC00
0FFFFC00
001E0000
001E0000
001E0000
001E0000
001E0000
001E0000
ENDCHAR
STARTCHAR 00A6
ENCODING 166
SWIDTH 600 0
DWIDTH 30 0
BBX 4 50 13 -12
BITMAP
F0
F0
F0
F0
F0
F0
F0
F0
F0
F0
F0
F0
F0
F0
F0
F0
F0
F0
F0
00
00
00
00
00
00
00
00
00
00
00
00
F0
F0
F0
F0
F0
F0
F0
F0
F0
F0
F0
F0
F0
F0
F0
F0
F0
F0
F0
ENDCHAR
STARTCHAR 00A7
ENCODING 167
SWIDTH 600 0
DWIDTH 30 0
BBX 20 39 5 -1
BITMAP
03FE00
0FFFC0
1FFFE0
3FFFC0
7C00C0
780000
780000
780000
7C0000
3E0000
3F8000
1FF000
07FC00
1FFF00
3E3F80
3C0FC0
7803E0
7001E0
7000E0
7800F0
7800E0
7C00E0
3F01E0
1FC3C0
07FF80
01FF00
007F80
000FC0
0003E0
0001E0
0001E0
0001E0
0001E0
C003E0
FC0FE0
FFFFC0
FFFF80
3FFE00
01C000
ENDCHAR
STARTCHAR 00A8
ENCODING 168
SWIDTH 600 0
DWIDTH 30 0
BBX 17 6 7 31
BITMAP
700E00
F81F00
F81F80
F81F00
F81F00
700E00
ENDCHAR
STARTCHAR 00A9
ENCODING 169
SWIDTH 600 0
DWIDTH 30 0
BBX 26 25 2 5
BITMAP
007FC000
03FFF000
0780F800
0E001E00
1C1F0E00
387FC700
70FF8380
70F08380
61C00180
E1C001C0
E1C001C0
E38001C0
E38001C0
E38001C0
E1C001C0
E1C00180
61C00180
70E08380
707F8300
383F8700
1C000E00
0F003C00
07C0F800
03FFF000
007F8000
ENDCHAR
STARTCHAR 00AA
ENCODING 170
SWIDTH 600 0
DWIDTH 30 0
BBX 13 17 8 19
BITMAP
1FC0
7FF0
78F8
4038
0038
0038
0038
1FF8
7FF8
F038
E038
E038
E038
E078
F0F8
7FD8
3F18
ENDCHAR
STARTCHAR 00AB
ENCODING 171
SWIDTH 600 0
DWIDTH 30 0
BBX 22 21 4 3
BITMAP
008020
00E030
01F07C
03E0F8
07C1F0
0783E0
0F07C0
1F0780
3E0F80
7C1F00
F83E00
7C3E00
3C1F00
3E0F80
1F07C0
0F83E0
07C1E0
03C1F0
03E0F8
01F07C
00C030
ENDCHAR
STARTCHAR 00AC
ENCODING 172
SWIDTH 600 0
DWIDTH 30 0
BBX 22 13 4 7
BITMAP
FFFFFC
FFFFFC
FFFFFC
FFFFFC
00003C
00003C
00003C
00003C
00003C
00003C
00003C
00003C
00003C
ENDCHAR
STARTCHAR 00AD
ENCODING 173
SWIDTH 600 0
DWIDTH 30 0
BBX 16 4 7 11
BITMAP
FFFF
FFFF
FFFF
FFFF
ENDCHAR
STARTCHAR 00AE
ENCODING 174
SWIDTH 600 0
DWIDTH 30 0
BBX 26 25 2 5
BITMAP
007FC000
03FFF000
0780F800
0E001E00
1C000E00
38FF0700
70FFC380
70E1C380
60E0C180
E0E0C1C0
E0E0C1C0
E0E3C1C0
E0FF81C0
E0FF01C0
E0E701C0
E0E38180
60E1C180
70E1C380
70E0E300
38E0F700
1C000E00
0F003C00
07C0F800
03FFF000
007F8000
ENDCHAR
STARTCHAR 00AF
ENCODING 175
SWIDTH 600 0
DWIDTH 30 0
BBX 14 4 8 31
BITMAP
FFFC
FFFC
FFFC
FFFC
ENDCHAR
STARTCHAR 00B0
ENCODING 176
SWIDTH 600 0
DWIDTH 30 0
BBX 16 15 7 21
BITMAP
07E0
1FF8
3FFC
3C3C
700E
700E
700E
F007
F00F
700E
780E
7C3E
3FFC
1FF8
07E0
ENDCHAR
STARTCHAR 00B1
ENCODING 177
SWIDTH 600 0
DWIDTH 30 0
BBX 22 29 4 0
BITMAP
007800
007800
007800
007800
007800
007800
007800
007800
007800
FFFFFC
FFFFFC
FFFFFC
FFFFFC
007800
007800
007800
007800
007800
007800
007800
007800
007800
007800
000000
000000
FFFFFC
FFFFFC
FFFFFC
FFFFFC
ENDCHAR
STARTCHAR 00B2
ENCODING 178
SWIDTH 600 0
DWIDTH 30 0
BBX 15 22 8 21
BITMAP
0FC0
3FF0
FFF8
F87C
603C
001C
001C
003C
003C
0078
0078
00F0
01E0
03C0
0780
0F00
1E00
3C00
7800
FFFE
FFFE
FFFE
ENDCHAR
STARTCHAR 00B3
ENCODING 179
SWIDTH 600 0
DWIDTH 30 0
BBX 14 22 8 20
BITMAP
1FC0
7FF0
FFF8
7078
403C
003C
003C
0078
00F8
1FF0
1FC0
1FF8
0078
003C
001C
001C
003C
803C
E07C
FFF8
FFF0
3FC0
ENDCHAR
STARTCHAR 00B4
ENCODING 180
SWIDTH 600 0
DWIDTH 30 0
BBX 10 8 12 30
BITMAP
07C0
0FC0
0F80
1F00
3E00
3C00
7800
F000
ENDCHAR
STARTCHAR 00B5
ENCODING 181
SWIDTH 600 0
DWIDTH 30 0
BBX 22 39 4 -12
BITMAP
F0007C
F0007C
F0007C
F0007C
F0007C
F0007C
F0007C
F0007C
F0007C
F0007C
F0007C
F0007C
F0007C
F0007C
F0007C
F0007C
F0007C
F0007C
F0007C
F0007C
F800FC
F800FC
FC01FC
FF07BC
FFFFBC
FFFF3C
FFFC3C
F0C000
F00000
F00000
F00000
F00000
F00000
F00000
F00000
F00000
F00000
F00000
F00000
ENDCHAR
STARTCHAR 00B6
ENCODING 182
SWIDTH 600 0
DWIDTH 30 0
BBX 25 44 2 -6
BITMAP
01FFFF80
07FFFF80
0FFFFF80
1FFF8380
3FFF8380
3FFF8380
7FFF8380
7FFF8380
7FFF8380
7FFF8380
7FFF8380
FFFF8380
FFFF8380
7FFF8380
7FFF8380
7FFF8380
7FFF8380
7FFF8380
7FFF8380
3FFF8380
3FFF8380
1FFF8380
0FFF8380
07FF8380
00238380
00038380
00038380
00038380
00038380
00038380
00038380
00038380
00038380
00038380
00038380
00038380
00038380
00038380
00038380
00038380
00038380
00038380
00038380
00038380
ENDCHAR
STARTCHAR 00B7
ENCODING 183
SWIDTH 600 0
DWIDTH 30 0
BBX 6 8 12 13
BITMAP
20
78
FC
FC
FC
FC
78
20
ENDCHAR
STARTCHAR 00B8
ENCODING 184
SWIDTH 600 0
DWIDTH 30 0
BBX 10 12 10 -12
BITMAP
0E00
1C00
1C00
3E00
3F80
07C0
03C0
03C0
03C0
FF80
FF00
FC00
ENDCHAR
STARTCHAR 00B9
ENCODING 185
SWIDTH 600 0
DWIDTH 30 0
BBX 16 22 7 21
BITMAP
01C0
07C0
0FC0
3FC0
FFC0
79C0
21C0
01C0
01C0
01C0
01C0
01C0
01C0
01C0
01C0
01C0
01C0
01C0
01C0
3FFF
3FFF
3FFF
ENDCHAR
STARTCHAR 00BA
ENCODING 186
SWIDTH 600 0
DWIDTH 30 0
BBX 14 17 8 19
BITMAP
0FC0
3FF0
7CF8
7038
E03C
E01C
E01C
E01C
E01C
E01C
E01C
E01C
E03C
7038
7CF8
3FF0
0FC0
ENDCHAR
STARTCHAR 00BB
ENCODING 187
SWIDTH 600 0
DWIDTH 30 0
BBX 22 21 4 2
BITMAP
300C00
F83E00
7C1F00
3E0F00
1E0780
0F07C0
0F83E0
07C1F0
03E0F8
01F0F8
01F07C
03E0F8
07C1F0
0783E0
0F83C0
1F07C0
3E0F80
7C1F00
F83E00
301C00
100400
ENDCHAR
STARTCHAR 00BC
ENCODING 188
SWIDTH 600 0
DWIDTH 30 0
BBX 29 35 0 0
BITMAP
0F8003C0
1F8003C0
7F800780
FB800780
77800F00
27800F00
07801E00
07801E00
07803C00
07803800
07807800
07807000
0780F000
0781E000
3FF9E000
3FFBC000
3FFBC000
00078000
000783C0
000F03C0
000F07C0
001E0FC0
001E1FC0
003C1DC0
003C39C0
007871C0
0070F1C0
00F0E1C0
00E1FFF8
01E1FFF8
01C1FFF8
03C001C0
078001C0
078001C0
0F0001C0
ENDCHAR
STARTCHAR 00BD
ENCODING 189
SWIDTH 600 0
DWIDTH 30 0
BBX 29 35 0 0
BITMAP
0F8003C0
1F8003C0
7F800780
FB800780
77800F00
27800F00
07801E00
07801E00
07803C00
07803800
07807800
07807000
0780F000
0780E000
3FF9E000
3FFBC000
3FFBC000
00078F80
0007BFE0
000F7FF0
000F30F0
001E2070
001E0070
003C0070
003C00F0
007801E0
007003C0
00F00780
00E00F00
01E01E00
01C03C00
03C07FF8
07807FF8
07807FF8
0F007FF8
ENDCHAR
STARTCHAR 00BE
ENCODING 190
SWIDTH 600 0
DWIDTH 30 0
BBX 28 36 1 0
BITMAP
1F000000
7FC00780
FFE00700
61E00F00
00F00E00
00F01E00
01E01C00
3FE03C00
3F803800
3FE07800
01F0F000
00F0F000
00F1E000
00F1E000
C0F3C000
FFE3C000
FFC78000
7F078000
000F0000
000F0780
001E0F80
001E0F80
003C1F80
003C3B80
00783B80
00707380
00F0E380
00E1E380
01E1C380
01C3FFF0
03C3FFF0
0783FFF0
07800380
0F000380
0F000380
1E000380
ENDCHAR
STARTCHAR 00BF
ENCODING 191
SWIDTH 600 0
DWIDTH 30 0
BBX 21 37 3 -10
BITMAP
000800
003C00
007E00
007E00
007E00
007E00
003E00
000800
000000
000000
000000
003C00
003C00
003C00
003C00
007C00
00F800
01F800
03F000
0FE000
1F8000
3F0000
3E0000
7C0000
780000
F80000
F80000
F80000
F80000
F80000
780000
7C0030
3F03F8
3FFFF8
0FFFF8
07FFC0
003000
ENDCHAR
STARTCHAR 00C0
ENCODING 192
SWIDTH 600 0
DWIDTH 30 0
BBX 28 47 1 0
BITMAP
01F80000
00FC0000
007C0000
003E0000
001E0000
000F0000
00078000
0003C000
00000000
00000000
00000000
00000000
001F8000
001F8000
001F8000
003FC000
003FC000
003FC000
007FE000
0079E000
0079E000
00F9F000
00F0F000
00F0F000
01F0F800
01E07800
01E07800
03E07C00
03C03C00
03C03C00
07C03E00
07803E00
07FFFE00
0FFFFF00
0FFFFF00
0FFFFF00
1F000F80
1F000F80
1E000780
3E0007C0
3E0007C0
3C0003C0
7C0003E0
7C0003E0
780001E0
F80001F0
F80001F0
ENDCHAR
STARTCHAR 00C1
ENCODING 193
SWIDTH 600 0
DWIDTH 30 0
BBX 28 47 1 0
BITMAP
0000FC00
0000F800
0001F800
0001F000
0003E000
0007C000
00078000
000F0000
00000000
00000000
00000000
00000000
001F8000
001F8000
001F8000
003FC000
003FC000
003FC000
007FE000
0079E000
0079E000
00F9F000
00F0F000
00F0F000
01F0F800
01E07800
01E07800
03E07C00
03C03C00
03C03C00
07C03E00
07803E00
07FFFE00
0FFFFF00
0FFFFF00
0FFFFF00
1F000F80
1F000F80
1E000780
3E0007C0
3E0007C0
3C0003C0
7C0003E0
7C0003E0
780001E0
F80001F0
F80001F0
ENDCHAR
STARTCHAR 00C2
ENCODING 194
SWIDTH 600 0
DWIDTH 30 0
BBX 28 47 1 0
BITMAP
001F0000
001F8000
003FC000
007FE000
00F9F000
01F0F800
03E07C00
03801C00
00000000
00000000
00000000
00000000
001F8000
001F8000
001F8000
003FC000
003FC000
003FC000
007FE000
0079E000
0079E000
00F9F000
00F0F000
00F0F000
01F0F800
01E07800
01E07800
03E07C00
03C03C00
03C03C00
07C03E00
07803E00
07FFFE00
0FFFFF00
0FFFFF00
0FFFFF00
1F000F80
1F000F80
1E000780
3E0007C0
3E0007C0
3C0003C0
7C0003E0
7C0003E0
780001E0
F80001F0
F80001F0
ENDCHAR
STARTCHAR 00C3
ENCODING 195
SWIDTH 600 0
DWIDTH 30 0
BBX 28 46 1 0
BITMAP
00200E00
01FC0E00
03FE0E00
03FFFC00
078FFC00
0703F800
0701F000
00000000
00000000
00000000
00000000
001F8000
001F8000
001F8000
003FC000
003FC000
003FC000
007FE000
0079E000
0079E000
00F9F000
00F0F000
00F0F000
01F0F800
01E07800
01E07800
03E07C00
03C03C00
03C03C00
07C03E00
07803E00
07FFFE00
0FFFFF00
0FFFFF00
0FFFFF00
1F000F80
1F000F80
1E000780
3E0007C0
3E0007C0
3C0003C0
7C0003E0
7C0003E0
780001E0
F80001F0
F80001F0
ENDCHAR
STARTCHAR 00C4
ENCODING 196
SWIDTH 600 0
DWIDTH 30 0
BBX 28 46 1 0
BITMAP
01C03800
03E07C00
03E07C00
03E07C00
03E07C00
01C03800
00000000
00000000
00000000
00000000
00000000
001F8000
001F8000
001F8000
003FC000
003FC000
003FC000
007FE000
0079E000
0079E000
00F9F000
00F0F000
00F0F000
01F0F800
01E07800
01E07800
03E07C00
03C03C00
03C03C00
07C03E00
07803E00
07FFFE00
0FFFFF00
0FFFFF00
0FFFFF00
1F000F80
1F000F80
1E000780
3E0007C0
3E0007C0
3C0003C0
7C0003E0
7C0003E0
780001E0
F80001F0
F80001F0
ENDCHAR
STARTCHAR 00C5
ENCODING 197
SWIDTH 600 0
DWIDTH 30 0
BBX 28 50 1 0
BITMAP
000F0000
003FC000
007FE000
0070E000
0060E000
00E07000
00606000
0070E000
007FE000
003FC000
001F8000
00000000
00000000
00000000
00000000
001F8000
001F8000
001F8000
003FC000
003FC000
003FC000
007FE000
0079E000
0079E000
00F9F000
00F0F000
00F0F000
01F0F800
01E07800
01E07800
03E07C00
03C03C00
03C03C00
07C03E00
07803E00
07FFFE00
0FFFFF00
0FFFFF00
0FFFFF00
1F000F80
1F000F80
1E000780
3E0007C0
3E0007C0
3C0003C0
7C0003E0
7C0003E0
780001E0
F80001F0
F80001F0
ENDCHAR
STARTCHAR 00C6
ENCODING 198
SWIDTH 600 0
DWIDTH 30 0
BBX 26 35 1 0
BITMAP
00FFFFC0
00FFFFC0
01FFFFC0
01FFFFC0
01E78000
01E78000
03C78000
03C78000
03C78000
03C78000
03C78000
07878000
07878000
07878000
07878000
0F87FF80
0F07FF80
0F07FF80
0F07FF80
0F078000
1FFF8000
1FFF8000
1FFF8000
1FFF8000
3E078000
3C078000
3C078000
3C078000
7C078000
7C078000
78078000
7807FFC0
7807FFC0
F807FFC0
F007FFC0
ENDCHAR
STARTCHAR 00C7
ENCODING 199
SWIDTH 600 0
DWIDTH 30 0
BBX 25 48 3 -12
BITMAP
00010000
003FFC00
00FFFF80
03FFFF00
07F81F00
0FC00200
1F800000
1F000000
3E000000
3E000000
7C000000
7C000000
7C000000
78000000
78000000
F8000000
F8000000
F8000000
F8000000
F8000000
F8000000
F8000000
78000000
78000000
7C000000
7C000000
7C000000
3C000000
3E000000
1F000000
1F800000
0FC00200
07F01E00
03FFFE00
01FFFE00
007FFC00
00070000
00070000
000E0000
000F8000
001FC000
0001E000
0000E000
0000E000
0001E000
007FE000
007FC000
007F0000
ENDCHAR
STARTCHAR 00C8
ENCODING 200
SWIDTH 600 0
DWIDTH 30 0
BBX 21 47 5 0
BITMAP
0F8000
0FC000
07C000
03E000
01F000
00F000
007800
003C00
000000
000000
000000
000000
FFFFF8
FFFFF8
FFFFF8
FFFFF8
F00000
F00000
F00000
F00000
F00000
F00000
F00000
F00000
F00000
F00000
F00000
FFFFF0
FFFFF0
FFFFF0
FFFFF0
F00000
F00000
F00000
F00000
F00000
F00000
F00000
F00000
F00000
F00000
F00000
F00000
FFFFF8
FFFFF8
FFFFF8
FFFFF8
ENDCHAR
STARTCHAR 00C9
ENCODING 201
SWIDTH 600 0
DWIDTH 30 0
BBX 21 47 5 0
BITMAP
0007C0
000FC0
000F80
001F00
003E00
003C00
007800
00F000
000000
000000
000000
000000
FFFFF8
FFFFF8
FFFFF8
FFFFF8
F00000
F00000
F00000
F00000
F00000
F00000
F00000
F00000
F00000
F00000
F00000
FFFFF0
FFFFF0
FFFFF0
FFFFF0
F00000
F00000
F00000
F00000
F00000
F00000
F00000
F00000
F00000
F00000
F00000
F00000
FFFFF8
FFFFF8
FFFFF8
FFFFF8
ENDCHAR
STARTCHAR 00CA
ENCODING 202
SWIDTH 600 0
DWIDTH 30 0
BBX 21 47 5 0
BITMAP
00F800
01F800
03FC00
07DE00
078F00
0F0780
1E03C0
3C01E0
000000
000000
000000
000000
FFFFF8
FFFFF8
FFFFF8
FFFFF8
F00000
F00000
F00000
F00000
F00000
F00000
F00000
F00000
F00000
F00000
F00000
FFFFF0
FFFFF0
FFFFF0
FFFFF0
F00000
F00000
F00000
F00000
F00000
F00000
F00000
F00000
F00000
F00000
F00000
F00000
FFFFF8
FFFFF8
FFFFF8
FFFFF8
ENDCHAR
STARTCHAR 00CB
ENCODING 203
SWIDTH 600 0
DWIDTH 30 0
BBX 21 46 5 0
BITMAP
1C03C0
3E03C0
3E07E0
3E07E0
3E03C0
1C03C0
000000
000000
000000
000000
000000
FFFFF8
FFFFF8
FFFFF8
FFFFF8
F00000
F00000
F00000
F00000
F00000
F00000
F00000
F00000
F00000
F00000
F00000
FFFFF0
FFFFF0
FFFFF0
FFFFF0
F00000
F00000
F00000
F00000
F00000
F00000
F00000
F00000
F00000
F00000
F00000
F00000
FFFFF8
FFFFF8
FFFFF8
FFFFF8
ENDCHAR
STARTCHAR 00CC
ENCODING 204
SWIDTH 600 0
DWIDTH 30 0
BBX 20 47 5 0
BITMAP
1F8000
0FC000
07C000
03E000
01E000
00F000
007800
003C00
000000
000000
000000
000000
FFFFF0
FFFFF0
FFFFF0
1FFF80
00F000
00F000
00F000
00F000
00F000
00F000
00F000
00F000
00F000
00F000
00F000
00F000
00F000
00F000
00F000
00F000
00F000
00F000
00F000
00F000
00F000
00F000
00F000
00F000
00F000
00F000
00F000
03FC00
FFFFF0
FFFFF0
FFFFF0
ENDCHAR
STARTCHAR 00CD
ENCODING 205
SWIDTH 600 0
DWIDTH 30 0
BBX 20 47 5 0
BITMAP
000FC0
000F80
001F80
001F00
003E00
007C00
007800
00F000
000000
000000
000000
000000
FFFFF0
FFFFF0
FFFFF0
1FFF80
00F000
00F000
00F000
00F000
00F000
00F000
00F000
00F000
00F000
00F000
00F000
00F000
00F000
00F000
00F000
00F000
00F000
00F000
00F000
00F000
00F000
00F000
00F000
00F000
00F000
00F000
00F000
03FC00
FFFFF0
FFFFF0
FFFFF0
ENDCHAR
STARTCHAR 00CE
ENCODING 206
SWIDTH 600 0
DWIDTH 30 0
BBX 20 47 5 0
BITMAP
01F000
01F800
03FC00
07FE00
0F9F00
1F0F80
3E07C0
3801C0
000000
000000
000000
000000
FFFFF0
FFFFF0
FFFFF0
1FFF80
00F000
00F000
00F000
00F000
00F000
00F000
00F000
00F000
00F000
00F000
00F000
00F000
00F000
00F000
00F000
00F000
00F000
00F000
00F000
00F000
00F000
00F000
00F000
00F000
00F000
00F000
00F000
03FC00
FFFFF0
FFFFF0
FFFFF0
ENDCHAR
STARTCHAR 00CF
ENCODING 207
SWIDTH 600 0
DWIDTH 30 0
BBX 20 46 5 0
BITMAP
1C0380
3E07C0
3E07C0
3E07C0
3E07C0
1C0380
000000
000000
000000
000000
000000
FFFFF0
FFFFF0
FFFFF0
1FFF80
00F000
00F000
00F000
00F000
00F000
00F000
00F000
00F000
00F000
00F000
00F000
00F000
00F000
00F000
00F000
00F000
00F000
00F000
00F000
00F000
00F000
00F000
00F000
00F000
00F000
00F000
00F000
03FC00
FFFFF0
FFFFF0
FFFFF0
ENDCHAR
STARTCHAR 00D0
ENCODING 208
SWIDTH 600 0
DWIDTH 30 0
BBX 28 35 0 0
BITMAP
0FFF8000
0FFFF000
0FFFFC00
0FFFFE00
0F807F00
0F801F80
0F800FC0
0F8007C0
0F8003E0
0F8003E0
0F8001E0
0F8001F0
0F8001F0
0F8001F0
0F8001F0
0F8000F0
FFFE00F0
FFFE00F0
FFFE00F0
FFFE00F0
0F8001F0
0F8001F0
0F8001F0
0F8001F0
0F8003E0
0F8003E0
0F8003E0
0F8007C0
0F800F80
0F801F80
0F807F00
0FFFFE00
0FFFF800
0FFFF000
0FFF0000
ENDCHAR
STARTCHAR 00D1
ENCODING 209
SWIDTH 600 0
DWIDTH 30 0
BBX 24 46 3 0
BITMAP
00C018
03F038
07FC38
0FFFF8
0E3FF0
1C0FE0
1C03C0
000000
000000
000000
000000
FE001F
FE001F
FF001F
FF001F
FF001F
F7801F
F7801F
F3C01F
FBC01F
F9E01F
F9E01F
F9F01F
F8F01F
F8F01F
F8781F
F8781F
F83C1F
F83C1F
F81E1F
F81E1F
F80F1F
F80F1F
F80F1F
F8079F
F8079F
F803DF
F803DF
F801FF
F801EF
F800FF
F800FF
F800FF
F8007F
F8007F
F8003F
ENDCHAR
STARTCHAR 00D2
ENCODING 210
SWIDTH 600 0
DWIDTH 30 0
BBX 26 48 2 -1
BITMAP
03F00000
01F80000
00F80000
007C0000
003C0000
001E0000
000F0000
00078000
00000000
00000000
00000000
00080000
00FFC000
03FFF000
07FFF800
0FE0FC00
1F807E00
1F003E00
3E001F00
3C000F00
7C000F80
7C000F80
78000F80
78000780
78000780
F80007C0
F80007C0
F80007C0
F80007C0
F80007C0
F80007C0
F80007C0
F80007C0
F80007C0
78000780
78000780
78000F80
7C000F80
7C000F80
3C000F00
3E001F00
1F003E00
1F807E00
0FE0FC00
07FFF800
03FFF000
00FFC000
000C0000
ENDCHAR
STARTCHAR 00D3
ENCODING 211
SWIDTH 600 0
DWIDTH 30 0
BBX 26 48 2 -1
BITMAP
0001F800
0001F000
0003F000
0003E000
0007C000
000F8000
000F0000
001E0000
00000000
00000000
00000000
00080000
00FFC000
03FFF000
07FFF800
0FE0FC00
1F807E00
1F003E00
3E001F00
3C000F00
7C000F80
7C000F80
78000F80
78000780
78000780
F80007C0
F80007C0
F80007C0
F80007C0
F80007C0
F80007C0
F80007C0
F80007C0
F80007C0
78000780
78000780
78000F80
7C000F80
7C000F80
3C000F00
3E001F00
1F003E00
1F807E00
0FE0FC00
07FFF800
03FFF000
00FFC000
000C0000
ENDCHAR
STARTCHAR 00D4
ENCODING 212
SWIDTH 600 0
DWIDTH 30 0
BBX 26 48 2 -1
BITMAP
003E0000
003F0000
007F8000
00FFC000
01F3E000
03E1F000
07C0F800
07003800
00000000
00000000
00000000
00080000
00FFC000
03FFF000
07FFF800
0FE0FC00
1F807E00
1F003E00
3E001F00
3C000F00
7C000F80
7C000F80
78000F80
78000780
78000780
F80007C0
F80007C0
F80007C0
F80007C0
F80007C0
F80007C0
F80007C0
F80007C0
F80007C0
78000780
78000780
78000F80
7C000F80
7C000F80
3C000F00
3E001F00
1F003E00
1F807E00
0FE0FC00
07FFF800
03FFF000
00FFC000
000C0000
ENDCHAR
STARTCHAR 00D5
ENCODING 213
SWIDTH 600 0
DWIDTH 30 0
BBX 26 47 2 -1
BITMAP
00401C00
03F81C00
07FC1C00
07FFF800
0F1FF800
0E07F000
0E03E000
00000000
00000000
00000000
00080000
00FFC000
03FFF000
07FFF800
0FE0FC00
1F807E00
1F003E00
3E001F00
3C000F00
7C000F80
7C000F80
78000F80
78000780
78000780
F80007C0
F80007C0
F80007C0
F80007C0
F80007C0
F80007C0
F80007C0
F80007C0
F80007C0
78000780
78000780
78000F80
7C000F80
7C000F80
3C000F00
3E001F00
1F003E00
1F807E00
0FE0FC00
07FFF800
03FFF000
00FFC000
000C0000
ENDCHAR
STARTCHAR 00D6
ENCODING 214
SWIDTH 600 0
DWIDTH 30 0
BBX 26 47 2 -1
BITMAP
03807000
07C0F800
07C0F800
07C0F800
07C0F800
03807000
00000000
00000000
00000000
00000000
00080000
00FFC000
03FFF000
07FFF800
0FE0FC00
1F807E00
1F003E00
3E001F00
3C000F00
7C000F80
7C000F80
78000F80
78000780
78000780
F80007C0
F80007C0
F80007C0
F80007C0
F80007C0
F80007C0
F80007C0
F80007C0
F80007C0
78000780
78000780
78000F80
7C000F80
7C000F80
3C000F00
3E001F00
1F003E00
1F807E00
0FE0FC00
07FFF800
03FFF000
00FFC000
000C0000
ENDCHAR
STARTCHAR 00D7
ENCODING 215
SWIDTH 600 0
DWIDTH 30 0
BBX 22 21 4 7
BITMAP
300030
780078
FC00FC
3E01F0
1F03E0
0F87C0
07CF80
03FF00
01FE00
00FC00
00FC00
01FE00
03FF00
07CF80
0F87C0
1F03E0
3E01F0
7C00F8
F8007C
700038
200010
ENDCHAR
STARTCHAR 00D8
ENCODING 216
SWIDTH 600 0
DWIDTH 30 0
BBX 26 39 2 -2
BITMAP
00000200
00080300
00FFC7C0
03FFFF80
07FFFF00
0FE1FF00
1F807E00
1F003E00
3E003F00
3C007F00
7C00FF80
7C00FF80
7801E780
7801E780
7803C780
F807C7C0
F80787C0
F80F87C0
F80F07C0
F81E07C0
F81E07C0
F83C07C0
F87C07C0
F87807C0
78F80780
78F00780
79E00F80
7DE00F80
7FC00F80
3FC00F00
3F801F00
1F803E00
1F807E00
1FE0FC00
3FFFF800
3FFFF000
7CFFC000
780C0000
10000000
ENDCHAR
STARTCHAR 00D9
ENCODING 217
SWIDTH 600 0
DWIDTH 30 0
BBX 24 48 3 -1
BITMAP
07E000
03F000
01F000
00F800
007800
003C00
001E00
000F00
000000
000000
000000
000000
F8001F
F8001F
F8001F
F8001F
F8001F
F8001F
F8001F
F8001F
F8001F
F8001F
F8001F
F8001F
F8001F
F8001F
F8001F
F8001F
F8001F
F8001F
F8001F
F8001F
F8001F
F8001F
F8001F
78001E
78001E
78001E
78001E
7C003E
7C003E
3E007C
3F007C
1F81F8
0FFFF0
07FFE0
03FFC0
001800
ENDCHAR
STARTCHAR 00DA
ENCODING 218
SWIDTH 600 0
DWIDTH 30 0
BBX 24 48 3 -1
BITMAP
0003F0
0003E0
0007E0
0007C0
000F80
001F00
001E00
003C00
000000
000000
000000
000000
F8001F
F8001F
F8001F
F8001F
F8001F
F8001F
F8001F
F8001F
F8001F
F8001F
F8001F
F8001F
F8001F
F8001F
F8001F
F8001F
F8001F
F8001F
F8001F
F8001F
F8001F
F8001F
F8001F
78001E
78001E
78001E
78001E
7C003E
7C003E
3E007C
3F007C
1F81F8
0FFFF0
07FFE0
03FFC0
001800
ENDCHAR
STARTCHAR 00DB
ENCODING 219
SWIDTH 600 0
DWIDTH 30 0
BBX 24 48 3 -1
BITMAP
007C00
007E00
00FF00
01FF80
03E7C0
07C3E0
0F81F0
0E0070
000000
000000
000000
000000
F8001F
F8001F
F8001F
F8001F
F8001F
F8001F
F8001F
F8001F
F8001F
F8001F
F8001F
F8001F
F8001F
F8001F
F8001F
F8001F
F8001F
F8001F
F8001F
F8001F
F8001F
F8001F
F8001F
78001E
78001E
78001E
78001E
7C003E
7C003E
3E007C
3F007C
1F81F8
0FFFF0
07FFE0
03FFC0
001800
ENDCHAR
STARTCHAR 00DC
ENCODING 220
SWIDTH 600 0
DWIDTH 30 0
BBX 24 47 3 -1
BITMAP
0700E0
0F81F0
0F81F0
0F81F0
0F81F0
0700E0
000000
000000
000000
000000
000000
F8001F
F8001F
F8001F
F8001F
F8001F
F8001F
F8001F
F8001F
F8001F
F8001F
F8001F
F8001F
F8001F
F8001F
F8001F
F8001F
F8001F
F8001F
F8001F
F8001F
F8001F
F8001F
F8001F
78001E
78001E
78001E
78001E
7C003E
7C003E
3E007C
3F007C
1F81F8
0FFFF0
07FFE0
03FFC0
001800
ENDCHAR
STARTCHAR 00DD
ENCODING 221
SWIDTH 600 0
DWIDTH 30 0
BBX 26 47 2 0
BITMAP
0001F800
0001F000
0003F000
0003E000
0007C000
000F8000
000F0000
001E0000
00000000
00000000
00000000
00000000
F80007C0
78000780
7C000F80
3C000F00
3E001F00
1E001E00
1F003E00
0F003C00
0F807C00
07807800
07C0F800
03C0F000
03E0F000
01E1E000
01F1E000
00F3C000
00F3C000
007F8000
007F8000
003F0000
003F0000
001E0000
001E0000
001E0000
001E0000
001E0000
001E0000
001E0000
001E0000
001E0000
001E0000
001E0000
001E0000
001E0000
001E0000
ENDCHAR
STARTCHAR 00DE
ENCODING 222
SWIDTH 600 0
DWIDTH 30 0
BBX 22 35 5 0
BITMAP
F00000
F00000
F00000
F00000
F00000
F00000
FFF800
FFFF80
FFFFE0
FFFFF0
F007F8
F001F8
F000FC
F0007C
F0007C
F0003C
F0003C
F0003C
F0003C
F0007C
F0007C
F000F8
F001F8
F007F0
FFFFE0
FFFFC0
FFFF00
FFE000
F00000
F00000
F00000
F00000
F00000
F00000
F00000
ENDCHAR
STARTCHAR 00DF
ENCODING 223
SWIDTH 600 0
DWIDTH 30 0
BBX 25 39 4 -1
BITMAP
03FE0000
0FFFC000
3FFFE000
7FFFF000
7E01F800
F800F800
F8007C00
F0007C00
F0007800
F000F800
F000F800
F001F000
F007E000
F00FC000
F01F8000
F01F0000
F03E0000
F03E0000
F03E0000
F03E0000
F01F8000
F00FC000
F007F000
F003F800
F001FC00
F0007E00
F0003F00
F0001F00
F0000F80
F0000F80
F0000F80
F0000F80
F0000F80
F0C01F00
F0F03F00
F0FFFE00
F0FFFC00
F03FF800
00030000
ENDCHAR
STARTCHAR 00E0
ENCODING 224
SWIDTH 600 0
DWIDTH 30 0
BBX 23 39 3 -1
BITMAP
03E000
03F000
01F000
00F800
007C00
003C00
001E00
000F00
000000
000000
001000
03FFC0
3FFFE0
1FFFF0
1F83F8
0C007C
00007C
00003C
00003C
00003C
00003E
00003E
00FFFE
07FFFE
1FFFFE
3FFFFE
7F003E
7C003E
78003E
78003E
F8003E
78007E
78007E
7C01FE
7F07FE
3FFF9E
1FFF1E
0FFC1E
00C000
ENDCHAR
STARTCHAR 00E1
ENCODING 225
SWIDTH 600 0
DWIDTH 30 0
BBX 23 39 3 -1
BITMAP
0001F0
0003F0
0003E0
0007C0
000F80
000F00
001E00
003C00
000000
000000
001000
03FFC0
3FFFE0
1FFFF0
1F83F8
0C007C
00007C
00003C
00003C
00003C
00003E
00003E
00FFFE
07FFFE
1FFFFE
3FFFFE
7F003E
7C003E
78003E
78003E
F8003E
78007E
78007E
7C01FE
7F07FE
3FFF9E
1FFF1E
0FFC1E
00C000
ENDCHAR
STARTCHAR 00E2
ENCODING 226
SWIDTH 600 0
DWIDTH 30 0
BBX 23 39 3 -1
BITMAP
003E00
007E00
00FF00
01FF80
03E7C0
03C3E0
0780F0
0F0078
000000
000000
001000
03FFC0
3FFFE0
1FFFF0
1F83F8
0C007C
00007C
00003C
00003C
00003C
00003E
00003E
00FFFE
07FFFE
1FFFFE
3FFFFE
7F003E
7C003E
78003E
78003E
F8003E
78007E
78007E
7C01FE
7F07FE
3FFF9E
1FFF1E
0FFC1E
00C000
ENDCHAR
STARTCHAR 00E3
ENCODING 227
SWIDTH 600 0
DWIDTH 30 0
BBX 23 38 3 -1
BITMAP
00C018
03F038
07FC38
0FFFF8
0E3FF0
1C0FE0
1C03C0
000000
000000
001000
03FFC0
3FFFE0
1FFFF0
1F83F8
0C007C
00007C
00003C
00003C
00003C
00003E
00003E
00FFFE
07FFFE
1FFFFE
3FFFFE
7F003E
7C003E
78003E
78003E
F8003E
78007E
78007E
7C01FE
7F07FE
3FFF9E
1FFF1E
0FFC1E
00C000
ENDCHAR
STARTCHAR 00E4
ENCODING 228
SWIDTH 600 0
DWIDTH 30 0
BBX 23 38 3 -1
BITMAP
0700F0
0F81F0
0F81F8
0F81F8
0F80F0
0700F0
000000
000000
000000
001000
03FFC0
3FFFE0
1FFFF0
1F83F8
0C007C
00007C
00003C
00003C
00003C
00003E
00003E
00FFFE
07FFFE
1FFFFE
3FFFFE
7F003E
7C003E
78003E
78003E
F8003E
78007E
78007E
7C01FE
7F07FE
3FFF9E
1FFF1E
0FFC1E
00C000
ENDCHAR
STARTCHAR 00E5
ENCODING 229
SWIDTH 600 0
DWIDTH 30 0
BBX 23 42 3 -1
BITMAP
003C00
00FF00
01FF80
01E380
01C1C0
01C1C0
01C1C0
01C380
01FF80
00FF00
003E00
000000
000000
001000
03FFC0
3FFFE0
1FFFF0
1F83F8
0C007C
00007C
00003C
00003C
00003C
00003E
00003E
00FFFE
07FFFE
1FFFFE
3FFFFE
7F003E
7C003E
78003E
78003E
F8003E
78007E
78007E
7C01FE
7F07FE
3FFF9E
1FFF1E
0FFC1E
00C000
ENDCHAR
STARTCHAR 00E6
ENCODING 230
SWIDTH 600 0
DWIDTH 30 0
BBX 28 29 1 -1
BITMAP
00800800
0FF07F00
3FF8FF80
3FFDFFC0
1C3FE3C0
101FC1E0
001F81E0
000F81E0
000F00F0
000F00F0
000F00F0
000F00F0
07FFFFF0
1FFFFFF0
3FFFFFF0
7FFFFFF0
7C0F0000
F80F0000
F00F0000
F00F0000
F00F0000
F01F8000
F01F8000
F83FC020
7C7BF0E0
7FF9FFE0
3FF0FFE0
1FC07FC0
02000400
ENDCHAR
STARTCHAR 00E7
ENCODING 231
SWIDTH 600 0
DWIDTH 30 0
BBX 21 40 4 -12
BITMAP
000400
00FFF0
07FFF8
0FFFF8
1FE0F0
3F0010
3E0000
7C0000
7C0000
780000
780000
F80000
F80000
F80000
F80000
F80000
F80000
F80000
F80000
780000
7C0000
7C0000
3E0000
3F0008
1FE078
0FFFF8
07FFF8
01FFF0
001C00
001C00
003800
003E00
007F00
000780
000380
000380
000780
01FF80
01FF00
01FC00
ENDCHAR
STARTCHAR 00E8
ENCODING 232
SWIDTH 600 0
DWIDTH 30 0
BBX 24 39 3 -1
BITMAP
03E000
03F000
01F000
00F800
007C00
003C00
001E00
000F00
000000
000000
000800
01FFC0
03FFE0
0FFFF8
1FC1F8
3F007C
3E003E
7C003E
7C001E
78001F
F8001F
F8001F
FFFFFF
FFFFFF
FFFFFF
FFFFFF
F80000
F80000
F80000
780000
7C0000
7C0000
3E0000
3F0006
1FE07E
0FFFFE
03FFFE
00FFF8
000600
ENDCHAR
STARTCHAR 00E9
ENCODING 233
SWIDTH 600 0
DWIDTH 30 0
BBX 24 39 3 -1
BITMAP
0001F0
0003F0
0007E0
0007C0
000F80
000F00
001E00
003C00
000000
000000
000800
01FFC0
03FFE0
0FFFF8
1FC1F8
3F007C
3E003E
7C003E
7C001E
78001F
F8001F
F8001F
FFFFFF
FFFFFF
FFFFFF
FFFFFF
F80000
F80000
F80000
780000
7C0000
7C0000
3E0000
3F0006
1FE07E
0FFFFE
03FFFE
00FFF8
000600
ENDCHAR
STARTCHAR 00EA
ENCODING 234
SWIDTH 600 0
DWIDTH 30 0
BBX 24 39 3 -1
BITMAP
003E00
007E00
00FF00
01FF80
03E7C0
03C3E0
0780F0
0E0078
000000
000000
000800
01FFC0
03FFE0
0FFFF8
1FC1F8
3F007C
3E003E
7C003E
7C001E
78001F
F8001F
F8001F
FFFFFF
FFFFFF
FFFFFF
FFFFFF
F80000
F80000
F80000
780000
7C0000
7C0000
3E0000
3F0006
1FE07E
0FFFFE
03FFFE
00FFF8
000600
ENDCHAR
STARTCHAR 00EB
ENCODING 235
SWIDTH 600 0
DWIDTH 30 0
BBX 24 38 3 -1
BITMAP
0700F0
0F81F0
0F81F8
0F81F8
0F81F0
0700F0
000000
000000
000000
000800
01FFC0
03FFE0
0FFFF8
1FC1F8
3F007C
3E003E
7C003E
7C001E
78001F
F8001F
F8001F
FFFFFF
FFFFFF
FFFFFF
FFFFFF
F80000
F80000
F80000
780000
7C0000
7C0000
3E0000
3F0006
1FE07E
0FFFFE
03FFFE
00FFF8
000600
ENDCHAR
STARTCHAR 00EC
ENCODING 236
SWIDTH 600 0
DWIDTH 30 0
BBX 23 38 4 0
BITMAP
0FC000
07E000
03E000
01F000
00F000
007800
003C00
001E00
000000
000000
000000
7FFC00
7FFC00
7FFC00
07FC00
003C00
003C00
003C00
003C00
003C00
003C00
003C00
003C00
003C00
003C00
003C00
003C00
003C00
003C00
003C00
003C00
003C00
003C00
003C00
03FFC0
FFFFFE
FFFFFE
FFFFFE
ENDCHAR
STARTCHAR 00ED
ENCODING 237
SWIDTH 600 0
DWIDTH 30 0
BBX 23 38 4 0
BITMAP
0007E0
0007C0
000FC0
000F80
001F00
003E00
003C00
007800
000000
000000
000000
7FFC00
7FFC00
7FFC00
07FC00
003C00
003C00
003C00
003C00
003C00
003C00
003C00
003C00
003C00
003C00
003C00
003C00
003C00
003C00
003C00
003C00
003C00
003C00
003C00
03FFC0
FFFFFE
FFFFFE
FFFFFE
ENDCHAR
STARTCHAR 00EE
ENCODING 238
SWIDTH 600 0
DWIDTH 30 0
BBX 23 38 4 0
BITMAP
00F800
00FC00
01FE00
03FF00
07CF80
0F87C0
1F03E0
1C00E0
000000
000000
000000
7FFC00
7FFC00
7FFC00
07FC00
003C00
003C00
003C00
003C00
003C00
003C00
003C00
003C00
003C00
003C00
003C00
003C00
003C00
003C00
003C00
003C00
003C00
003C00
003C00
03FFC0
FFFFFE
FFFFFE
FFFFFE
ENDCHAR
STARTCHAR 00EF
ENCODING 239
SWIDTH 600 0
DWIDTH 30 0
BBX 23 37 4 0
BITMAP
0E01C0
1F03E0
1F03E0
1F03E0
1F03E0
0E01C0
000000
000000
000000
000000
7FFC00
7FFC00
7FFC00
07FC00
003C00
003C00
003C00
003C00
003C00
003C00
003C00
003C00
003C00
003C00
003C00
003C00
003C00
003C00
003C00
003C00
003C00
003C00
003C00
03FFC0
FFFFFE
FFFFFE
FFFFFE
ENDCHAR
STARTCHAR 00F0
ENCODING 240
SWIDTH 600 0
DWIDTH 30 0
BBX 24 39 3 -1
BITMAP
018010
01E038
03F0FC
01FFF8
007FE0
003F80
007F80
01FFC0
07F3E0
07C1E0
0300F0
0000F8
000078
00003C
003C3C
03FF9E
0FFFDE
1FFFFE
3F81FF
7E007F
7C003F
F8001F
F8001F
F8000F
F0000F
F0000F
F0000F
F0000F
F0000F
F8001F
F8001E
78001E
7C003E
3E007C
3F81F8
1FFFF0
07FFE0
01FF80
001800
ENDCHAR
STARTCHAR 00F1
ENCODING 241
SWIDTH 600 0
DWIDTH 30 0
BBX 22 37 4 0
BITMAP
018038
07E030
0FF870
1FFFF0
1C3FE0
1C1FE0
180780
000000
000000
000400
F0FFC0
F3FFE0
F7FFF0
F783F8
FE00FC
FC007C
FC007C
F8003C
F8003C
F8003C
F8003C
F8003C
F8003C
F8003C
F8003C
F8003C
F8003C
F8003C
F8003C
F8003C
F8003C
F8003C
F8003C
F8003C
F8003C
F8003C
F8003C
ENDCHAR
STARTCHAR 00F2
ENCODING 242
SWIDTH 600 0
DWIDTH 30 0
BBX 24 39 3 -1
BITMAP
07E000
03F000
01F000
00F800
007800
003C00
001E00
000F00
000000
000000
001000
01FF80
07FFE0
0FFFF0
1F83F8
3E00FC
7C007E
7C003E
78001E
F8001F
F8001F
F0001F
F0000F
F0000F
F0000F
F0000F
F0000F
F0001F
F8001F
F8001F
78001E
7C003E
7C007E
3F00FC
1F81F8
0FFFF0
07FFE0
01FF80
001800
ENDCHAR
STARTCHAR 00F3
ENCODING 243
SWIDTH 600 0
DWIDTH 30 0
BBX 24 39 3 -1
BITMAP
0003F0
0003E0
0007E0
0007C0
000F80
001F00
001E00
003C00
000000
000000
001000
01FF80
07FFE0
0FFFF0
1F83F8
3E00FC
7C007E
7C003E
78001E
F8001F
F8001F
F0001F
F0000F
F0000F
F0000F
F0000F
F0000F
F0001F
F8001F
F8001F
78001E
7C003E
7C007E
3F00FC
1F81F8
0FFFF0
07FFE0
01FF80
001800
ENDCHAR
STARTCHAR 00F4
ENCODING 244
SWIDTH 600 0
DWIDTH 30 0
BBX 24 39 3 -1
BITMAP
007C00
007E00
00FF00
01FF80
03E7C0
07C3E0
0F81F0
0E0070
000000
000000
001000
01FF80
07FFE0
0FFFF0
1F83F8
3E00FC
7C007E
7C003E
78001E
F8001F
F8001F
F0001F
F0000F
F0000F
F0000F
F0000F
F0000F
F0001F
F8001F
F8001F
78001E
7C003E
7C007E
3F00FC
1F81F8
0FFFF0
07FFE0
01FF80
001800
ENDCHAR
STARTCHAR 00F5
ENCODING 245
SWIDTH 600 0
DWIDTH 30 0
BBX 24 38 3 -1
BITMAP
008038
07F038
0FF838
0FFFF0
1E3FF0
1C0FE0
1C07C0
000000
000000
001000
01FF80
07FFE0
0FFFF0
1F83F8
3E00FC
7C007E
7C003E
78001E
F8001F
F8001F
F0001F
F0000F
F0000F
F0000F
F0000F
F0000F
F0001F
F8001F
F8001F
78001E
7C003E
7C007E
3F00FC
1F81F8
0FFFF0
07FFE0
01FF80
001800
ENDCHAR
STARTCHAR 00F6
ENCODING 246
SWIDTH 600 0
DWIDTH 30 0
BBX 24 38 3 -1
BITMAP
0700E0
0F81F0
0F81F0
0F81F0
0F81F0
0700E0
000000
000000
000000
001000
01FF80
07FFE0
0FFFF0
1F83F8
3E00FC
7C007E
7C003E
78001E
F8001F
F8001F
F0001F
F0000F
F0000F
F0000F
F0000F
F0000F
F0001F
F8001F
F8001F
78001E
7C003E
7C007E
3F00FC
1F81F8
0FFFF0
07FFE0
01FF80
001800
ENDCHAR
STARTCHAR 00F7
ENCODING 247
SWIDTH 600 0
DWIDTH 30 0
BBX 22 23 4 6
BITMAP
007800
00F800
00FC00
00FC00
00F800
007800
000000
000000
000000
000000
FFFFFC
FFFFFC
FFFFFC
FFFFFC
000000
000000
000000
007800
00F800
00FC00
00FC00
00F800
007800
ENDCHAR
STARTCHAR 00F8
ENCODING 248
SWIDTH 600 0
DWIDTH 30 0
BBX 24 30 3 -2
BITMAP
00100C
01FF9F
07FFFE
0FFFFC
1F83FC
3E00FC
7C00FC
7C01FE
7803FE
F803DF
F8079F
F00F9F
F00F0F
F01E0F
F03C0F
F07C0F
F0780F
F0F01F
F9F01F
F9E01F
7BC01E
7F803E
7F807E
3F00FC
1FC1F8
3FFFF0
3FFFE0
79FF80
301800
100000
ENDCHAR
STARTCHAR 00F9
ENCODING 249
SWIDTH 600 0
DWIDTH 30 0
BBX 22 39 4 -1
BITMAP
0FC000
07E000
03E000
01F000
00F000
007800
003C00
001E00
000000
000000
000000
F0007C
F0007C
F0007C
F0007C
F0007C
F0007C
F0007C
F0007C
F0007C
F0007C
F0007C
F0007C
F0007C
F0007C
F0007C
F0007C
F0007C
F0007C
F0007C
F0007C
F800FC
F800FC
FC01FC
7F07BC
7FFFBC
3FFF3C
0FFC3C
00C000
ENDCHAR
STARTCHAR 00FA
ENCODING 250
SWIDTH 600 0
DWIDTH 30 0
BBX 22 39 4 -1
BITMAP
0007E0
0007C0
000FC0
000F80
001F00
003E00
003C00
007800
000000
000000
000000
F0007C
F0007C
F0007C
F0007C
F0007C
F0007C
F0007C
F0007C
F0007C
F0007C
F0007C
F0007C
F0007C
F0007C
F0007C
F0007C
F0007C
F0007C
F0007C
F0007C
F800FC
F800FC
FC01FC
7F07BC
7FFFBC
3FFF3C
0FFC3C
00C000
ENDCHAR
STARTCHAR 00FB
ENCODING 251
SWIDTH 600 0
DWIDTH 30 0
BBX 22 39 4 -1
BITMAP
00F800
00FC00
01FE00
03FF00
07CF80
0F87C0
1F03E0
1C00E0
000000
000000
000000
F0007C
F0007C
F0007C
F0007C
F0007C
F0007C
F0007C
F0007C
F0007C
F0007C
F0007C
F0007C
F0007C
F0007C
F0007C
F0007C
F0007C
F0007C
F0007C
F0007C
F800FC
F800FC
FC01FC
7F07BC
7FFFBC
3FFF3C
0FFC3C
00C000
ENDCHAR
STARTCHAR 00FC
ENCODING 252
SWIDTH 600 0
DWIDTH 30 0
BBX 22 38 4 -1
BITMAP
0E01C0
1F03E0
1F03E0
1F03E0
1F03E0
0E01C0
000000
000000
000000
000000
F0007C
F0007C
F0007C
F0007C
F0007C
F0007C
F0007C
F0007C
F0007C
F0007C
F0007C
F0007C
F0007C
F0007C
F0007C
F0007C
F0007C
F0007C
F0007C
F0007C
F800FC
F800FC
FC01FC
7F07BC
7FFFBC
3FFF3C
0FFC3C
00C000
ENDCHAR
STARTCHAR 00FD
ENCODING 253
SWIDTH 600 0
DWIDTH 30 0
BBX 26 50 2 -12
BITMAP
0001F800
0001F000
0003F000
0003E000
0007C000
000F8000
000F0000
001E0000
00000000
00000000
00000000
F80007C0
78000780
7C000F80
3C000F00
3C000F00
1E001F00
1E001E00
1F001E00
0F003E00
0F803C00
07803C00
07807800
07C07800
03C07800
03E0F000
01E0F000
01E0F000
00F1E000
00F1E000
00F1C000
007BC000
007BC000
003B8000
003F8000
003F8000
001F0000
001F0000
001E0000
001E0000
003E0000
003C0000
003C0000
007C0000
00F80000
01F80000
7FF00000
7FE00000
7FC00000
7F000000
ENDCHAR
STARTCHAR 00FE
ENCODING 254
SWIDTH 600 0
DWIDTH 30 0
BBX 23 50 4 -12
BITMAP
F00000
F00000
F00000
F00000
F00000
F00000
F00000
F00000
F00000
F00000
F00800
F0FF80
F3FFE0
F7FFF0
F783F8
FE00F8
FC007C
FC007C
F8003E
F8003E
F8003E
F8003E
F0001E
F0001E
F0001E
F0001E
F8001E
F8003E
F8003E
F8003E
F8003E
FC007C
FC007C
FE00F8
FF83F8
F7FFF0
F3FFE0
F0FF80
F00800
F00000
F00000
F00000
F00000
F00000
F00000
F00000
F00000
F00000
F00000
F00000
ENDCHAR
STARTCHAR 00FF
ENCODING 255
SWIDTH 600 0
DWIDTH 30 0
BBX 26 49 2 -12
BITMAP
03807000
07C0F800
07C0F800
07C0F800
07C0F800
03807000
00000000
00000000
00000000
00000000
F80007C0
78000780
7C000F80
3C000F00
3C000F00
1E001F00
1E001E00
1F001E00
0F003E00
0F803C00
07803C00
07807800
07C07800
03C07800
03E0F000
01E0F000
01E0F000
00F1E000
00F1E000
00F1C000
007BC000
007BC000
003B8000
003F8000
003F8000
001F0000
001F0000
001E0000
001E0000
003E0000
003C0000
003C0000
007C0000
00F80000
01F80000
7FF00000
7FE00000
7FC00000
7F000000
ENDCHAR
STARTCHAR 0100
ENCODING 256
SWIDTH 600 0
DWIDTH 30 0
BBX 28 44 1 0
BITMAP
01FFF800
01FFF800
01FFF800
01FFF800
00000000
00000000
00000000
00000000
00000000
001F8000
001F8000
001F8000
003FC000
003FC000
003FC000
007FE000
0079E000
0079E000
00F9F000
00F0F000
00F0F000
01F0F800
01E07800
01E07800
03E07C00
03C03C00
03C03C00
07C03E00
07803E00
07FFFE00
0FFFFF00
0FFFFF00
0FFFFF00
1F000F80
1F000F80
1E000780
3E0007C0
3E0007C0
3C0003C0
7C0003E0
7C0003E0
780001E0
F80001F0
F80001F0
ENDCHAR
STARTCHAR 0101
ENCODING 257
SWIDTH 600 0
DWIDTH 30 0
BBX 23 36 3 -1
BITMAP
07FFF0
07FFF0
07FFF0
07FFF0
000000
000000
000000
001000
03FFC0
3FFFE0
1FFFF0
1F83F8
0C007C
00007C
00003C
00003C
00003C
00003E
00003E
00FFFE
07FFFE
1FFFFE
3FFFFE
7F003E
7C003E
78003E
78003E
F8003E
78007E
78007E
7C01FE
7F07FE
3FFF9E
1FFF1E
0FFC1E
00C000
ENDCHAR
STARTCHAR 0102
ENCODING 258
SWIDTH 600 0
DWIDTH 30 0
BBX 28 46 1 0
BITMAP
03801C00
03C03C00
01C03800
01FFF800
00FFF000
007FE000
003F8000
00000000
00000000
00000000
00000000
001F8000
001F8000
001F8000
003FC000
003FC000
003FC000
007FE000
0079E000
0079E000
00F9F000
00F0F000
00F0F000
01F0F800
01E07800
01E07800
03E07C00
03C03C00
03C03C00
07C03E00
07803E00
07FFFE00
0FFFFF00
0FFFFF00
0FFFFF00
1F000F80
1F000F80
1E000780
3E0007C0
3E0007C0
3C0003C0
7C0003E0
7C0003E0
780001E0
F80001F0
F80001F0
ENDCHAR
STARTCHAR 0103
ENCODING 259
SWIDTH 600 0
DWIDTH 30 0
BBX 23 38 3 -1
BITMAP
0E0070
070070
0780F0
07FFE0
03FFE0
01FF80
007F00
000000
000000
001000
03FFC0
3FFFE0
1FFFF0
1F83F8
0C007C
00007C
00003C
00003C
00003C
00003E
00003E
00FFFE
07FFFE
1FFFFE
3FFFFE
7F003E
7C003E
78003E
78003E
F8003E
78007E
78007E
7C01FE
7F07FE
3FFF9E
1FFF1E
0FFC1E
00C000
ENDCHAR
STARTCHAR 0104
ENCODING 260
SWIDTH 600 0
DWIDTH 30 0
BBX 29 46 1 -11
BITMAP
001F8000
001F8000
001F8000
003FC000
003FC000
003FC000
007FE000
0079E000
0079E000
00F9F000
00F0F000
00F0F000
01F0F800
01E07800
01E07800
03E07C00
03C03C00
03C03C00
07C03E00
07803E00
07FFFE00
0FFFFF00
0FFFFF00
0FFFFF00
1F000F80
1F000F80
1E000780
3E0007C0
3E0007C0
3C0003C0
7C0003E0
7C0003E0
780001E0
F80001F0
F80001F0
000000F0
000001E0
000003C0
00000380
00000780
00000780
00000780
00000780
000007F8
000003F8
000001F8
ENDCHAR
STARTCHAR 0105
ENCODING 261
SWIDTH 600 0
DWIDTH 30 0
BBX 23 39 3 -11
BITMAP
001000
03FFC0
3FFFE0
1FFFF0
1F83F8
0C007C
00007C
00003C
00003C
00003C
00003E
00003E
00FFFE
07FFFE
1FFFFE
3FFFFE
7F003E
7C003E
78003E
78003E
F8003E
78007E
78007E
7C01FE
7F07FE
3FFF9E
1FFF1E
0FFC1E
00C03C
000078
000070
0000E0
0000E0
0001E0
0001E0
0001E0
0000FE
0000FE
00003E
ENDCHAR
STARTCHAR 0106
ENCODING 262
SWIDTH 600 0
DWIDTH 30 0
BBX 25 48 3 -1
BITMAP
00007E00
00007C00
0000F800
0000F800
0001F000
0003E000
0003C000
00070000
00000000
00000000
00000000
00010000
003FFC00
00FFFF80
03FFFF00
07F81F00
0FC00200
1F800000
1F000000
3E000000
3E000000
7C000000
7C000000
7C000000
78000000
78000000
F8000000
F8000000
F8000000
F8000000
F8000000
F8000000
F8000000
78000000
78000000
7C000000
7C000000
7C000000
3C000000
3E000000
1F000000
1F800000
0FC00200
07F01E00
03FFFE00
01FFFE00
007FFC00
00030000
ENDCHAR
STARTCHAR 0107
ENCODING 263
SWIDTH 600 0
DWIDTH 30 0
BBX 21 39 4 -1
BITMAP
0001F0
0003F0
0003E0
0007C0
000F80
000F00
001E00
003C00
000000
000000
000400
00FFF0
07FFF8
0FFFF8
1FE0F0
3F0010
3E0000
7C0000
7C0000
780000
780000
F80000
F80000
F80000
F80000
F80000
F80000
F80000
F80000
780000
7C0000
7C0000
3E0000
3F0008
1FE078
0FFFF8
07FFF8
01FFF0
000C00
ENDCHAR
STARTCHAR 0108
ENCODING 264
SWIDTH 600 0
DWIDTH 30 0
BBX 25 48 3 -1
BITMAP
000F8000
000FC000
001FE000
003FF000
007CF800
00F87C00
01E03C00
03C00E00
00000000
00000000
00000000
00010000
003FFC00
00FFFF80
03FFFF00
07F81F00
0FC00200
1F800000
1F000000
3E000000
3E000000
7C000000
7C000000
7C000000
78000000
78000000
F8000000
F8000000
F8000000
F8000000
F8000000
F8000000
F8000000
78000000
78000000
7C000000
7C000000
7C000000
3C000000
3E000000
1F000000
1F800000
0FC00200
07F01E00
03FFFE00
01FFFE00
007FFC00
00030000
ENDCHAR
STARTCHAR 0109
ENCODING 265
SWIDTH 600 0
DWIDTH 30 0
BBX 21 39 4 -1
BITMAP
003E00
007F00
00FF00
01F780
01E3C0
03C1E0
0780F0
0F0078
000000
000000
000400
00FFF0
07FFF8
0FFFF8
1FE0F0
3F0010
3E0000
7C0000
7C0000
780000
780000
F80000
F80000
F80000
F80000
F80000
F80000
F80000
F80000
780000
7C0000
7C0000
3E0000
3F0008
1FE078
0FFFF8
07FFF8
01FFF0
000C00
ENDCHAR
STARTCHAR 010A
ENCODING 266
SWIDTH 600 0
DWIDTH 30 0
BBX 25 47 3 -1
BITMAP
00078000
000FC000
000FC000
000FC000
000FC000
00078000
00000000
00000000
00000000
00000000
00010000
003FFC00
00FFFF80
03FFFF00
07F81F00
0FC00200
1F800000
1F000000
3E000000
3E000000
7C000000
7C000000
7C000000
78000000
78000000
F8000000
F8000000
F8000000
F8000000
F8000000
F8000000
F8000000
78000000
78000000
7C000000
7C000000
7C000000
3C000000
3E000000
1F000000
1F800000
0FC00200
07F01E00
03FFFE00
01FFFE00
007FFC00
00030000
ENDCHAR
STARTCHAR 010B
ENCODING 267
SWIDTH 600 0
DWIDTH 30 0
BBX 21 38 4 -1
BITMAP
003C00
007E00
007E00
007F00
003E00
003C00
000000
000000
000000
000400
00FFF0
07FFF8
0FFFF8
1FE0F0
3F0010
3E0000
7C0000
7C0000
780000
780000
F80000
F80000
F80000
F80000
F80000
F80000
F80000
F80000
780000
7C0000
7C0000
3E0000
3F0008
1FE078
0FFFF8
07FFF8
01FFF0
000C00
ENDCHAR
STARTCHAR 010C
ENCODING 268
SWIDTH 600 0
DWIDTH 30 0
BBX 25 48 3 -1
BITMAP
03C00E00
01F03E00
00F87C00
007CF800
003FF000
001FE000
000FC000
000F8000
00000000
00000000
00000000
00010000
003FFC00
00FFFF80
03FFFF00
07F81F00
0FC00200
1F800000
1F000000
3E000000
3E000000
7C000000
7C000000
7C000000
78000000
78000000
F8000000
F8000000
F8000000
F8000000
F8000000
F8000000
F8000000
78000000
78000000
7C000000
7C000000
7C000000
3C000000
3E000000
1F000000
1F800000
0FC00200
07F01E00
03FFFE00
01FFFE00
007FFC00
00030000
ENDCHAR
STARTCHAR 010D
ENCODING 269
SWIDTH 600 0
DWIDTH 30 0
BBX 21 39 4 -1
BITMAP
0F0078
0780F0
03C1E0
01E7C0
01FF80
00FF00
007F00
003E00
000000
000000
000400
00FFF0
07FFF8
0FFFF8
1FE0F0
3F0010
3E0000
7C0000
7C0000
780000
780000
F80000
F80000
F80000
F80000
F80000
F80000
F80000
F80000
780000
7C0000
7C0000
3E0000
3F0008
1FE078
0FFFF8
07FFF8
01FFF0
000C00
ENDCHAR
STARTCHAR 010E
ENCODING 270
SWIDTH 600 0
DWIDTH 30 0
BBX 25 47 3 0
BITMAP
3C01E000
1E03E000
0F87C000
07CF8000
03FF0000
01FE0000
00FC0000
00F80000
00000000
00000000
00000000
00000000
FFFC0000
FFFF8000
FFFFC000
FFFFF000
F803F800
F801F800
F8007C00
F8003E00
F8003E00
F8001F00
F8001F00
F8001F00
F8000F00
F8000F80
F8000F80
F8000F80
F8000F80
F8000F80
F8000F80
F8000F80
F8000F80
F8000F00
F8000F00
F8001F00
F8001F00
F8001E00
F8003E00
F8007E00
F800FC00
F801F800
F807F000
FFFFE000
FFFFC000
FFFF0000
FFF80000
ENDCHAR
STARTCHAR 010F
ENCODING 271
SWIDTH 600 0
DWIDTH 30 0
BBX 30 39 2 -1
BITMAP
00003C3C
00003C3C
00003C78
00003C78
00003C78
00003C70
00003CE0
00003CE0
00003C00
00003C00
00203C00
03FE3C00
0FFF3C00
1FFFBC00
1F87FC00
3F01FC00
3E00FC00
7C00FC00
7C007C00
78007C00
F8007C00
F8007C00
F8007C00
F8003C00
F8003C00
F8003C00
F8003C00
F8007C00
F8007C00
78007C00
7C007C00
7C00FC00
3C00FC00
3E01FC00
1F87FC00
1FFFBC00
0FFF3C00
03FE3C00
00600000
ENDCHAR
STARTCHAR 0110
ENCODING 272
SWIDTH 600 0
DWIDTH 30 0
BBX 28 35 0 0
BITMAP
0FFF8000
0FFFF000
0FFFFC00
0FFFFE00
0F807F00
0F801F80
0F800FC0
0F8007C0
0F8003E0
0F8003E0
0F8001E0
0F8001F0
0F8001F0
0F8001F0
0F8001F0
0F8000F0
FFFE00F0
FFFE00F0
FFFE00F0
FFFE00F0
0F8001F0
0F8001F0
0F8001F0
0F8001F0
0F8003E0
0F8003E0
0F8003E0
0F8007C0
0F800F80
0F801F80
0F807F00
0FFFFE00
0FFFF800
0FFFF000
0FFF0000
ENDCHAR
STARTCHAR 0111
ENCODING 273
SWIDTH 600 0
DWIDTH 30 0
BBX 27 39 3 -1
BITMAP
00001E00
00001E00
00001E00
00001E00
00001E00
003FFFE0
003FFFE0
003FFFE0
003FFFE0
00001E00
00001E00
01FC1E00
07FF1E00
0FFF9E00
1FFFDE00
3F01FE00
7E00FE00
7C007E00
7C007E00
F8003E00
F8003E00
F8003E00
F0003E00
F0001E00
F0001E00
F0001E00
F0001E00
F0003E00
F8003E00
F8003E00
F8003E00
7C007E00
7C007E00
3E00FE00
3F83FE00
1FFFDE00
0FFF9E00
03FE1E00
00200000
ENDCHAR
STARTCHAR 0112
ENCODING 274
SWIDTH 600 0
DWIDTH 30 0
BBX 21 44 5 0
BITMAP
1FFFC0
1FFFC0
1FFFC0
1FFFC0
000000
000000
000000
000000
000000
FFFFF8
FFFFF8
FFFFF8
FFFFF8
F00000
F00000
F00000
F00000
F00000
F00000
F00000
F00000
F00000
F00000
F00000
FFFFF0
FFFFF0
FFFFF0
FFFFF0
F00000
F00000
F00000
F00000
F00000
F00000
F00000
F00000
F00000
F00000
F00000
F00000
FFFFF8
FFFFF8
FFFFF8
FFFFF8
ENDCHAR
STARTCHAR 0113
ENCODING 275
SWIDTH 600 0
DWIDTH 30 0
BBX 24 36 3 -1
BITMAP
07FFF0
07FFF0
07FFF0
07FFF0
000000
000000
000000
000800
01FFC0
03FFE0
0FFFF8
1FC1F8
3F007C
3E003E
7C003E
7C001E
78001F
F8001F
F8001F
FFFFFF
FFFFFF
FFFFFF
FFFFFF
F80000
F80000
F80000
780000
7C0000
7C0000
3E0000
3F0006
1FE07E
0FFFFE
03FFFE
00FFF8
000600
ENDCHAR
STARTCHAR 0114
ENCODING 276
SWIDTH 600 0
DWIDTH 30 0
BBX 21 46 5 0
BITMAP
3801C0
1C01C0
1E03C0
1FFF80
0FFF80
07FF00
01FC00
000000
000000
000000
000000
FFFFF8
FFFFF8
FFFFF8
FFFFF8
F00000
F00000
F00000
F00000
F00000
F00000
F00000
F00000
F00000
F00000
F00000
FFFFF0
FFFFF0
FFFFF0
FFFFF0
F00000
F00000
F00000
F00000
F00000
F00000
F00000
F00000
F00000
F00000
F00000
F00000
FFFFF8
FFFFF8
FFFFF8
FFFFF8
ENDCHAR
STARTCHAR 0115
ENCODING 277
SWIDTH 600 0
DWIDTH 30 0
BBX 24 38 3 -1
BITMAP
0E0070
0F0070
0780F0
07FFE0
03FFC0
01FF80
007F00
000000
000000
000800
01FFC0
03FFE0
0FFFF8
1FC1F8
3F007C
3E003E
7C003E
7C001E
78001F
F8001F
F8001F
FFFFFF
FFFFFF
FFFFFF
FFFFFF
F80000
F80000
F80000
780000
7C0000
7C0000
3E0000
3F0006
1FE07E
0FFFFE
03FFFE
00FFF8
000600
ENDCHAR
STARTCHAR 0116
ENCODING 278
SWIDTH 600 0
DWIDTH 30 0
BBX 21 46 5 0
BITMAP
00F000
01F800
01F800
01F800
01F800
00F000
000000
000000
000000
000000
000000
FFFFF8
FFFFF8
FFFFF8
FFFFF8
F00000
F00000
F00000
F00000
F00000
F00000
F00000
F00000
F00000
F00000
F00000
FFFFF0
FFFFF0
FFFFF0
FFFFF0
F00000
F00000
F00000
F00000
F00000
F00000
F00000
F00000
F00000
F00000
F00000
F00000
FFFFF8
FFFFF8
FFFFF8
FFFFF8
ENDCHAR
STARTCHAR 0117
ENCODING 279
SWIDTH 600 0
DWIDTH 30 0
BBX 24 38 3 -1
BITMAP
003C00
007E00
007E00
007E00
007E00
003C00
000000
000000
000000
000800
01FFC0
03FFE0
0FFFF8
1FC1F8
3F007C
3E003E
7C003E
7C001E
78001F
F8001F
F8001F
FFFFFF
FFFFFF
FFFFFF
FFFFFF
F80000
F80000
F80000
780000
7C0000
7C0000
3E0000
3F0006
1FE07E
0FFFFE
03FFFE
00FFF8
000600
ENDCHAR
STARTCHAR 0118
ENCODING 280
SWIDTH 600 0
DWIDTH 30 0
BBX 21 46 5 -11
BITMAP
FFFFF8
FFFFF8
FFFFF8
FFFFF8
F00000
F00000
F00000
F00000
F00000
F00000
F00000
F00000
F00000
F00000
F00000
FFFFF0
FFFFF0
FFFFF0
FFFFF0
F00000
F00000
F00000
F00000
F00000
F00000
F00000
F00000
F00000
F00000
F00000
F00000
FFFFF8
FFFFF8
FFFFF8
FFFFF8
0003C0
000780
000F00
000E00
001E00
001E00
001E00
001E00
001FE0
000FE0
0007E0
ENDCHAR
STARTCHAR 0119
ENCODING 281
SWIDTH 600 0
DWIDTH 30 0
BBX 24 39 3 -11
BITMAP
000800
01FFC0
03FFE0
0FFFF8
1FC1F8
3F007C
3E003E
7C003E
7C001E
78001F
F8001F
F8001F
FFFFFF
FFFFFF
FFFFFF
FFFFFF
F80000
F80000
F80000
780000
7C0000
7C0000
3E0000
3F0006
1FE07E
0FFFFE
03FFFE
00FFFC
000478
0000F0
0001E0
0001C0
0003C0
0003C0
0003C0
0003E0
0001FC
0001FC
00007C
ENDCHAR
STARTCHAR 011A
ENCODING 282
SWIDTH 600 0
DWIDTH 30 0
BBX 21 47 5 0
BITMAP
3C01E0
1E03C0
1F0F80
0F9F00
07FE00
03FC00
01F800
00F800
000000
000000
000000
000000
FFFFF8
FFFFF8
FFFFF8
FFFFF8
F00000
F00000
F00000
F00000
F00000
F00000
F00000
F00000
F00000
F00000
F00000
FFFFF0
FFFFF0
FFFFF0
FFFFF0
F00000
F00000
F00000
F00000
F00000
F00000
F00000
F00000
F00000
F00000
F00000
F00000
FFFFF8
FFFFF8
FFFFF8
FFFFF8
ENDCHAR
STARTCHAR 011B
ENCODING 283
SWIDTH 600 0
DWIDTH 30 0
BBX 24 39 3 -1
BITMAP
0E0078
0F80F0
07C3E0
03E7C0
01FF80
00FF00
007E00
003E00
000000
000000
000800
01FFC0
03FFE0
0FFFF8
1FC1F8
3F007C
3E003E
7C003E
7C001E
78001F
F8001F
F8001F
FFFFFF
FFFFFF
FFFFFF
FFFFFF
F80000
F80000
F80000
780000
7C0000
7C0000
3E0000
3F0006
1FE07E
0FFFFE
03FFFE
00FFF8
000600
ENDCHAR
STARTCHAR 011C
ENCODING 284
SWIDTH 600 0
DWIDTH 30 0
BBX 25 48 2 -1
BITMAP
001F8000
001F8000
003FC000
007FE000
00F9F000
01F0F800
01E07C00
03801E00
00000000
00000000
00000000
00010000
003FFC00
01FFFF00
03FFFF00
07F81E00
0FC00200
1F800000
1F000000
3E000000
3E000000
7C000000
7C000000
7C000000
78000000
78000000
F8000000
F8000000
F803FF80
F803FF80
F803FF80
F803FF80
F8000F80
F8000F80
78000F80
78000F80
7C000F80
7C000F80
7C000F80
3E000F80
3F000F80
1F000F80
0FC00F80
0FF01F80
07FFFF80
01FFFF80
007FFC00
00030000
ENDCHAR
STARTCHAR 011D
ENCODING 285
SWIDTH 600 0
DWIDTH 30 0
BBX 23 50 3 -12
BITMAP
007C00
007E00
00FF00
01FF80
03E7C0
07C3E0
0F81F0
0E0070
000000
000000
002000
03FE1E
0FFF9E
1FFFDE
3F83FE
3E00FE
7C007E
7C003E
78003E
F8003E
F8001E
F8001E
F0001E
F0001E
F0001E
F0001E
F0001E
F8001E
F8001E
F8001E
F8003E
7C003E
7C007E
3E00FE
3F83FE
1FFFDE
0FFF9E
03FF1E
00301E
00001E
00001E
00003E
00003E
00003C
40007C
7001F8
7FFFF8
7FFFF0
3FFFC0
03FE00
ENDCHAR
STARTCHAR 011E
ENCODING 286
SWIDTH 600 0
DWIDTH 30 0
BBX 25 47 2 -1
BITMAP
03801C00
03C01C00
01E03C00
01FFF800
00FFF000
007FE000
001F8000
00000000
00000000
00000000
00010000
003FFC00
01FFFF00
03FFFF00
07F81E00
0FC00200
1F800000
1F000000
3E000000
3E000000
7C000000
7C000000
7C000000
78000000
78000000
F8000000
F8000000
F803FF80
F803FF80
F803FF80
F803FF80
F8000F80
F8000F80
78000F80
78000F80
7C000F80
7C000F80
7C000F80
3E000F80
3F000F80
1F000F80
0FC00F80
0FF01F80
07FFFF80
01FFFF80
007FFC00
00030000
ENDCHAR
STARTCHAR 011F
ENCODING 287
SWIDTH 600 0
DWIDTH 30 0
BBX 23 49 3 -12
BITMAP
0E0070
0F00F0
0700E0
07FFE0
03FFC0
01FF80
00FE00
000000
000000
002000
03FE1E
0FFF9E
1FFFDE
3F83FE
3E00FE
7C007E
7C003E
78003E
F8003E
F8001E
F8001E
F0001E
F0001E
F0001E
F0001E
F0001E
F8001E
F8001E
F8001E
F8003E
7C003E
7C007E
3E00FE
3F83FE
1FFFDE
0FFF9E
03FF1E
00301E
00001E
00001E
00003E
00003E
00003C
40007C
7001F8
7FFFF8
7FFFF0
3FFFC0
03FE00
ENDCHAR
STARTCHAR 0120
ENCODING 288
SWIDTH 600 0
DWIDTH 30 0
BBX 25 47 2 -1
BITMAP
000F0000
001F8000
001F8000
001F8000
001F8000
000F0000
00000000
00000000
00000000
00000000
00010000
003FFC00
01FFFF00
03FFFF00
07F81E00
0FC00200
1F800000
1F000000
3E000000
3E000000
7C000000
7C000000
7C000000
78000000
78000000
F8000000
F8000000
F803FF80
F803FF80
F803FF80
F803FF80
F8000F80
F8000F80
78000F80
78000F80
7C000F80
7C000F80
7C000F80
3E000F80
3F000F80
1F000F80
0FC00F80
0FF01F80
07FFFF80
01FFFF80
007FFC00
00030000
ENDCHAR
STARTCHAR 0121
ENCODING 289
SWIDTH 600 0
DWIDTH 30 0
BBX 23 49 3 -12
BITMAP
003C00
007E00
007E00
007E00
007E00
003C00
000000
000000
000000
002000
03FE1E
0FFF9E
1FFFDE
3F83FE
3E00FE
7C007E
7C003E
78003E
F8003E
F8001E
F8001E
F0001E
F0001E
F0001E
F0001E
F0001E
F8001E
F8001E
F8001E
F8003E
7C003E
7C007E
3E00FE
3F83FE
1FFFDE
0FFF9E
03FF1E
00301E
00001E
00001E
00003E
00003E
00003C
40007C
7001F8
7FFFF8
7FFFF0
3FFFC0
03FE00
ENDCHAR
STARTCHAR 0122
ENCODING 290
SWIDTH 600 0
DWIDTH 30 0
BBX 25 47 2 -11
BITMAP
00010000
003FFC00
01FFFF00
03FFFF00
07F81E00
0FC00200
1F800000
1F000000
3E000000
3E000000
7C000000
7C000000
7C000000
78000000
78000000
F8000000
F8000000
F803FF80
F803FF80
F803FF80
F803FF80
F8000F80
F8000F80
78000F80
78000F80
7C000F80
7C000F80
7C000F80
3E000F80
3F000F80
1F000F80
0FC00F80
0FF01F80
07FFFF80
01FFFF80
007FFC00
00030000
00000000
00000000
00078000
000F8000
000F0000
000F0000
000E0000
001E0000
001C0000
00180000
ENDCHAR
STARTCHAR 0123
ENCODING 291
SWIDTH 600 0
DWIDTH 30 0
BBX 23 50 3 -12
BITMAP
000E00
000E00
001C00
003C00
003C00
003C00
007800
007800
000000
000000
002000
03FE1E
0FFF9E
1FFFDE
3F83FE
3E00FE
7C007E
7C003E
78003E
F8003E
F8001E
F8001E
F0001E
F0001E
F0001E
F0001E
F0001E
F8001E
F8001E
F8001E
F8003E
7C003E
7C007E
3E00FE
3F83FE
1FFFDE
0FFF9E
03FF1E
00301E
00001E
00001E
00003E
00003E
00003C
40007C
7001F8
7FFFF8
7FFFF0
3FFFC0
03FE00
ENDCHAR
STARTCHAR 0124
ENCODING 292
SWIDTH 600 0
DWIDTH 30 0
BBX 24 47 3 0
BITMAP
007C00
007E00
00FF00
01FF80
03E7C0
07C3E0
0F81F0
0E0070
000000
000000
000000
000000
F8001F
F8001F
F8001F
F8001F
F8001F
F8001F
F8001F
F8001F
F8001F
F8001F
F8001F
F8001F
F8001F
F8001F
F8001F
FFFFFF
FFFFFF
FFFFFF
FFFFFF
F8001F
F8001F
F8001F
F8001F
F8001F
F8001F
F8001F
F8001F
F8001F
F8001F
F8001F
F8001F
F8001F
F8001F
F8001F
F8001F
ENDCHAR
STARTCHAR 0125
ENCODING 293
SWIDTH 600 0
DWIDTH 30 0
BBX 28 49 -2 0
BITMAP
03E00000
07E00000
0FF00000
1F780000
1E3C0000
3C1E0000
780F0000
F0078000
00000000
00000000
00000000
03E00000
03E00000
03E00000
03E00000
03E00000
03E00000
03E00000
03E00000
03E00000
03E00000
03E02000
03C3FF00
03C7FF80
03CFFFC0
03DF0FE0
03FC03E0
03F801F0
03F001F0
03E001F0
03E000F0
03E000F0
03E000F0
03E000F0
03E000F0
03E000F0
03E000F0
03E000F0
03E000F0
03E000F0
03E000F0
03E000F0
03E000F0
03E000F0
03E000F0
03E000F0
03E000F0
03E000F0
03E000F0
ENDCHAR
STARTCHAR 0126
ENCODING 294
SWIDTH 600 0
DWIDTH 30 0
BBX 30 35 0 0
BITMAP
1F0003E0
1F0003E0
1F0003E0
1F0003E0
1F0003E0
FFFFFFFC
FFFFFFFC
FFFFFFFC
FFFFFFFC
1F0003E0
1F0003E0
1F0003E0
1F0003E0
1F0003E0
1F0003E0
1FFFFFE0
1FFFFFE0
1FFFFFE0
1FFFFFE0
1F0003E0
1F0003E0
1F0003E0
1F0003E0
1F0003E0
1F0003E0
1F0003E0
1F0003E0
1F0003E0
1F0003E0
1F0003E0
1F0003E0
1F0003E0
1F0003E0
1F0003E0
1F0003E0
ENDCHAR
STARTCHAR 0127
ENCODING 295
SWIDTH 600 0
DWIDTH 30 0
BBX 26 38 0 0
BITMAP
0F800000
0F800000
0F800000
0F800000
FFFF8000
FFFF8000
FFFF8000
FFFF8000
0F800000
0F800000
0F808000
0F0FFC00
0F1FFE00
0F3FFF00
0F7C3F80
0FF00F80
0FE007C0
0FC007C0
0F8007C0
0F8003C0
0F8003C0
0F8003C0
0F8003C0
0F8003C0
0F8003C0
0F8003C0
0F8003C0
0F8003C0
0F8003C0
0F8003C0
0F8003C0
0F8003C0
0F8003C0
0F8003C0
0F8003C0
0F8003C0
0F8003C0
0F8003C0
ENDCHAR
STARTCHAR 0128
ENCODING 296
SWIDTH 600 0
DWIDTH 30 0
BBX 20 46 5 0
BITMAP
0200E0
1FC0E0
3FE0E0
3FFFC0
78FFC0
703F80
701F00
000000
000000
000000
000000
FFFFF0
FFFFF0
FFFFF0
1FFF80
00F000
00F000
00F000
00F000
00F000
00F000
00F000
00F000
00F000
00F000
00F000
00F000
00F000
00F000
00F000
00F000
00F000
00F000
00F000
00F000
00F000
00F000
00F000
00F000
00F000
00F000
00F000
03FC00
FFFFF0
FFFFF0
FFFFF0
ENDCHAR
STARTCHAR 0129
ENCODING 297
SWIDTH 600 0
DWIDTH 30 0
BBX 23 37 4 0
BITMAP
010070
0FE070
1FF070
1FFFE0
3C7FE0
381FC0
380F80
000000
000000
000000
7FFC00
7FFC00
7FFC00
07FC00
003C00
003C00
003C00
003C00
003C00
003C00
003C00
003C00
003C00
003C00
003C00
003C00
003C00
003C00
003C00
003C00
003C00
003C00
003C00
03FFC0
FFFFFE
FFFFFE
FFFFFE
ENDCHAR
STARTCHAR 012A
ENCODING 298
SWIDTH 600 0
DWIDTH 30 0
BBX 20 44 5 0
BITMAP
1FFF80
1FFF80
1FFF80
1FFF80
000000
000000
000000
000000
000000
FFFFF0
FFFFF0
FFFFF0
1FFF80
00F000
00F000
00F000
00F000
00F000
00F000
00F000
00F000
00F000
00F000
00F000
00F000
00F000
00F000
00F000
00F000
00F000
00F000
00F000
00F000
00F000
00F000
00F000
00F000
00F000
00F000
00F000
03FC00
FFFFF0
FFFFF0
FFFFF0
ENDCHAR
STARTCHAR 012B
ENCODING 299
SWIDTH 600 0
DWIDTH 30 0
BBX 23 35 4 0
BITMAP
0FFFC0
0FFFC0
0FFFC0
0FFFC0
000000
000000
000000
000000
7FFC00
7FFC00
7FFC00
07FC00
003C00
003C00
003C00
003C00
003C00
003C00
003C00
003C00
003C00
003C00
003C00
003C00
003C00
003C00
003C00
003C00
003C00
003C00
003C00
03FFC0
FFFFFE
FFFFFE
FFFFFE
ENDCHAR
STARTCHAR 012C
ENCODING 300
SWIDTH 600 0
DWIDTH 30 0
BBX 20 46 5 0
BITMAP
3801C0
3C03C0
1C0380
1FFF80
0FFF00
07FE00
03F800
000000
000000
000000
000000
FFFFF0
FFFFF0
FFFFF0
1FFF80
00F000
00F000
00F000
00F000
00F000
00F000
00F000
00F000
00F000
00F000
00F000
00F000
00F000
00F000
00F000
00F000
00F000
00F000
00F000
00F000
00F000
00F000
00F000
00F000
00F000
00F000
00F000
03FC00
FFFFF0
FFFFF0
FFFFF0
ENDCHAR
STARTCHAR 012D
ENCODING 301
SWIDTH 600 0
DWIDTH 30 0
BBX 23 37 4 0
BITMAP
1C00E0
1E01E0
0E01C0
0FFFC0
07FF80
03FF00
01FC00
000000
000000
000000
7FFC00
7FFC00
7FFC00
07FC00
003C00
003C00
003C00
003C00
003C00
003C00
003C00
003C00
003C00
003C00
003C00
003C00
003C00
003C00
003C00
003C00
003C00
003C00
003C00
03FFC0
FFFFFE
FFFFFE
FFFFFE
ENDCHAR
STARTCHAR 012E
ENCODING 302
SWIDTH 600 0
DWIDTH 30 0
BBX 20 46 5 -11
BITMAP
FFFFF0
FFFFF0
FFFFF0
1FFF80
00F000
00F000
00F000
00F000
00F000
00F000
00F000
00F000
00F000
00F000
00F000
00F000
00F000
00F000
00F000
00F000
00F000
00F000
00F000
00F000
00F000
00F000
00F000
00F000
00F000
00F000
00F000
03FC00
FFFFF0
FFFFF0
FFFFF0
000780
000F00
000E00
001C00
003C00
003C00
003C00
003C00
001FC0
001FC0
0007C0
ENDCHAR
STARTCHAR 012F
ENCODING 303
SWIDTH 600 0
DWIDTH 30 0
BBX 23 49 4 -11
BITMAP
007800
00FC00
00FC00
00FE00
007C00
007800
000000
000000
000000
000000
000000
7FFC00
7FFC00
7FFC00
07FC00
003C00
003C00
003C00
003C00
003C00
003C00
003C00
003C00
003C00
003C00
003C00
003C00
003C00
003C00
003C00
003C00
003C00
003C00
003C00
03FFC0
FFFFFE
FFFFFE
FFFFFE
0001E0
0003C0
000780
000700
000F00
000F00
000F00
000F00
000FF0
0007F0
0003F0
ENDCHAR
STARTCHAR 0130
ENCODING 304
SWIDTH 600 0
DWIDTH 30 0
BBX 20 46 5 0
BITMAP
00F000
01F800
01F800
01F800
01F800
00F000
000000
000000
000000
000000
000000
FFFFF0
FFFFF0
FFFFF0
1FFF80
00F000
00F000
00F000
00F000
00F000
00F000
00F000
00F000
00F000
00F000
00F000
00F000
00F000
00F000
00F000
00F000
00F000
00F000
00F000
00F000
00F000
00F000
00F000
00F000
00F000
00F000
00F000
03FC00
FFFFF0
FFFFF0
FFFFF0
ENDCHAR
STARTCHAR 0131
ENCODING 305
SWIDTH 600 0
DWIDTH 30 0
BBX 23 27 4 0
BITMAP
7FFC00
7FFC00
7FFC00
07FC00
003C00
003C00
003C00
003C00
003C00
003C00
003C00
003C00
003C00
003C00
003C00
003C00
003C00
003C00
003C00
003C00
003C00
003C00
003C00
03FFC0
FFFFFE
FFFFFE
FFFFFE
ENDCHAR
STARTCHAR 0132
ENCODING 306
SWIDTH 600 0
DWIDTH 30 0
BBX 20 36 5 -1
BITMAP
F801F0
F801F0
F801F0
F801F0
F801F0
F801F0
F801F0
F801F0
F801F0
F801F0
F801F0
F801F0
F801F0
F801F0
F801F0
F801F0
F801F0
F801F0
F801F0
F801F0
F801F0
F801F0
F801F0
F801F0
F801F0
0001F0
0001F0
0001F0
0001E0
0003E0
8007E0
F01FC0
FFFF80
FFFF00
7FFC00
018000
ENDCHAR
STARTCHAR 0133
ENCODING 307
SWIDTH 600 0
DWIDTH 30 0
BBX 20 50 5 -12
BITMAP
7801E0
FC03F0
FC03F0
FC03F0
FC03F0
7801E0
000000
000000
000000
000000
000000
7801E0
7801E0
7801E0
7801E0
7801E0
7801E0
7801E0
7801E0
7801E0
7801E0
7801E0
7801E0
7801E0
7801E0
7801E0
7801E0
7801E0
7801E0
7801E0
7801E0
7801E0
7801E0
7801E0
7801E0
7801E0
7801E0
7801E0
0001E0
0001E0
0001E0
0001E0
0003E0
0003E0
0007E0
400FC0
7FFF80
7FFF80
7FFE00
1FF800
ENDCHAR
STARTCHAR 0134
ENCODING 308
SWIDTH 600 0
DWIDTH 30 0
BBX 24 48 5 -1
BITMAP
0007C0
0007E0
000FF0
001FF8
003E7C
007C3E
00F81F
00E007
000000
000000
000000
000000
0003C0
0003C0
0003C0
0003C0
0003C0
0003C0
0003C0
0003C0
0003C0
0003C0
0003C0
0003C0
0003C0
0003C0
0003C0
0003C0
0003C0
0003C0
0003C0
0003C0
0003C0
0003C0
0003C0
0003C0
0003C0
0003C0
0003C0
0007C0
0007C0
000F80
800F80
F03F00
FFFF00
FFFE00
7FF800
010000
ENDCHAR
STARTCHAR 0135
ENCODING 309
SWIDTH 600 0
DWIDTH 30 0
BBX 22 50 3 -12
BITMAP
001F00
001F80
003FC0
007FE0
00F9F0
01F0F8
03E07C
03801C
000000
000000
000000
0FFF80
0FFF80
0FFF80
0FFF80
000F80
000F80
000F80
000F80
000F80
000F80
000F80
000F80
000F80
000F80
000F80
000F80
000F80
000F80
000F80
000F80
000F80
000F80
000F80
000F80
000F80
000F80
000F80
000F80
000F80
000F80
000F80
000F80
000F00
001F00
803F00
FFFE00
FFFC00
FFF800
7FC000
ENDCHAR
STARTCHAR 0136
ENCODING 310
SWIDTH 600 0
DWIDTH 30 0
BBX 25 46 3 -11
BITMAP
F8001F00
F8003E00
F8007C00
F800F800
F801F800
F801F000
F803E000
F807C000
F80FC000
F80F8000
F81F0000
F83E0000
F87E0000
F87C0000
F8F80000
F9F00000
F9F00000
FBF80000
FFFC0000
FFFC0000
FF3E0000
FE1F0000
FC1F0000
F80F8000
F807C000
F807C000
F803E000
F801F000
F801F000
F800F800
F800FC00
F8007C00
F8003E00
F8003F00
F8001F00
00000080
00000000
00000000
003E0000
003C0000
003C0000
003C0000
00780000
00700000
00700000
00E00000
ENDCHAR
STARTCHAR 0137
ENCODING 311
SWIDTH 600 0
DWIDTH 30 0
BBX 24 49 5 -11
BITMAP
F80000
F80000
F80000
F80000
F80000
F80000
F80000
F80000
F80000
F80000
F80000
F8007E
F800F8
F801F8
F803F0
F807E0
F80FC0
F80F80
F81F00
F83E00
F87C00
F8F800
F9F000
FBF800
F7FC00
F7FC00
FF3E00
FE1F00
FC1F00
F80F80
F807C0
F803E0
F803E0
F801F0
F800F8
F800FC
F8007C
F8003E
000001
000000
000000
003C00
003C00
007800
007800
007000
007000
00E000
00E000
ENDCHAR
STARTCHAR 0138
ENCODING 312
SWIDTH 600 0
DWIDTH 30 0
BBX 24 27 5 0
BITMAP
F8007E
F800F8
F801F8
F803F0
F807E0
F80FC0
F80F80
F81F00
F83E00
F87C00
F8F800
F9F000
FBF800
F7FC00
F7FC00
FF3E00
FE1F00
FC1F00
F80F80
F807C0
F803E0
F803E0
F801F0
F800F8
F800FC
F8007C
F8003F
ENDCHAR
STARTCHAR 0139
ENCODING 313
SWIDTH 600 0
DWIDTH 30 0
BBX 20 47 6 0
BITMAP
0FC000
0F8000
1F8000
1F0000
3E0000
7C0000
780000
F00000
000000
000000
000000
000000
F00000
F00000
F00000
F00000
F00000
F00000
F00000
F00000
F00000
F00000
F00000
F00000
F00000
F00000
F00000
F00000
F00000
F00000
F00000
F00000
F00000
F00000
F00000
F00000
F00000
F00000
F00000
F00000
F00000
F00000
F00000
FFFFF0
FFFFF0
FFFFF0
FFFFF0
ENDCHAR
STARTCHAR 013A
ENCODING 314
SWIDTH 600 0
DWIDTH 30 0
BBX 23 49 4 0
BITMAP
0007E0
0007C0
000FC0
000F80
001F00
003E00
003C00
007800
000000
000000
000000
FFFC00
FFFC00
FFFC00
FFFC00
003C00
003C00
003C00
003C00
003C00
003C00
003C00
003C00
003C00
003C00
003C00
003C00
003C00
003C00
003C00
003C00
003C00
003C00
003C00
003C00
003C00
003C00
003C00
003C00
003C00
003C00
003C00
003C00
003C00
003C00
01FF80
FFFFFE
FFFFFE
FFFFFE
ENDCHAR
STARTCHAR 013B
ENCODING 315
SWIDTH 600 0
DWIDTH 30 0
BBX 20 46 6 -11
BITMAP
F00000
F00000
F00000
F00000
F00000
F00000
F00000
F00000
F00000
F00000
F00000
F00000
F00000
F00000
F00000
F00000
F00000
F00000
F00000
F00000
F00000
F00000
F00000
F00000
F00000
F00000
F00000
F00000
F00000
F00000
F00000
FFFFF0
FFFFF0
FFFFF0
FFFFF0
000000
000000
000000
00F800
00F000
00F000
00F000
01E000
01C000
01C000
038000
ENDCHAR
STARTCHAR 013C
ENCODING 316
SWIDTH 600 0
DWIDTH 30 0
BBX 23 49 4 -11
BITMAP
FFFC00
FFFC00
FFFC00
FFFC00
003C00
003C00
003C00
003C00
003C00
003C00
003C00
003C00
003C00
003C00
003C00
003C00
003C00
003C00
003C00
003C00
003C00
003C00
003C00
003C00
003C00
003C00
003C00
003C00
003C00
003C00
003C00
003C00
003C00
003C00
01FF80
FFFFFE
FFFFFE
FFFFFE
000000
000000
000000
003C00
003C00
003C00
007800
007800
007000
00E000
00E000
ENDCHAR
STARTCHAR 013D
ENCODING 317
SWIDTH 600 0
DWIDTH 30 0
BBX 20 35 6 0
BITMAP
F001E0
F001E0
F003C0
F003C0
F003C0
F00380
F00780
F00700
F00000
F00000
F00000
F00000
F00000
F00000
F00000
F00000
F00000
F00000
F00000
F00000
F00000
F00000
F00000
F00000
F00000
F00000
F00000
F00000
F00000
F00000
F00000
FFFFF0
FFFFF0
FFFFF0
FFFFF0
ENDCHAR
STARTCHAR 013E
ENCODING 318
SWIDTH 600 0
DWIDTH 30 0
BBX 24 38 4 0
BITMAP
FFFC0F
FFFC0F
FFFC1E
FFFC1E
003C1E
003C1C
003C38
003C38
003C00
003C00
003C00
003C00
003C00
003C00
003C00
003C00
003C00
003C00
003C00
003C00
003C00
003C00
003C00
003C00
003C00
003C00
003C00
003C00
003C00
003C00
003C00
003C00
003C00
003C00
01FF80
FFFFFE
FFFFFE
FFFFFE
ENDCHAR
STARTCHAR 013F
ENCODING 319
SWIDTH 600 0
DWIDTH 30 0
BBX 20 35 6 0
BITMAP
F00000
F00000
F00000
F00000
F00000
F00000
F00000
F00000
F00000
F00000
F00000
F00000
F00080
F003E0
F003F0
F003F0
F003F0
F003F0
F003E0
F00080
F00000
F00000
F00000
F00000
F00000
F00000
F00000
F00000
F00000
F00000
F00000
FFFFF0
FFFFF0
FFFFF0
FFFFF0
ENDCHAR
STARTCHAR 0140
ENCODING 320
SWIDTH 600 0
DWIDTH 30 0
BBX 29 38 4 0
BITMAP
FFFC0000
FFFC0000
FFFC0000
FFFC0000
003C0000
003C0000
003C0000
003C0000
003C0000
003C0000
003C0000
003C0000
003C0000
003C0040
003C00F0
003C01F8
003C01F8
003C01F8
003C01F8
003C00F0
003C0040
003C0000
003C0000
003C0000
003C0000
003C0000
003C0000
003C0000
003C0000
003C0000
003C0000
003C0000
003C0000
003C0000
01FF8000
FFFFFE00
FFFFFE00
FFFFFE00
ENDCHAR
STARTCHAR 0141
ENCODING 321
SWIDTH 600 0
DWIDTH 30 0
BBX 25 35 3 0
BITMAP
07800000
07800000
07800000
07800000
07800000
07800000
07800000
07800000
07800000
07800000
07800000
07800000
07800000
07830000
078F0000
079F8000
07FF0000
07FC0000
07F80000
0FE00000
3F800000
7F800000
FF800000
77800000
47800000
07800000
07800000
07800000
07800000
07800000
07800000
07FFFF80
07FFFF80
07FFFF80
07FFFF80
ENDCHAR
STARTCHAR 0142
ENCODING 322
SWIDTH 600 0
DWIDTH 30 0
BBX 23 38 4 0
BITMAP
FFFC00
FFFC00
FFFC00
FFFC00
003C00
003C00
003C00
003C00
003C00
003C00
003C00
003C00
003C00
003C00
003C20
003CF0
003FF0
003FE0
003FC0
007F00
00FC00
03FC00
07FC00
1FFC00
0F3C00
043C00
003C00
003C00
003C00
003C00
003C00
003C00
003C00
003C00
01FF80
FFFFFE
FFFFFE
FFFFFE
ENDCHAR
STARTCHAR 0143
ENCODING 323
SWIDTH 600 0
DWIDTH 30 0
BBX 24 47 3 0
BITMAP
0001F0
0003F0
0003E0
0007C0
000F80
000F00
001E00
003C00
000000
000000
000000
000000
FE001F
FE001F
FF001F
FF001F
FF001F
F7801F
F7801F
F3C01F
FBC01F
F9E01F
F9E01F
F9F01F
F8F01F
F8F01F
F8781F
F8781F
F83C1F
F83C1F
F81E1F
F81E1F
F80F1F
F80F1F
F80F1F
F8079F
F8079F
F803DF
F803DF
F801FF
F801EF
F800FF
F800FF
F800FF
F8007F
F8007F
F8003F
ENDCHAR
STARTCHAR 0144
ENCODING 324
SWIDTH 600 0
DWIDTH 30 0
BBX 22 38 4 0
BITMAP
0003F0
0007E0
0007C0
000F80
000F00
001E00
003C00
003800
000000
000000
000400
F0FFC0
F3FFE0
F7FFF0
F783F8
FE00FC
FC007C
FC007C
F8003C
F8003C
F8003C
F8003C
F8003C
F8003C
F8003C
F8003C
F8003C
F8003C
F8003C
F8003C
F8003C
F8003C
F8003C
F8003C
F8003C
F8003C
F8003C
F8003C
ENDCHAR
STARTCHAR 0145
ENCODING 325
SWIDTH 600 0
DWIDTH 30 0
BBX 24 46 3 -11
BITMAP
FE001F
FE001F
FF001F
FF001F
FF001F
F7801F
F7801F
F3C01F
FBC01F
F9E01F
F9E01F
F9F01F
F8F01F
F8F01F
F8781F
F8781F
F83C1F
F83C1F
F81E1F
F81E1F
F80F1F
F80F1F
F80F1F
F8079F
F8079F
F803DF
F803DF
F801FF
F801EF
F800FF
F800FF
F800FF
F8007F
F8007F
F8003F
000000
000000
000000
003C00
003C00
007800
007800
007800
007000
00E000
00E000
ENDCHAR
STARTCHAR 0146
ENCODING 326
SWIDTH 600 0
DWIDTH 30 0
BBX 22 39 4 -11
BITMAP
000400
F0FFC0
F3FFE0
F7FFF0
F783F8
FE00FC
FC007C
FC007C
F8003C
F8003C
F8003C
F8003C
F8003C
F8003C
F8003C
F8003C
F8003C
F8003C
F8003C
F8003C
F8003C
F8003C
F8003C
F8003C
F8003C
F8003C
F8003C
F8003C
000000
000000
000000
007C00
007800
007800
00F000
00F000
00E000
00E000
01C000
ENDCHAR
STARTCHAR 0147
ENCODING 327
SWIDTH 600 0
DWIDTH 30 0
BBX 24 47 3 0
BITMAP
0F0078
0780F0
07C3E0
03E7C0
01FF80
00FF00
007E00
003E00
000000
000000
000000
000000
FE001F
FE001F
FF001F
FF001F
FF001F
F7801F
F7801F
F3C01F
FBC01F
F9E01F
F9E01F
F9F01F
F8F01F
F8F01F
F8781F
F8781F
F83C1F
F83C1F
F81E1F
F81E1F
F80F1F
F80F1F
F80F1F
F8079F
F8079F
F803DF
F803DF
F801FF
F801EF
F800FF
F800FF
F800FF
F8007F
F8007F
F8003F
ENDCHAR
STARTCHAR 0148
ENCODING 328
SWIDTH 600 0
DWIDTH 30 0
BBX 22 38 4 0
BITMAP
1E00F0
0F01E0
0783C0
03C780
01EF00
01FF00
00FE00
007C00
000000
000000
000400
F0FFC0
F3FFE0
F7FFF0
F783F8
FE00FC
FC007C
FC007C
F8003C
F8003C
F8003C
F8003C
F8003C
F8003C
F8003C
F8003C
F8003C
F8003C
F8003C
F8003C
F8003C
F8003C
F8003C
F8003C
F8003C
F8003C
F8003C
F8003C
ENDCHAR
STARTCHAR 0149
ENCODING 329
SWIDTH 600 0
DWIDTH 30 0
BBX 29 35 -3 0
BITMAP
1F000000
1F000000
1F000000
3F000000
3E000000
3E000000
3C000000
3C000800
7CE0FF80
78F1FFE0
78F3FFE0
70F7FFF0
80FF03F8
00FE01F8
00FC00F8
00F800F8
00F80078
00F80078
00F00078
00F00078
00F00078
00F00078
00F00078
00F00078
00F00078
00F00078
00F00078
00F00078
00F00078
00F00078
00F00078
00F00078
00F00078
00F00078
00F00078
ENDCHAR
STARTCHAR 014A
ENCODING 330
SWIDTH 600 0
DWIDTH 30 0
BBX 24 44 3 -9
BITMAP
FE001F
FE001F
FF001F
FF001F
FF001F
F7801F
F7801F
F3C01F
FBC01F
F9E01F
F9E01F
F9F01F
F8F01F
F8F01F
F8781F
F8781F
F83C1F
F83C1F
F81E1F
F81E1F
F80F1F
F80F1F
F80F1F
F8079F
F8079F
F803DF
F803DF
F801FF
F801EF
F800FF
F800FF
F800FF
F8007F
F8007F
F8003F
00001E
00001E
00001E
00003E
00007E
003FFC
003FF8
003FF0
001FC0
ENDCHAR
STARTCHAR 014B
ENCODING 331
SWIDTH 600 0
DWIDTH 30 0
BBX 22 40 4 -12
BITMAP
000400
F0FFC0
F3FFE0
F7FFF0
F783F8
FE00FC
FC007C
FC007C
F8003C
F8003C
F8003C
F8003C
F8003C
F8003C
F8003C
F8003C
F8003C
F8003C
F8003C
F8003C
F8003C
F8003C
F8003C
F8003C
F8003C
F8003C
F8003C
F8003C
00003C
00003C
00003C
00003C
00003C
00003C
00007C
00007C
001FF8
001FF8
001FF0
000FC0
ENDCHAR
STARTCHAR 014C
ENCODING 332
SWIDTH 600 0
DWIDTH 30 0
BBX 26 45 2 -1
BITMAP
03FFF000
03FFF000
03FFF000
03FFF000
00000000
00000000
00000000
00000000
00080000
00FFC000
03FFF000
07FFF800
0FE0FC00
1F807E00
1F003E00
3E001F00
3C000F00
7C000F80
7C000F80
78000F80
78000780
78000780
F80007C0
F80007C0
F80007C0
F80007C0
F80007C0
F80007C0
F80007C0
F80007C0
F80007C0
78000780
78000780
78000F80
7C000F80
7C000F80
3C000F00
3E001F00
1F003E00
1F807E00
0FE0FC00
07FFF800
03FFF000
00FFC000
000C0000
ENDCHAR
STARTCHAR 014D
ENCODING 333
SWIDTH 600 0
DWIDTH 30 0
BBX 24 36 3 -1
BITMAP
07FFE0
07FFE0
07FFE0
07FFE0
000000
000000
000000
001000
01FF80
07FFE0
0FFFF0
1F83F8
3E00FC
7C007E
7C003E
78001E
F8001F
F8001F
F0001F
F0000F
F0000F
F0000F
F0000F
F0000F
F0001F
F8001F
F8001F
78001E
7C003E
7C007E
3F00FC
1F81F8
0FFFF0
07FFE0
01FF80
001800
ENDCHAR
STARTCHAR 014E
ENCODING 334
SWIDTH 600 0
DWIDTH 30 0
BBX 26 47 2 -1
BITMAP
07003800
07807800
03807000
03FFF000
01FFE000
00FFC000
007F0000
00000000
00000000
00000000
00080000
00FFC000
03FFF000
07FFF800
0FE0FC00
1F807E00
1F003E00
3E001F00
3C000F00
7C000F80
7C000F80
78000F80
78000780
78000780
F80007C0
F80007C0
F80007C0
F80007C0
F80007C0
F80007C0
F80007C0
F80007C0
F80007C0
78000780
78000780
78000F80
7C000F80
7C000F80
3C000F00
3E001F00
1F003E00
1F807E00
0FE0FC00
07FFF800
03FFF000
00FFC000
000C0000
ENDCHAR
STARTCHAR 014F
ENCODING 335
SWIDTH 600 0
DWIDTH 30 0
BBX 24 38 3 -1
BITMAP
0E0070
0F00F0
0700E0
07FFE0
03FFC0
01FF80
00FE00
000000
000000
001000
01FF80
07FFE0
0FFFF0
1F83F8
3E00FC
7C007E
7C003E
78001E
F8001F
F8001F
F0001F
F0000F
F0000F
F0000F
F0000F
F0000F
F0001F
F8001F
F8001F
78001E
7C003E
7C007E
3F00FC
1F81F8
0FFFF0
07FFE0
01FF80
001800
ENDCHAR
STARTCHAR 0150
ENCODING 336
SWIDTH 600 0
DWIDTH 30 0
BBX 26 48 2 -1
BITMAP
007C3E00
007C7C00
00F87C00
01F0F800
01E0F000
03C1E000
0383C000
07038000
00000000
00000000
00000000
00080000
00FFC000
03FFF000
07FFF800
0FE0FC00
1F807E00
1F003E00
3E001F00
3C000F00
7C000F80
7C000F80
78000F80
78000780
78000780
F80007C0
F80007C0
F80007C0
F80007C0
F80007C0
F80007C0
F80007C0
F80007C0
F80007C0
78000780
78000780
78000F80
7C000F80
7C000F80
3C000F00
3E001F00
1F003E00
1F807E00
0FE0FC00
07FFF800
03FFF000
00FFC000
000C0000
ENDCHAR
STARTCHAR 0151
ENCODING 337
SWIDTH 600 0
DWIDTH 30 0
BBX 24 39 3 -1
BITMAP
00F87C
00F8F8
01F0F8
03E1F0
03C1E0
0783C0
070780
0E0700
000000
000000
001000
01FF80
07FFE0
0FFFF0
1F83F8
3E00FC
7C007E
7C003E
78001E
F8001F
F8001F
F0001F
F0000F
F0000F
F0000F
F0000F
F0000F
F0001F
F8001F
F8001F
78001E
7C003E
7C007E
3F00FC
1F81F8
0FFFF0
07FFE0
01FF80
001800
ENDCHAR
STARTCHAR 0152
ENCODING 338
SWIDTH 600 0
DWIDTH 30 0
BBX 27 37 2 -1
BITMAP
00200000
03FFFFE0
07FFFFE0
0FFFFFE0
1F8FFFE0
3E07C000
3E07C000
3C07C000
7C07C000
7807C000
7807C000
F807C000
F807C000
F807C000
F807C000
F807C000
F807FFC0
F807FFC0
F807FFC0
F807FFC0
F807C000
F807C000
F807C000
F807C000
F807C000
7807C000
7807C000
7807C000
7C07C000
7C07C000
3E07C000
3E07C000
1F87FFE0
0FFFFFE0
0FFFFFE0
03FFFFE0
00400000
ENDCHAR
STARTCHAR 0153
ENCODING 339
SWIDTH 600 0
DWIDTH 30 0
BBX 28 29 1 -1
BITMAP
00800800
07F03F00
1FF87F80
1FFCFFC0
3E3DE3E0
7C1FC1E0
780FC1E0
780F80E0
780F80F0
F00780F0
F00780F0
F00780F0
F007FFF0
F007FFF0
F007FFF0
F007FFF0
F0078000
F0078000
F0078000
F0078000
780F8000
780FC000
780FC000
3C1FE020
3E3DF0E0
1FFCFFE0
0FF87FE0
07F03FC0
00800400
ENDCHAR
STARTCHAR 0154
ENCODING 340
SWIDTH 600 0
DWIDTH 30 0
BBX 23 47 5 0
BITMAP
000FC0
000F80
001F80
001F00
003E00
007C00
007800
00F000
000000
000000
000000
000000
FFF800
FFFF00
FFFFC0
FFFFE0
F007E0
F003F0
F001F0
F000F0
F000F8
F000F8
F000F8
F000F8
F000F0
F001F0
F001F0
F003E0
F00FC0
FFFF80
FFFF00
FFFC00
FFFE00
F03E00
F01F00
F00F00
F00F80
F007C0
F007C0
F003E0
F001E0
F001F0
F000F8
F000F8
F0007C
F0003E
F0003E
ENDCHAR
STARTCHAR 0155
ENCODING 341
SWIDTH 600 0
DWIDTH 30 0
BBX 26 38 3 0
BITMAP
0000FC00
0000F800
0001F800
0001F000
0003E000
0007C000
00078000
000F0000
00000000
00000000
00000800
7FF0FFC0
7FF1FF80
7FF3FF80
00F7C180
00F70000
00FE0000
00FE0000
00FC0000
00FC0000
00F80000
00F80000
00F80000
00F80000
00F80000
00F80000
00F80000
00F80000
00F80000
00F80000
00F80000
00F80000
00F80000
00F80000
07FF0000
FFFFF800
FFFFF800
FFFFF800
ENDCHAR
STARTCHAR 0156
ENCODING 342
SWIDTH 600 0
DWIDTH 30 0
BBX 23 46 5 -11
BITMAP
FFF800
FFFF00
FFFFC0
FFFFE0
F007E0
F003F0
F001F0
F000F0
F000F8
F000F8
F000F8
F000F8
F000F0
F001F0
F001F0
F003E0
F00FC0
FFFF80
FFFF00
FFFC00
FFFE00
F03E00
F01F00
F00F00
F00F80
F007C0
F007C0
F003E0
F001E0
F001F0
F000F8
F000F8
F0007C
F0003E
F0003E
000000
000000
000000
007C00
007800
007800
007800
00F000
00E000
00E000
01C000
ENDCHAR
STARTCHAR 0157
ENCODING 343
SWIDTH 600 0
DWIDTH 30 0
BBX 26 39 3 -11
BITMAP
00000800
7FF0FFC0
7FF1FF80
7FF3FF80
00F7C180
00F70000
00FE0000
00FE0000
00FC0000
00FC0000
00F80000
00F80000
00F80000
00F80000
00F80000
00F80000
00F80000
00F80000
00F80000
00F80000
00F80000
00F80000
00F80000
00F80000
07FF0000
FFFFF800
FFFFF800
FFFFF800
00000000
00000000
00000000
00F80000
00F00000
00F00000
00F00000
01E00000
01E00000
01C00000
03800000
ENDCHAR
STARTCHAR 0158
ENCODING 344
SWIDTH 600 0
DWIDTH 30 0
BBX 23 47 5 0
BITMAP
3801C0
3E07C0
1F0F80
0F9F00
07FE00
03FC00
01F800
01F800
000000
000000
000000
000000
FFF800
FFFF00
FFFFC0
FFFFE0
F007E0
F003F0
F001F0
F000F0
F000F8
F000F8
F000F8
F000F8
F000F0
F001F0
F001F0
F003E0
F00FC0
FFFF80
FFFF00
FFFC00
FFFE00
F03E00
F01F00
F00F00
F00F80
F007C0
F007C0
F003E0
F001E0
F001F0
F000F8
F000F8
F0007C
F0003E
F0003E
ENDCHAR
STARTCHAR 0159
ENCODING 345
SWIDTH 600 0
DWIDTH 30 0
BBX 26 38 3 0
BITMAP
03801C00
03E07C00
01F0F800
00F9F000
007FE000
003FC000
001F8000
001F8000
00000000
00000000
00000800
7FF0FFC0
7FF1FF80
7FF3FF80
00F7C180
00F70000
00FE0000
00FE0000
00FC0000
00FC0000
00F80000
00F80000
00F80000
00F80000
00F80000
00F80000
00F80000
00F80000
00F80000
00F80000
00F80000
00F80000
00F80000
00F80000
07FF0000
FFFFF800
FFFFF800
FFFFF800
ENDCHAR
STARTCHAR 015A
ENCODING 346
SWIDTH 600 0
DWIDTH 30 0
BBX 22 48 4 -1
BITMAP
0003F0
0003E0
0007C0
0007C0
000F80
001F00
001E00
003800
000000
000000
000000
000800
01FFE0
07FFFC
1FFFF8
1FC0F8
3E0018
3C0000
7C0000
7C0000
7C0000
7C0000
7C0000
7C0000
3E0000
3F8000
1FE000
0FF800
07FF00
01FF80
007FE0
001FF0
0007F8
0001FC
00007C
00007C
00003C
00003C
00003C
00003C
00007C
00007C
C000F8
FC03F8
FFFFF0
FFFFE0
3FFF80
006000
ENDCHAR
STARTCHAR 015B
ENCODING 347
SWIDTH 600 0
DWIDTH 30 0
BBX 20 39 5 -1
BITMAP
0007C0
000FC0
000F80
001F00
003E00
003C00
007800
00F000
000000
000000
002000
07FFC0
1FFFE0
3FFFE0
7F03E0
7C0040
780000
780000
780000
7C0000
7E0000
3F8000
1FE000
0FFC00
03FF00
00FF80
003FC0
0007E0
0003F0
0001F0
0001F0
0001F0
0001F0
C003E0
F80FE0
FFFFC0
FFFF80
3FFE00
00C000
ENDCHAR
STARTCHAR 015C
ENCODING 348
SWIDTH 600 0
DWIDTH 30 0
BBX 22 48 4 -1
BITMAP
007C00
007E00
00FF00
01FF80
03E7C0
07C3E0
0F01E0
1E0070
000000
000000
000000
000800
01FFE0
07FFFC
1FFFF8
1FC0F8
3E0018
3C0000
7C0000
7C0000
7C0000
7C0000
7C0000
7C0000
3E0000
3F8000
1FE000
0FF800
07FF00
01FF80
007FE0
001FF0
0007F8
0001FC
00007C
00007C
00003C
00003C
00003C
00003C
00007C
00007C
C000F8
FC03F8
FFFFF0
FFFFE0
3FFF80
006000
ENDCHAR
STARTCHAR 015D
ENCODING 349
SWIDTH 600 0
DWIDTH 30 0
BBX 20 39 5 -1
BITMAP
00F800
01F800
03FC00
07FE00
0F9F00
0F0F80
1E03C0
3C01E0
000000
000000
002000
07FFC0
1FFFE0
3FFFE0
7F03E0
7C0040
780000
780000
780000
7C0000
7E0000
3F8000
1FE000
0FFC00
03FF00
00FF80
003FC0
0007E0
0003F0
0001F0
0001F0
0001F0
0001F0
C003E0
F80FE0
FFFFC0
FFFF80
3FFE00
00C000
ENDCHAR
STARTCHAR 015E
ENCODING 350
SWIDTH 600 0
DWIDTH 30 0
BBX 22 48 4 -12
BITMAP
000800
01FFE0
07FFFC
1FFFF8
1FC0F8
3E0018
3C0000
7C0000
7C0000
7C0000
7C0000
7C0000
7C0000
3E0000
3F8000
1FE000
0FF800
07FF00
01FF80
007FE0
001FF0
0007F8
0001FC
00007C
00007C
00003C
00003C
00003C
00003C
00007C
00007C
C000F8
FC03F8
FFFFF0
FFFFE0
3FFF80
007000
007000
007000
00F800
00FE00
001E00
000F00
000F00
000E00
03FE00
03FC00
03F000
ENDCHAR
STARTCHAR 015F
ENCODING 351
SWIDTH 600 0
DWIDTH 30 0
BBX 20 40 5 -12
BITMAP
002000
07FFC0
1FFFE0
3FFFE0
7F03E0
7C0040
780000
780000
780000
7C0000
7E0000
3F8000
1FE000
0FFC00
03FF00
00FF80
003FC0
0007E0
0003F0
0001F0
0001F0
0001F0
0001F0
C003E0
F80FE0
FFFFC0
FFFF80
3FFE00
00F000
00E000
00E000
01F000
01FC00
003E00
001E00
001E00
001E00
07FC00
07F800
07F000
ENDCHAR
STARTCHAR 0160
ENCODING 352
SWIDTH 600 0
DWIDTH 30 0
BBX 22 48 4 -1
BITMAP
1E0070
0F81F0
07C3E0
03E7C0
01FF80
00FF00
007E00
007C00
000000
000000
000000
000800
01FFE0
07FFFC
1FFFF8
1FC0F8
3E0018
3C0000
7C0000
7C0000
7C0000
7C0000
7C0000
7C0000
3E0000
3F8000
1FE000
0FF800
07FF00
01FF80
007FE0
001FF0
0007F8
0001FC
00007C
00007C
00003C
00003C
00003C
00003C
00007C
00007C
C000F8
FC03F8
FFFFF0
FFFFE0
3FFF80
006000
ENDCHAR
STARTCHAR 0161
ENCODING 353
SWIDTH 600 0
DWIDTH 30 0
BBX 20 39 5 -1
BITMAP
3C01E0
1E03C0
1F0F80
0F9F00
07FE00
03FC00
01F800
00F800
000000
000000
002000
07FFC0
1FFFE0
3FFFE0
7F03E0
7C0040
780000
780000
780000
7C0000
7E0000
3F8000
1FE000
0FFC00
03FF00
00FF80
003FC0
0007E0
0003F0
0001F0
0001F0
0001F0
0001F0
C003E0
F80FE0
FFFFC0
FFFF80
3FFE00
00C000
ENDCHAR
STARTCHAR 0162
ENCODING 354
SWIDTH 600 0
DWIDTH 30 0
BBX 26 47 2 -12
BITMAP
FFFFFFC0
FFFFFFC0
FFFFFFC0
FFFFFFC0
001E0000
001E0000
001E0000
001E0000
001E0000
001E0000
001E0000
001E0000
001E0000
001E0000
001E0000
001E0000
001E0000
001E0000
001E0000
001E0000
001E0000
001E0000
001E0000
001E0000
001E0000
001E0000
001E0000
001E0000
001E0000
001E0000
001E0000
001E0000
001E0000
001E0000
001E0000
001C0000
001C0000
001C0000
003E0000
003F8000
00078000
0003C000
0003C000
00038000
00FF8000
00FF0000
00FC0000
ENDCHAR
STARTCHAR 0163
ENCODING 355
SWIDTH 600 0
DWIDTH 30 0
BBX 23 46 3 -12
BITMAP
00F000
00F000
00F000
00F000
01F000
01F000
01F000
7FFFFC
FFFFFC
FFFFFC
FFFFFC
01F000
01F000
01F000
01F000
01F000
01F000
01F000
01F000
01F000
01F000
01F000
01F000
01F000
01F000
01F000
01F000
01F000
01F000
00F800
00FE06
007FFE
003FFE
001FFE
0003C0
000380
000700
0007C0
000FE0
0000F0
000070
000070
0000F0
003FF0
003FE0
003F80
ENDCHAR
STARTCHAR 0164
ENCODING 356
SWIDTH 600 0
DWIDTH 30 0
BBX 26 47 2 0
BITMAP
07003800
07C0F800
03E1F000
01F3E000
00FFC000
007F8000
003F0000
003F0000
00000000
00000000
00000000
00000000
FFFFFFC0
FFFFFFC0
FFFFFFC0
FFFFFFC0
001E0000
001E0000
001E0000
001E0000
001E0000
001E0000
001E0000
001E0000
001E0000
001E0000
001E0000
001E0000
001E0000
001E0000
001E0000
001E0000
001E0000
001E0000
001E0000
001E0000
001E0000
001E0000
001E0000
001E0000
001E0000
001E0000
001E0000
001E0000
001E0000
001E0000
001E0000
ENDCHAR
STARTCHAR 0165
ENCODING 357
SWIDTH 600 0
DWIDTH 30 0
BBX 23 39 3 -1
BITMAP
00003E
00003C
00003C
000038
000078
00F078
00F070
00F060
01F000
01F000
01F000
7FFFFC
FFFFFC
FFFFFC
FFFFFC
01F000
01F000
01F000
01F000
01F000
01F000
01F000
01F000
01F000
01F000
01F000
01F000
01F000
01F000
01F000
01F000
01F000
01F000
00F800
00FE06
007FFE
003FFE
001FFE
0000C0
ENDCHAR
STARTCHAR 0166
ENCODING 358
SWIDTH 600 0
DWIDTH 30 0
BBX 26 35 2 0
BITMAP
FFFFFFC0
FFFFFFC0
FFFFFFC0
FFFFFFC0
001E0000
001E0000
001E0000
001E0000
001E0000
001E0000
001E0000
001E0000
001E0000
001E0000
001E0000
1FFFFE00
1FFFFE00
1FFFFE00
1FFFFE00
001E0000
001E0000
001E0000
001E0000
001E0000
001E0000
001E0000
001E0000
001E0000
001E0000
001E0000
001E0000
001E0000
001E0000
001E0000
001E0000
ENDCHAR
STARTCHAR 0167
ENCODING 359
SWIDTH 600 0
DWIDTH 30 0
BBX 23 35 3 -1
BITMAP
00F000
00F000
00F000
00F000
01F000
01F000
01F000
7FFFFC
FFFFFC
FFFFFC
FFFFFC
01F000
01F000
01F000
01F000
01F000
01F000
FFFFFE
FFFFFE
FFFFFE
FFFFFE
01F000
01F000
01F000
01F000
01F000
01F000
01F000
01F000
00F800
00FE06
007FFE
003FFE
001FFE
0000C0
ENDCHAR
STARTCHAR 0168
ENCODING 360
SWIDTH 600 0
DWIDTH 30 0
BBX 24 47 3 -1
BITMAP
008038
07F038
0FF838
0FFFF0
1E3FF0
1C0FE0
1C07C0
000000
000000
000000
000000
F8001F
F8001F
F8001F
F8001F
F8001F
F8001F
F8001F
F8001F
F8001F
F8001F
F8001F
F8001F
F8001F
F8001F
F8001F
F8001F
F8001F
F8001F
F8001F
F8001F
F8001F
F8001F
F8001F
78001E
78001E
78001E
78001E
7C003E
7C003E
3E007C
3F007C
1F81F8
0FFFF0
07FFE0
03FFC0
001800
ENDCHAR
STARTCHAR 0169
ENCODING 361
SWIDTH 600 0
DWIDTH 30 0
BBX 22 38 4 -1
BITMAP
010070
0FE070
1FF070
1FFFE0
3C7FE0
381FC0
380F80
000000
000000
000000
F0007C
F0007C
F0007C
F0007C
F0007C
F0007C
F0007C
F0007C
F0007C
F0007C
F0007C
F0007C
F0007C
F0007C
F0007C
F0007C
F0007C
F0007C
F0007C
F0007C
F800FC
F800FC
FC01FC
7F07BC
7FFFBC
3FFF3C
0FFC3C
00C000
ENDCHAR
STARTCHAR 016A
ENCODING 362
SWIDTH 600 0
DWIDTH 30 0
BBX 24 45 3 -1
BITMAP
07FFE0
07FFE0
07FFE0
07FFE0
000000
000000
000000
000000
000000
F8001F
F8001F
F8001F
F8001F
F8001F
F8001F
F8001F
F8001F
F8001F
F8001F
F8001F
F8001F
F8001F
F8001F
F8001F
F8001F
F8001F
F8001F
F8001F
F8001F
F8001F
F8001F
F8001F
78001E
78001E
78001E
78001E
7C003E
7C003E
3E007C
3F007C
1F81F8
0FFFF0
07FFE0
03FFC0
001800
ENDCHAR
STARTCHAR 016B
ENCODING 363
SWIDTH 600 0
DWIDTH 30 0
BBX 22 36 4 -1
BITMAP
0FFFC0
0FFFC0
0FFFC0
0FFFC0
000000
000000
000000
000000
F0007C
F0007C
F0007C
F0007C
F0007C
F0007C
F0007C
F0007C
F0007C
F0007C
F0007C
F0007C
F0007C
F0007C
F0007C
F0007C
F0007C
F0007C
F0007C
F0007C
F800FC
F800FC
FC01FC
7F07BC
7FFFBC
3FFF3C
0FFC3C
00C000
ENDCHAR
STARTCHAR 016C
ENCODING 364
SWIDTH 600 0
DWIDTH 30 0
BBX 24 47 3 -1
BITMAP
0E0070
0F00F0
0700E0
07FFE0
03FFC0
01FF80
00FE00
000000
000000
000000
000000
F8001F
F8001F
F8001F
F8001F
F8001F
F8001F
F8001F
F8001F
F8001F
F8001F
F8001F
F8001F
F8001F
F8001F
F8001F
F8001F
F8001F
F8001F
F8001F
F8001F
F8001F
F8001F
F8001F
78001E
78001E
78001E
78001E
7C003E
7C003E
3E007C
3F007C
1F81F8
0FFFF0
07FFE0
03FFC0
001800
ENDCHAR
STARTCHAR 016D
ENCODING 365
SWIDTH 600 0
DWIDTH 30 0
BBX 22 38 4 -1
BITMAP
1C00E0
1E01E0
0E01C0
0FFFC0
07FF80
03FF00
01FC00
000000
000000
000000
F0007C
F0007C
F0007C
F0007C
F0007C
F0007C
F0007C
F0007C
F0007C
F0007C
F0007C
F0007C
F0007C
F0007C
F0007C
F0007C
F0007C
F0007C
F0007C
F0007C
F800FC
F800FC
FC01FC
7F07BC
7FFFBC
3FFF3C
0FFC3C
00C000
ENDCHAR
STARTCHAR 016E
ENCODING 366
SWIDTH 600 0
DWIDTH 30 0
BBX 24 51 3 -1
BITMAP
003C00
00FF00
01FF80
01C380
018380
0381C0
018180
01C380
01FF80
00FF00
007E00
000000
000000
000000
000000
F8001F
F8001F
F8001F
F8001F
F8001F
F8001F
F8001F
F8001F
F8001F
F8001F
F8001F
F8001F
F8001F
F8001F
F8001F
F8001F
F8001F
F8001F
F8001F
F8001F
F8001F
F8001F
F8001F
78001E
78001E
78001E
78001E
7C003E
7C003E
3E007C
3F007C
1F81F8
0FFFF0
07FFE0
03FFC0
001800
ENDCHAR
STARTCHAR 016F
ENCODING 367
SWIDTH 600 0
DWIDTH 30 0
BBX 22 42 4 -1
BITMAP
007800
01FE00
03FF00
038700
030700
070380
030300
038700
03FF00
01FE00
00FC00
000000
000000
000000
F0007C
F0007C
F0007C
F0007C
F0007C
F0007C
F0007C
F0007C
F0007C
F0007C
F0007C
F0007C
F0007C
F0007C
F0007C
F0007C
F0007C
F0007C
F0007C
F0007C
F800FC
F800FC
FC01FC
7F07BC
7FFFBC
3FFF3C
0FFC3C
00C000
ENDCHAR
STARTCHAR 0170
ENCODING 368
SWIDTH 600 0
DWIDTH 30 0
BBX 24 48 3 -1
BITMAP
00F87C
00F8F8
01F0F8
03E1F0
03C1E0
0783C0
070780
0E0700
000000
000000
000000
000000
F8001F
F8001F
F8001F
F8001F
F8001F
F8001F
F8001F
F8001F
F8001F
F8001F
F8001F
F8001F
F8001F
F8001F
F8001F
F8001F
F8001F
F8001F
F8001F
F8001F
F8001F
F8001F
F8001F
78001E
78001E
78001E
78001E
7C003E
7C003E
3E007C
3F007C
1F81F8
0FFFF0
07FFE0
03FFC0
001800
ENDCHAR
STARTCHAR 0171
ENCODING 369
SWIDTH 600 0
DWIDTH 30 0
BBX 22 39 4 -1
BITMAP
01F0F8
01F1F0
03E1F0
07C3E0
0783C0
0F0780
0E0F00
1C0E00
000000
000000
000000
F0007C
F0007C
F0007C
F0007C
F0007C
F0007C
F0007C
F0007C
F0007C
F0007C
F0007C
F0007C
F0007C
F0007C
F0007C
F0007C
F0007C
F0007C
F0007C
F0007C
F800FC
F800FC
FC01FC
7F07BC
7FFFBC
3FFF3C
0FFC3C
00C000
ENDCHAR
STARTCHAR 0172
ENCODING 370
SWIDTH 600 0
DWIDTH 30 0
BBX 24 46 3 -11
BITMAP
F8001F
F8001F
F8001F
F8001F
F8001F
F8001F
F8001F
F8001F
F8001F
F8001F
F8001F
F8001F
F8001F
F8001F
F8001F
F8001F
F8001F
F8001F
F8001F
F8001F
F8001F
F8001F
F8001F
78001E
78001E
78001E
78001E
7C003E
7C003E
3E007C
3F007C
1F81F8
0FFFF0
07FFE0
03FFC0
001F00
001E00
003C00
007800
007000
007000
007000
007800
007F80
003F80
001F80
ENDCHAR
STARTCHAR 0173
ENCODING 371
SWIDTH 600 0
DWIDTH 30 0
BBX 23 38 4 -11
BITMAP
F0007C
F0007C
F0007C
F0007C
F0007C
F0007C
F0007C
F0007C
F0007C
F0007C
F0007C
F0007C
F0007C
F0007C
F0007C
F0007C
F0007C
F0007C
F0007C
F0007C
F800FC
F800FC
FC01FC
7F07BC
7FFFBC
3FFF3C
0FFC3C
00C038
000070
0000F0
0000E0
0001E0
0001C0
0001C0
0001E0
0001FE
0000FE
00007E
ENDCHAR
STARTCHAR 0174
ENCODING 372
SWIDTH 600 0
DWIDTH 30 0
BBX 28 47 1 0
BITMAP
001F0000
001F8000
003FC000
007FE000
00F9F000
01F0F800
03E07C00
03801C00
00000000
00000000
00000000
00000000
F00000F0
F80001F0
780001F0
780001E0
780001E0
780001E0
780001E0
780001E0
780F01E0
780F81E0
781F81E0
3C1F81E0
3C1F83C0
3C1FC3C0
3C3FC3C0
3C3DC3C0
3C39C3C0
3C39C3C0
3C79E3C0
3C78E3C0
1C70E3C0
1C70E3C0
1C70F380
1EF07380
1EE07380
1EE07380
1EE07F80
1EE07F80
0FE03F80
0FC03F80
0FC03F80
0FC03F80
0FC01F00
0F801F00
0F801F00
ENDCHAR
STARTCHAR 0175
ENCODING 373
SWIDTH 600 0
DWIDTH 30 0
BBX 28 38 1 0
BITMAP
001F8000
001F8000
003FC000
007FE000
00F9F000
01F0F800
03E07C00
03801E00
00000000
00000000
00000000
F00000F0
F00000F0
F00000F0
F80000F0
780001F0
781F81E0
781F81E0
781F81E0
781F81E0
783FC1E0
7C3FC3E0
3C39C3C0
3C79C3C0
3C79E3C0
3C79E3C0
3C70E3C0
3CF0F3C0
1CF0F380
1EF0F780
1EE07780
1FE07780
1FE07F80
1FE07F80
0FC03F00
0FC03F00
0FC03F00
0F803F00
ENDCHAR
STARTCHAR 0176
ENCODING 374
SWIDTH 600 0
DWIDTH 30 0
BBX 26 47 2 0
BITMAP
003E0000
003F0000
007F8000
00FFC000
01F3E000
03E1F000
07C0F800
07003800
00000000
00000000
00000000
00000000
F80007C0
78000780
7C000F80
3C000F00
3E001F00
1E001E00
1F003E00
0F003C00
0F807C00
07807800
07C0F800
03C0F000
03E0F000
01E1E000
01F1E000
00F3C000
00F3C000
007F8000
007F8000
003F0000
003F0000
001E0000
001E0000
001E0000
001E0000
001E0000
001E0000
001E0000
001E0000
001E0000
001E0000
001E0000
001E0000
001E0000
001E0000
ENDCHAR
STARTCHAR 0177
ENCODING 375
SWIDTH 600 0
DWIDTH 30 0
BBX 26 50 2 -12
BITMAP
003E0000
003F0000
007F8000
00FFC000
01F3E000
03E1F000
07C0F800
07003800
00000000
00000000
00000000
F80007C0
78000780
7C000F80
3C000F00
3C000F00
1E001F00
1E001E00
1F001E00
0F003E00
0F803C00
07803C00
07807800
07C07800
03C07800
03E0F000
01E0F000
01E0F000
00F1E000
00F1E000
00F1C000
007BC000
007BC000
003B8000
003F8000
003F8000
001F0000
001F0000
001E0000
001E0000
003E0000
003C0000
003C0000
007C0000
00F80000
01F80000
7FF00000
7FE00000
7FC00000
7F000000
ENDCHAR
STARTCHAR 0178
ENCODING 376
SWIDTH 600 0
DWIDTH 30 0
BBX 26 46 2 0
BITMAP
03807000
07C0F800
07C0F800
07C0F800
07C0F800
03807000
00000000
00000000
00000000
00000000
00000000
F80007C0
78000780
7C000F80
3C000F00
3E001F00
1E001E00
1F003E00
0F003C00
0F807C00
07807800
07C0F800
03C0F000
03E0F000
01E1E000
01F1E000
00F3C000
00F3C000
007F8000
007F8000
003F0000
003F0000
001E0000
001E0000
001E0000
001E0000
001E0000
001E0000
001E0000
001E0000
001E0000
001E0000
001E0000
001E0000
001E0000
001E0000
ENDCHAR
STARTCHAR 0179
ENCODING 377
SWIDTH 600 0
DWIDTH 30 0
BBX 20 47 5 0
BITMAP
0007E0
000FC0
000F80
001F00
001E00
003C00
007800
007000
000000
000000
000000
000000
7FFFF0
7FFFF0
7FFFF0
7FFFF0
0001F0
0001E0
0003C0
0007C0
000780
000F80
000F00
001F00
001E00
003E00
007C00
007800
00F800
00F000
01F000
01E000
03E000
03C000
07C000
0F8000
0F0000
1F0000
1E0000
3E0000
3C0000
7C0000
F80000
FFFFF0
FFFFF0
FFFFF0
FFFFF0
ENDCHAR
STARTCHAR 017A
ENCODING 378
SWIDTH 600 0
DWIDTH 30 0
BBX 22 38 4 0
BITMAP
0003F0
0007E0
0007C0
000F80
001F00
001E00
003C00
007800
000000
000000
000000
7FFFF8
7FFFF8
7FFFF8
7FFFF8
0000F8
0001F0
0003E0
0007C0
000F80
000F80
001F00
003E00
007C00
007C00
00F800
01F000
03E000
03C000
07C000
0F8000
1F0000
1E0000
3E0000
7FFFFC
FFFFFC
FFFFFC
FFFFFC
ENDCHAR
STARTCHAR 017B
ENCODING 379
SWIDTH 600 0
DWIDTH 30 0
BBX 20 46 5 0
BITMAP
007000
00F800
01FC00
01FC00
00F800
007000
000000
000000
000000
000000
000000
7FFFF0
7FFFF0
7FFFF0
7FFFF0
0001F0
0001E0
0003C0
0007C0
000780
000F80
000F00
001F00
001E00
003E00
007C00
007800
00F800
00F000
01F000
01E000
03E000
03C000
07C000
0F8000
0F0000
1F0000
1E0000
3E0000
3C0000
7C0000
F80000
FFFFF0
FFFFF0
FFFFF0
FFFFF0
ENDCHAR
STARTCHAR 017C
ENCODING 380
SWIDTH 600 0
DWIDTH 30 0
BBX 22 37 4 0
BITMAP
003800
007C00
00FE00
00FE00
007C00
003800
000000
000000
000000
000000
7FFFF8
7FFFF8
7FFFF8
7FFFF8
0000F8
0001F0
0003E0
0007C0
000F80
000F80
001F00
003E00
007C00
007C00
00F800
01F000
03E000
03C000
07C000
0F8000
1F0000
1E0000
3E0000
7FFFFC
FFFFFC
FFFFFC
FFFFFC
ENDCHAR
STARTCHAR 017D
ENCODING 381
SWIDTH 600 0
DWIDTH 30 0
BBX 20 47 5 0
BITMAP
3C01E0
1E03C0
0F0780
078F00
03DE00
03FE00
01FC00
00F800
000000
000000
000000
000000
7FFFF0
7FFFF0
7FFFF0
7FFFF0
0001F0
0001E0
0003C0
0007C0
000780
000F80
000F00
001F00
001E00
003E00
007C00
007800
00F800
00F000
01F000
01E000
03E000
03C000
07C000
0F8000
0F0000
1F0000
1E0000
3E0000
3C0000
7C0000
F80000
FFFFF0
FFFFF0
FFFFF0
FFFFF0
ENDCHAR
STARTCHAR 017E
ENCODING 382
SWIDTH 600 0
DWIDTH 30 0
BBX 22 38 4 0
BITMAP
1E00F0
0F01E0
0783C0
03C780
01EF00
01FE00
00FE00
007C00
000000
000000
000000
7FFFF8
7FFFF8
7FFFF8
7FFFF8
0000F8
0001F0
0003E0
0007C0
000F80
000F80
001F00
003E00
007C00
007C00
00F800
01F000
03E000
03C000
07C000
0F8000
1F0000
1E0000
3E0000
7FFFFC
FFFFFC
FFFFFC
FFFFFC
ENDCHAR
STARTCHAR 017F
ENCODING 383
SWIDTH 600 0
DWIDTH 30 0
BBX 16 38 11 0
BITMAP
03FE
0FFF
3FFF
7FFF
7E01
7C00
F800
F800
F800
F000
F000
F000
F000
F000
F000
F000
F000
F000
F000
F000
F000
F000
F000
F000
F000
F000
F000
F000
F000
F000
F000
F000
F000
F000
F000
F000
F000
F000
ENDCHAR
STARTCHAR 0180
ENCODING 384
SWIDTH 600 0
DWIDTH 30 0
BBX 27 39 0 -1
BITMAP
0F000000
0F000000
0F000000
0F000000
FFFFC000
FFFFC000
FFFFC000
FFFFC000
0F000000
0F000000
0F008000
0F0FF800
0F3FFE00
0F7FFF00
0FF83F80
0FE00F80
0FC007C0
0FC007C0
0F8003E0
0F8003E0
0F8003E0
0F8003E0
0F0001E0
0F0001E0
0F0001E0
0F0001E0
0F0001E0
0F8003E0
0F8003E0
0F8003E0
0F8003E0
0FC007C0
0FC007C0
0FE00F80
0FF83F80
0F7FFF00
0F3FFE00
0F0FF800
00008000
ENDCHAR
STARTCHAR 0181
ENCODING 385
SWIDTH 600 0
DWIDTH 30 0
BBX 28 35 0 0
BITMAP
0FFFF000
3FFFFE00
7FFFFF80
7FFFFFC0
78F00FE0
F8F003E0
78F003E0
78F001E0
78F001E0
00F001E0
00F001E0
00F003E0
00F003E0
00F007C0
00F01F80
00FFFF00
00FFF800
00FFFF00
00FFFFC0
00F007E0
00F003E0
00F001F0
00F001F0
00F000F0
00F000F0
00F000F0
00F000F0
00F001F0
00F001F0
00F003E0
00F007E0
00FFFFC0
00FFFF80
00FFFF00
00FFF800
ENDCHAR
STARTCHAR 0182
ENCODING 386
SWIDTH 600 0
DWIDTH 30 0
BBX 22 35 5 0
BITMAP
FFFFF0
FFFFF0
FFFFF0
FFFFF0
F00000
F00000
F00000
F00000
F00000
F00000
F00000
F00000
F00000
F00000
FFF000
FFFF80
FFFFE0
FFFFF0
F003F8
F000F8
F0007C
F0007C
F0003C
F0003C
F0003C
F0003C
F0003C
F0007C
F0007C
F000F8
F001F8
FFFFF0
FFFFE0
FFFFC0
FFFE00
ENDCHAR
STARTCHAR 0183
ENCODING 387
SWIDTH 600 0
DWIDTH 30 0
BBX 23 39 4 -1
BITMAP
FFFFF0
FFFFF0
FFFFF0
FFFFF0
F00000
F00000
F00000
F00000
F00000
F00000
F00800
F0FF80
F3FFE0
F7FFF0
FF83F8
FE00F8
FC007C
FC007C
F8003E
F8003E
F8003E
F8003E
F0001E
F0001E
F0001E
F0001E
F0001E
F8003E
F8003E
F8003E
F8003E
FC007C
FC007C
FE00F8
FF83F8
F7FFF0
F3FFE0
F0FF80
000800
ENDCHAR
STARTCHAR 0184
ENCODING 388
SWIDTH 600 0
DWIDTH 30 0
BBX 22 36 5 -1
BITMAP
F00000
F00000
F00000
F00000
F00000
F00000
F00000
F00000
F00000
F00000
F00000
F00000
F00000
F00000
FFF000
FFFF80
FFFFE0
FFFFF0
F003F8
F000F8
F0007C
F0007C
F0003C
F0003C
F0003C
F0003C
F0003C
F8007C
F8007C
FC00F8
7E00F8
7F07F0
3FFFE0
1FFFC0
07FF00
002000
ENDCHAR
STARTCHAR 0185
ENCODING 389
SWIDTH 600 0
DWIDTH 30 0
BBX 23 39 4 -1
BITMAP
F00000
F00000
F00000
F00000
F00000
F00000
F00000
F00000
F00000
F00000
F00800
F0FF80
F3FFE0
F7FFF0
F783F8
FE00F8
FC007C
FC007C
F8003C
F8003E
F8003E
F8003E
F0001E
F0001E
F0001E
F0001E
F0001E
F8003E
F8003E
F8003E
78003C
7C007C
7C007C
3E00F8
1F83F0
1FFFF0
07FFC0
03FF80
003000
ENDCHAR
STARTCHAR 0186
ENCODING 390
SWIDTH 600 0
DWIDTH 30 0
BBX 25 37 2 -1
BITMAP
00400000
1FFE0000
FFFF8000
7FFFE000
7C0FF000
2001F800
0000FC00
00007C00
00003E00
00003E00
00001F00
00001F00
00001F00
00000F00
00000F00
00000F80
00000F80
00000F80
00000F80
00000F80
00000F80
00000F80
00000F00
00000F00
00001F00
00001F00
00001F00
00003E00
00003E00
00007C00
0000FC00
2001F800
3C07F000
3FFFE000
3FFFC000
1FFF0000
00600000
ENDCHAR
STARTCHAR 0187
ENCODING 391
SWIDTH 600 0
DWIDTH 30 0
BBX 29 44 3 -1
BITMAP
00000030
000001F8
000003F8
000007F8
00000788
00000780
00000780
00010780
003FFF80
00FFFF00
03FFFF00
07F81F00
0FC00200
1F800000
1F000000
3E000000
3E000000
7C000000
7C000000
7C000000
78000000
78000000
F8000000
F8000000
F8000000
F8000000
F8000000
F8000000
F8000000
78000000
78000000
7C000000
7C000000
7C000000
3C000000
3E000000
1F000000
1F800000
0FC00200
07F01E00
03FFFE00
01FFFE00
007FFC00
00030000
ENDCHAR
STARTCHAR 0188
ENCODING 392
SWIDTH 600 0
DWIDTH 30 0
BBX 26 39 4 -1
BITMAP
00000FC0
00001FC0
00003FC0
00003FC0
00003C00
00007800
00007800
00007800
00007800
00007800
00047800
00FFF800
07FFF800
0FFFF800
1FE0F000
3F001000
3E000000
7C000000
7C000000
78000000
78000000
F8000000
F8000000
F8000000
F8000000
F8000000
F8000000
F8000000
F8000000
78000000
7C000000
7C000000
3E000000
3F000800
1FE07800
0FFFF800
07FFF800
01FFF000
000C0000
ENDCHAR
STARTCHAR 0189
ENCODING 393
SWIDTH 600 0
DWIDTH 30 0
BBX 28 35 0 0
BITMAP
0FFF8000
0FFFF000
0FFFFC00
0FFFFE00
0F807F00
0F801F80
0F800FC0
0F8007C0
0F8003E0
0F8003E0
0F8001E0
0F8001F0
0F8001F0
0F8001F0
0F8001F0
0F8000F0
FFFE00F0
FFFE00F0
FFFE00F0
FFFE00F0
0F8001F0
0F8001F0
0F8001F0
0F8001F0
0F8003E0
0F8003E0
0F8003E0
0F8007C0
0F800F80
0F801F80
0F807F00
0FFFFE00
0FFFF800
0FFFF000
0FFF0000
ENDCHAR
STARTCHAR 018A
ENCODING 394
SWIDTH 600 0
DWIDTH 30 0
BBX 28 35 0 0
BITMAP
0FFFC000
3FFFF800
7FFFFE00
7FFFFF00
79F03F80
F9F00F80
79F007C0
79F003C0
79F003E0
01F003E0
01F001E0
01F001F0
01F001F0
01F001F0
01F001F0
01F001F0
01F001F0
01F001F0
01F001F0
01F001F0
01F001F0
01F001F0
01F001F0
01F001E0
01F001E0
01F003E0
01F003E0
01F007C0
01F007C0
01F00F80
01F03F00
01FFFE00
01FFFC00
01FFF800
01FFC000
ENDCHAR
STARTCHAR 018B
ENCODING 395
SWIDTH 600 0
DWIDTH 30 0
BBX 22 35 3 0
BITMAP
3FFFFC
3FFFFC
3FFFFC
3FFFFC
00003C
00003C
00003C
00003C
00003C
00003C
00003C
00003C
00003C
001FFC
03FFFC
0FFFFC
1FFFFC
3F803C
7E003C
7C003C
F8003C
F8003C
F0003C
F0003C
F0003C
F0003C
F8003C
F8003C
F8003C
7C003C
7F003C
3FFFFC
1FFFFC
0FFFFC
01FFFC
ENDCHAR
STARTCHAR 018C
ENCODING 396
SWIDTH 600 0
DWIDTH 30 0
BBX 23 39 3 -1
BITMAP
3FFFFE
3FFFFE
3FFFFE
3FFFFE
00001E
00001E
00001E
00001E
00001E
00001E
00101E
03FF1E
0FFF9E
1FFFDE
3F83FE
3F00FE
7C007E
7C007E
F8003E
F8003E
F8003E
F8003E
F0003E
F0001E
F0001E
F0001E
F0001E
F0003E
F8003E
F8003E
F8003E
7C007E
7C007E
3E00FE
3F83FE
1FFFDE
0FFF9E
03FE1E
002000
ENDCHAR
STARTCHAR 018D
ENCODING 397
SWIDTH 600 0
DWIDTH 30 0
BBX 24 38 3 -11
BITMAP
00FF00
07FFE0
0FFFF0
1FFFFC
3F00FC
7E007E
7C003E
F8001F
F8001F
F8000F
F0000F
F0000F
F0000F
F0001F
F8001F
F8001E
F8003E
7C007C
3E00F8
3F03F0
1FCFE0
0FFF80
03FE00
01FE00
007F80
001FC0
000FE0
0003E0
0001F0
0001F0
0000F0
0000F0
3001F0
3E03F0
7FFFE0
7FFFC0
1FFF80
03FE00
ENDCHAR
STARTCHAR 018E
ENCODING 398
SWIDTH 600 0
DWIDTH 30 0
BBX 21 35 4 0
BITMAP
FFFFF8
FFFFF8
FFFFF8
FFFFF8
000078
000078
000078
000078
000078
000078
000078
000078
000078
000078
000078
7FFFF8
7FFFF8
7FFFF8
7FFFF8
000078
000078
000078
000078
000078
000078
000078
000078
000078
000078
000078
000078
FFFFF8
FFFFF8
FFFFF8
FFFFF8
ENDCHAR
STARTCHAR 018F
ENCODING 399
SWIDTH 600 0
DWIDTH 30 0
BBX 26 37 2 -1
BITMAP
00100000
07FFC000
3FFFF000
3FFFF800
3E03FC00
3000FE00
00003E00
00001F00
00001F00
00000F80
00000F80
00000780
00000780
000007C0
000007C0
000007C0
000007C0
FFFFFFC0
FFFFFFC0
FFFFFFC0
FFFFFFC0
F00007C0
F00007C0
F00007C0
F0000780
F8000780
78000F80
78000F80
78000F00
7C001F00
3E003E00
1F007E00
1FC1FC00
0FFFF800
07FFE000
01FFC000
00080000
ENDCHAR
STARTCHAR 0190
ENCODING 400
SWIDTH 600 0
DWIDTH 30 0
BBX 24 37 3 -1
BITMAP
000800
01FFF0
07FFFC
1FFFFF
3FC0FF
3E001E
7C0004
7C0000
780000
780000
780000
7C0000
7C0000
3E0000
1F0000
0FE000
07FFF8
007FF8
03FFF8
0FFFF8
3F8000
7E0000
7C0000
F80000
F80000
F00000
F00000
F00000
F80000
F80000
FC0000
7E0003
3FC03F
1FFFFF
0FFFFF
03FFFC
000E00
ENDCHAR
STARTCHAR 0191
ENCODING 401
SWIDTH 600 0
DWIDTH 30 0
BBX 27 47 1 -12
BITMAP
003FFFE0
003FFFE0
003FFFE0
003FFFE0
003E0000
003E0000
003E0000
003E0000
003E0000
003E0000
003E0000
003E0000
003E0000
003E0000
003E0000
003FFFC0
003FFFC0
003FFFC0
003FFFC0
003E0000
003E0000
003E0000
003E0000
003E0000
003E0000
003E0000
003E0000
003E0000
003E0000
003E0000
003E0000
003E0000
003E0000
003E0000
003E0000
003E0000
003E0000
003E0000
F03E0000
F83E0000
F83E0000
F83C0000
F87C0000
7FFC0000
7FF80000
3FF00000
0FC00000
ENDCHAR
STARTCHAR 0192
ENCODING 402
SWIDTH 600 0
DWIDTH 30 0
BBX 26 50 3 -12
BITMAP
0001FF40
0007FF80
000FFF80
001FFF80
001F0000
003E0000
003E0000
003E0000
003E0000
003E0000
003E0000
0FFFFF00
3FFFFF00
3FFFFF00
3FFFFF00
003E0000
003E0000
003E0000
003E0000
003E0000
003E0000
003E0000
003E0000
003E0000
003E0000
003E0000
003E0000
003E0000
003E0000
003E0000
003E0000
003E0000
003E0000
003E0000
003E0000
003E0000
003E0000
003E0000
003E0000
003E0000
003E0000
E83E0000
F03E0000
F03C0000
F03C0000
F87C0000
FFFC0000
7FF80000
3FF00000
0FC00000
ENDCHAR
STARTCHAR 0193
ENCODING 403
SWIDTH 600 0
DWIDTH 30 0
BBX 29 44 2 -1
BITMAP
00000060
000003F8
000007F8
000007F8
00000788
00000F00
00000F00
00010F00
003FFF00
01FFFF00
03FFFF00
07F81E00
0FC00200
1F800000
1F000000
3E000000
3E000000
7C000000
7C000000
7C000000
78000000
78000000
F8000000
F8000000
F803FF80
F803FF80
F803FF80
F803FF80
F8000F80
F8000F80
78000F80
78000F80
7C000F80
7C000F80
7C000F80
3E000F80
3F000F80
1F000F80
0FC00F80
0FF01F80
07FFFF80
01FFFF80
007FFC00
00030000
ENDCHAR
STARTCHAR 0194
ENCODING 404
SWIDTH 600 0
DWIDTH 30 0
BBX 26 47 2 -12
BITMAP
F80007C0
F80007C0
78000780
7C000F80
7C000F80
3C000F00
3E001F00
1E001E00
1E003E00
1F003E00
0F003C00
0F807C00
0F807800
07807800
07C0F800
03C0F000
03C0F000
03E1F000
01E1E000
01E1E000
00F3C000
00F3C000
00F3C000
007F8000
007F8000
007F0000
003F0000
003F0000
001E0000
001E0000
003F0000
003F0000
007F8000
007F8000
007F8000
00F3C000
00F3C000
01E1E000
01E1E000
01E1E000
01E1E000
01E1E000
01E1E000
00FFC000
00FFC000
007F8000
003F0000
ENDCHAR
STARTCHAR 0195
ENCODING 405
SWIDTH 600 0
DWIDTH 30 0
BBX 25 39 3 -1
BITMAP
F0000000
F0000000
F0000000
F0000000
F0000000
F0000000
F0000000
F0000000
F0000000
F0000000
F0800000
F7F00F80
FFF80F80
FFF80F80
FC7C0F80
F83C0F80
F03C0F80
F03C0F80
F03C0F80
F03C0F80
F03C0F80
F03C0F80
F03C0F80
F03C0F80
F03C0F80
F03C0F80
F03C0F80
F03C0F80
F03C0F80
F03C0F80
F03C0F80
F03C0F80
F03C0F00
F03E0F00
F01F1F00
F01FFE00
F00FFE00
F007F800
00004000
ENDCHAR
STARTCHAR 0196
ENCODING 406
SWIDTH 600 0
DWIDTH 30 0
BBX 15 36 9 -1
BITMAP
F800
F800
F800
F800
F800
F800
F800
F800
F800
F800
F800
F800
F800
F800
F800
F800
F800
F800
F800
F800
F800
F800
F800
F800
F800
F800
F800
7800
7800
7C00
7C00
7F02
3FFE
1FFE
0FFE
00C0
ENDCHAR
STARTCHAR 0197
ENCODING 407
SWIDTH 600 0
DWIDTH 30 0
BBX 20 35 5 0
BITMAP
FFFFF0
FFFFF0
FFFFF0
07FE00
00F000
00F000
00F000
00F000
00F000
00F000
00F000
00F000
00F000
00F000
7FFFE0
7FFFE0
7FFFE0
7FFFE0
00F000
00F000
00F000
00F000
00F000
00F000
00F000
00F000
00F000
00F000
00F000
00F000
00F000
07FE00
FFFFF0
FFFFF0
FFFFF0
ENDCHAR
STARTCHAR 0198
ENCODING 408
SWIDTH 600 0
DWIDTH 30 0
BBX 25 35 3 0
BITMAP
F8000F80
F8003F80
F8007F80
F800FF80
F800F800
F801F000
F803E000
F807E000
F807C000
F80F8000
F81F0000
F83F0000
F83E0000
F87C0000
F8F80000
F9F80000
F9F00000
FBF80000
FFFC0000
FFFC0000
FF3E0000
FE1F0000
FC1F0000
F80F8000
F80FC000
F807C000
F803E000
F803F000
F801F000
F800F800
F800FC00
F8007C00
F8003E00
F8003F00
F8001F80
ENDCHAR
STARTCHAR 0199
ENCODING 409
SWIDTH 600 0
DWIDTH 30 0
BBX 24 38 5 0
BITMAP
0F8000
3FC000
7FC000
7FC000
F80000
F80000
F80000
F80000
F80000
F80000
F80000
F8007E
F800F8
F801F8
F803F0
F807E0
F80FC0
F80F80
F81F00
F83E00
F87C00
F8F800
F9F000
FBF800
F7FC00
F7FC00
FF3E00
FE1F00
FC1F00
F80F80
F807C0
F803E0
F803E0
F801F0
F800F8
F800FC
F8007C
F8003F
ENDCHAR
STARTCHAR 019A
ENCODING 410
SWIDTH 600 0
DWIDTH 30 0
BBX 23 38 4 0
BITMAP
FFFC00
FFFC00
FFFC00
FFFC00
003C00
003C00
003C00
003C00
003C00
003C00
003C00
003C00
003C00
003C00
003C00
003C00
003C00
1FFFF8
1FFFF8
1FFFF8
1FFFF8
003C00
003C00
003C00
003C00
003C00
003C00
003C00
003C00
003C00
003C00
003C00
003C00
003C00
00FF00
FFFFFE
FFFFFE
FFFFFE
ENDCHAR
STARTCHAR 019B
ENCODING 411
SWIDTH 600 0
DWIDTH 30 0
BBX 27 39 2 -1
BITMAP
3F800000
3FE00000
3FF00000
3FF00000
00F86000
007BE000
007FF000
01FFC000
0FFE0000
07FE0000
071E0000
001F0000
001F0000
001F0000
003F8000
003F8000
007F8000
007BC000
00FBC000
00F3C000
01F3E000
01E1E000
01E1F000
03E0F000
03C0F000
07C0F800
07807800
0F807800
0F007C00
1F003C00
1F003C00
1E003E00
3E001E00
3C001F00
7C001F80
78000FE0
F8000FE0
F00007E0
00000080
ENDCHAR
STARTCHAR 019C
ENCODING 412
SWIDTH 600 0
DWIDTH 30 0
BBX 26 36 2 -1
BITMAP
F81E07C0
F81E07C0
F81E07C0
F81E07C0
F81E07C0
F81E07C0
F81E07C0
F81E07C0
F81E07C0
F81E07C0
F81E07C0
F81E07C0
F81E07C0
F81E07C0
F81E07C0
F81E07C0
F81E07C0
F81E07C0
F81E07C0
F81E07C0
F81E07C0
F81E07C0
F81E07C0
F81E07C0
F81E07C0
F81E07C0
F81E07C0
783E07C0
783E07C0
783E07C0
787F0FC0
7CFF9FC0
7FEFFBC0
3FEFFBC0
1F87F3C0
06008000
ENDCHAR
STARTCHAR 019D
ENCODING 413
SWIDTH 600 0
DWIDTH 30 0
BBX 29 45 -2 -10
BITMAP
07F000F8
07F000F8
07F800F8
07F800F8
07F800F8
07BC00F8
07BC00F8
079E00F8
07DE00F8
07CF00F8
07CF00F8
07CF80F8
07C780F8
07C780F8
07C3C0F8
07C3C0F8
07C1E0F8
07C1E0F8
07C0F0F8
07C0F0F8
07C078F8
07C078F8
07C078F8
07C03CF8
07C03CF8
07C01EF8
07C01EF8
07C00FF8
07C00F78
07C007F8
07C007F8
07C007F8
07C003F8
07C003F8
07C001F8
07C00000
07C00000
07C00000
07C00000
07C00000
0F800000
FF800000
FF000000
FE000000
70000000
ENDCHAR
STARTCHAR 019E
ENCODING 414
SWIDTH 600 0
DWIDTH 30 0
BBX 22 40 4 -12
BITMAP
000400
F0FFC0
F3FFE0
F7FFF0
F783F8
FE00FC
FC007C
FC007C
F8003C
F8003C
F8003C
F8003C
F8003C
F8003C
F8003C
F8003C
F8003C
F8003C
F8003C
F8003C
F8003C
F8003C
F8003C
F8003C
F8003C
F8003C
F8003C
F8003C
00003C
00003C
00003C
00003C
00003C
00003C
00003C
00003C
00003C
00003C
00003C
00003C
ENDCHAR
STARTCHAR 019F
ENCODING 415
SWIDTH 600 0
DWIDTH 30 0
BBX 26 37 2 -1
BITMAP
00080000
00FFC000
03FFF000
07FFF800
0FE0FC00
1F807E00
1F003E00
3E001F00
3C000F00
7C000F80
7C000F80
7C000780
78000780
78000780
F80007C0
F80007C0
FFFFFFC0
FFFFFFC0
FFFFFFC0
FFFFFFC0
F80007C0
F80007C0
F80007C0
78000780
78000780
7C000F80
7C000F80
7C000F80
3C000F00
3E001F00
1F003E00
1F807E00
0FE0FC00
07FFF800
03FFF000
00FFC000
000C0000
ENDCHAR
STARTCHAR 01A0
ENCODING 416
SWIDTH 600 0
DWIDTH 30 0
BBX 29 43 2 -1
BITMAP
00000030
000000F0
000000F0
00000078
00000078
00000078
00080078
00FFC070
03FFF0F0
07FFF9E0
0FE0FFE0
1F807FC0
1F003F00
3E001F00
3C000F00
7C000F80
7C000F80
78000F80
78000780
78000780
F80007C0
F80007C0
F80007C0
F80007C0
F80007C0
F80007C0
F80007C0
F80007C0
F80007C0
78000780
78000780
78000F80
7C000F80
7C000F80
3C000F00
3E001F00
1F003E00
1F807E00
0FE0FC00
07FFF800
03FFF000
00FFC000
000C0000
ENDCHAR
STARTCHAR 01A1
ENCODING 417
SWIDTH 600 0
DWIDTH 30 0
BBX 27 36 3 -1
BITMAP
000000C0
000003C0
000003C0
000003E0
000001E0
000001E0
000001E0
001001C0
01FF83C0
07FFE780
0FFFFF80
1F83FF00
3E00FC00
7C007E00
7C003E00
78001E00
F8001F00
F8001F00
F0001F00
F0000F00
F0000F00
F0000F00
F0000F00
F0000F00
F0001F00
F8001F00
F8001F00
78001E00
7C003E00
7C007E00
3F00FC00
1F81F800
0FFFF000
07FFE000
01FF8000
00180000
ENDCHAR
STARTCHAR 01A2
ENCODING 418
SWIDTH 1200 0
DWIDTH 60 0
BBX 50 37 4 -1
BITMAP
00008000020000
003FFC007FF000
00FFFF81FFFC00
03FFFFC7FFFE00
07F81FEFC0FF00
0FC003FF003F00
0F8001FC001F80
1F0000F8000F80
3E00007C000F80
3E00007C000780
3C00003E000780
7C00003E0007C0
7C00003E0007C0
7C00001E0007C0
7800001F0007C0
7800001F0007C0
F800001F0007C0
F800001F0007C0
F800001F0007C0
F800001F0007C0
F800001F0007C0
7800001F0007C0
7800001E0007C0
7C00001E0007C0
7C00003E0007C0
7C00003E0007C0
3C00003E0007C0
3E00007C0007C0
3E00007C0007C0
1F0000F80007C0
1F8001F80007C0
0FC003F00007C0
07F81FE00007C0
03FFFFC00007C0
00FFFF000007C0
003FFC000007C0
00018000000000
ENDCHAR
STARTCHAR 01A3
ENCODING 419
SWIDTH 600 0
DWIDTH 30 0
BBX 25 40 2 -12
BITMAP
01001000
0FF0FE00
1FF9FF00
3FFFFF80
7E7F8F80
7C3F0780
781F0780
F81F0780
F00F0780
F00F0780
F00F0780
F00F0780
F00F0780
F00F0780
F00F0780
F00F0780
F00F0780
F00F0780
F00F0780
F00F0780
F00F0780
781E0780
781E0780
7C3E0780
3E7C0780
3FFC0780
1FF80780
0FF00780
01800780
00000780
00000780
00000780
00000780
00000780
00000780
00000780
00000780
00000780
00000780
00000780
ENDCHAR
STARTCHAR 01A4
ENCODING 420
SWIDTH 600 0
DWIDTH 30 0
BBX 27 35 0 0
BITMAP
0FFFF800
3FFFFE00
7FFFFF80
7FFFFF80
79F00FC0
79F007C0
F9F003E0
79F003E0
79F001E0
79F001E0
01F001E0
01F001E0
01F003E0
01F003E0
01F003C0
01F007C0
01F00FC0
01FFFF80
01FFFF00
01FFFE00
01FFF000
01F00000
01F00000
01F00000
01F00000
01F00000
01F00000
01F00000
01F00000
01F00000
01F00000
01F00000
01F00000
01F00000
01F00000
ENDCHAR
STARTCHAR 01A5
ENCODING 421
SWIDTH 600 0
DWIDTH 30 0
BBX 23 50 4 -12
BITMAP
1F8000
3F8000
7F8000
FF8000
F80000
F80000
F00000
F00000
F00000
F00000
F00800
F0FF80
F3FFE0
F7FFF0
F783F8
FE00F8
FC007C
FC007C
F8003E
F8003E
F8003E
F8003E
F0001E
F0001E
F0001E
F0001E
F8001E
F8003E
F8003E
F8003E
F8003E
FC007C
FC007C
FE00F8
FF83F8
F7FFF0
F3FFE0
F0FF80
F00800
F00000
F00000
F00000
F00000
F00000
F00000
F00000
F00000
F00000
F00000
F00000
ENDCHAR
STARTCHAR 01A6
ENCODING 422
SWIDTH 600 0
DWIDTH 30 0
BBX 23 40 5 -5
BITMAP
F00000
F00000
F00000
F00000
F00000
FFF800
FFFF00
FFFFC0
FFFFE0
F007E0
F003F0
F001F0
F000F0
F000F8
F000F8
F000F8
F000F8
F000F0
F001F0
F003E0
F007E0
FFFFC0
FFFF00
FFFC00
FFFC00
F03E00
F03E00
F01F00
F01F00
F00F80
F007C0
F007C0
F003E0
F003E0
F001F0
0001F8
0000F8
00007C
00007C
00003E
ENDCHAR
STARTCHAR 01A7
ENCODING 423
SWIDTH 600 0
DWIDTH 30 0
BBX 22 37 4 -1
BITMAP
004000
1FFE00
FFFF80
7FFFE0
7C0FE0
6001F0
0000F0
0000F8
0000F8
0000F8
0000F8
0000F8
0000F8
0001F0
0007F0
001FE0
007FC0
03FF80
07FE00
1FF800
3FE000
7F8000
FE0000
F80000
F80000
F00000
F00000
F00000
F00000
F80000
F80000
7C000C
7F00FC
3FFFFC
1FFFFC
07FFF0
001800
ENDCHAR
STARTCHAR 01A8
ENCODING 424
SWIDTH 600 0
DWIDTH 30 0
BBX 20 29 5 -1
BITMAP
008000
3FFE00
7FFF80
7FFFC0
7C0FE0
2003E0
0001E0
0001E0
0001E0
0003E0
0007E0
001FC0
007F80
03FF00
0FFC00
1FF000
3FC000
7E0000
FC0000
F80000
F80000
F80000
F80000
7C0030
7F01F0
3FFFF0
1FFFF0
07FFC0
003000
ENDCHAR
STARTCHAR 01A9
ENCODING 425
SWIDTH 600 0
DWIDTH 30 0
BBX 20 35 5 0
BITMAP
FFFFE0
FFFFE0
FFFFE0
FFFFE0
7C0000
3E0000
3E0000
1F0000
0F8000
07C000
07C000
03E000
01F000
00F800
00F800
007C00
003E00
007C00
007C00
00F800
01F000
01F000
03E000
07C000
07C000
0F8000
1F0000
1E0000
3E0000
7C0000
780000
FFFFF0
FFFFF0
FFFFF0
FFFFF0
ENDCHAR
STARTCHAR 01AA
ENCODING 426
SWIDTH 600 0
DWIDTH 30 0
BBX 24 50 3 -12
BITMAP
0FC000
3FF000
7FF800
7FFC00
F87C00
F03C00
F03C00
F83C00
7FFC00
7FFC00
3FFC00
0FFC00
003C00
003C00
003C00
003C00
003C00
003C00
003C00
003C00
003C00
003C00
003C00
003C00
003C00
003C00
003C00
003C00
003C00
003C00
003C00
003C00
003C00
003C00
003C00
003C00
003C00
003C00
003C00
003C00
003C00
003C00
003C00
003E00
003E00
001F01
001FFF
000FFF
0007FF
0001FC
ENDCHAR
STARTCHAR 01AB
ENCODING 427
SWIDTH 600 0
DWIDTH 30 0
BBX 23 46 3 -12
BITMAP
00F000
00F000
00F000
00F000
01F000
01F000
01F000
7FFFFC
FFFFFC
FFFFFC
FFFFFC
01F000
01F000
01F000
01F000
01F000
01F000
01F000
01F000
01F000
01F000
01F000
01F000
01F000
01F000
01F000
01F000
01F000
01F000
00F800
00FE06
007FFE
003FFE
001FFE
0000DE
00001E
00001E
00001E
00001E
00001E
00001E
00003E
0003FC
0003FC
0003F8
0003F0
ENDCHAR
STARTCHAR 01AC
ENCODING 428
SWIDTH 600 0
DWIDTH 30 0
BBX 28 35 0 0
BITMAP
0FFFFFF0
3FFFFFF0
7FFFFFF0
7FFFFFF0
78078000
F8078000
78078000
78078000
78078000
00078000
00078000
00078000
00078000
00078000
00078000
00078000
00078000
00078000
00078000
00078000
00078000
00078000
00078000
00078000
00078000
00078000
00078000
00078000
00078000
00078000
00078000
00078000
00078000
00078000
00078000
ENDCHAR
STARTCHAR 01AD
ENCODING 429
SWIDTH 600 0
DWIDTH 30 0
BBX 23 39 3 -1
BITMAP
001FC0
007FC0
00FFC0
00FFC0
01F000
01F000
01F000
01F000
01F000
01F000
01F000
7FFFFC
FFFFFC
FFFFFC
FFFFFC
01F000
01F000
01F000
01F000
01F000
01F000
01F000
01F000
01F000
01F000
01F000
01F000
01F000
01F000
01F000
01F000
01F000
01F000
00F800
00FE06
007FFE
003FFE
001FFE
0000C0
ENDCHAR
STARTCHAR 01AE
ENCODING 430
SWIDTH 600 0
DWIDTH 30 0
BBX 26 44 2 -9
BITMAP
FFFFFFC0
FFFFFFC0
FFFFFFC0
FFFFFFC0
001E0000
001E0000
001E0000
001E0000
001E0000
001E0000
001E0000
001E0000
001E0000
001E0000
001E0000
001E0000
001E0000
001E0000
001E0000
001E0000
001E0000
001E0000
001E0000
001E0000
001E0000
001E0000
001E0000
001E0000
001E0000
001E0000
001E0000
001E0000
001E0000
001E0000
001E0000
001E0000
001E0000
001E0000
001F0000
001F0000
000FF800
000FF800
0007F800
00006000
ENDCHAR
STARTCHAR 01AF
ENCODING 431
SWIDTH 600 0
DWIDTH 30 0
BBX 28 42 3 -1
BITMAP
00000030
000001F0
000000F0
000000F0
000000F0
000000F0
F8001FF0
F8001FF0
F8001FF0
F8001FE0
F8001FC0
F8001F80
F8001F00
F8001F00
F8001F00
F8001F00
F8001F00
F8001F00
F8001F00
F8001F00
F8001F00
F8001F00
F8001F00
F8001F00
F8001F00
F8001F00
F8001F00
F8001F00
F8001F00
78001E00
78001E00
78001E00
78001E00
7C003E00
7C003E00
3E007C00
3F007C00
1F81F800
0FFFF000
07FFE000
03FFC000
00180000
ENDCHAR
STARTCHAR 01B0
ENCODING 432
SWIDTH 600 0
DWIDTH 30 0
BBX 27 38 4 -1
BITMAP
00000040
000003C0
000003E0
000001E0
000001E0
000001E0
000001E0
000001C0
000003C0
000003C0
F0007F80
F0007F00
F0007C00
F0007C00
F0007C00
F0007C00
F0007C00
F0007C00
F0007C00
F0007C00
F0007C00
F0007C00
F0007C00
F0007C00
F0007C00
F0007C00
F0007C00
F0007C00
F0007C00
F0007C00
F800FC00
F800FC00
FC01FC00
7F07BC00
7FFFBC00
3FFF3C00
0FFC3C00
00C00000
ENDCHAR
STARTCHAR 01B1
ENCODING 433
SWIDTH 600 0
DWIDTH 30 0
BBX 28 36 1 0
BITMAP
FFE07FF0
FFE07FF0
FFE07FF0
FFE07FF0
03C03C00
07801E00
07801E00
0F000F00
0F000F00
1E000780
1E000780
1E000780
3E0007C0
3C0003C0
3C0003C0
3C0003C0
3C0003C0
3C0003C0
7C0003E0
7C0003E0
7C0003E0
3C0003E0
3C0003C0
3C0003C0
3E0007C0
3E0007C0
3E0007C0
1E000F80
1F000F80
1F801F80
0FC03F00
07E0FE00
03FFFC00
01FFF800
007FE000
00040000
ENDCHAR
STARTCHAR 01B2
ENCODING 434
SWIDTH 600 0
DWIDTH 30 0
BBX 24 37 3 -1
BITMAP
000080
F80FF8
F80FFC
F80FFE
F80C3E
F8001E
F8001E
F8001E
F8001F
F8001F
F8001F
F8001F
F8001F
F8001F
F8001F
F8001F
F8001F
F8001F
F8001F
F8001F
F8001F
F8001F
F8001F
F8001F
78001E
78001E
78001E
78001E
7C003E
7C003E
3E007C
3F007C
1F81F8
0FFFF0
07FFE0
03FFC0
001800
ENDCHAR
STARTCHAR 01B3
ENCODING 435
SWIDTH 600 0
DWIDTH 30 0
BBX 27 36 2 0
BITMAP
00000080
F80007E0
78000FE0
7C000FE0
3C001F20
3E001F00
1E003E00
1F003E00
0F003C00
0F807C00
07807800
07C0F800
03C0F000
03E1F000
01E1E000
01F3E000
00F3C000
00F3C000
007F8000
007F8000
003F0000
003F0000
001E0000
001E0000
001E0000
001E0000
001E0000
001E0000
001E0000
001E0000
001E0000
001E0000
001E0000
001E0000
001E0000
001E0000
ENDCHAR
STARTCHAR 01B4
ENCODING 436
SWIDTH 600 0
DWIDTH 30 0
BBX 27 40 2 -12
BITMAP
00000080
F00007E0
F80007E0
78000FE0
7C000FA0
3C001F00
3C001E00
1E001E00
1E003E00
1F003C00
0F003C00
0F807800
07807800
07807800
07C0F000
03C0F000
03E0F000
01E1E000
01E1E000
00F1C000
00F3C000
00F3C000
007B8000
007F8000
003F8000
003F0000
003F0000
001E0000
001E0000
003E0000
003C0000
003C0000
007C0000
00780000
00F80000
01F00000
7FF00000
7FE00000
7FC00000
7F000000
ENDCHAR
STARTCHAR 01B5
ENCODING 437
SWIDTH 600 0
DWIDTH 30 0
BBX 20 35 5 0
BITMAP
7FFFF0
7FFFF0
7FFFF0
7FFFF0
0001F0
0001E0
0003C0
0007C0
000780
000F80
000F00
001F00
001E00
003E00
007C00
7FFFF0
7FFFF0
7FFFF0
7FFFF0
01E000
03E000
07C000
078000
0F8000
0F0000
1F0000
1E0000
3E0000
3C0000
7C0000
F80000
FFFFF0
FFFFF0
FFFFF0
FFFFF0
ENDCHAR
STARTCHAR 01B6
ENCODING 438
SWIDTH 600 0
DWIDTH 30 0
BBX 22 27 4 0
BITMAP
7FFFF8
7FFFF8
7FFFF8
7FFFF8
0000F8
0001F0
0003E0
0007C0
000F80
000F80
001F00
3FFFF0
3FFFF0
3FFFF0
3FFFF0
01F000
03E000
03C000
07C000
0F8000
1F0000
1E0000
3E0000
7FFFFC
FFFFFC
FFFFFC
FFFFFC
ENDCHAR
STARTCHAR 01B7
ENCODING 439
SWIDTH 600 0
DWIDTH 30 0
BBX 25 36 2 -1
BITMAP
7FFFFE00
7FFFFE00
7FFFFE00
7FFFFE00
00007C00
0000F800
0001F000
0003E000
000FC000
001F8000
003F0000
007E0000
00FC0000
01F80000
03F00000
03FF0000
03FFE000
03FFF800
03FFFC00
0000FE00
00003F00
00001F00
00000F80
00000F80
00000F80
00000F80
00000F80
00000F00
00001F00
00003F00
C0007E00
FE03FC00
FFFFF800
FFFFF000
3FFFC000
00600000
ENDCHAR
STARTCHAR 01B8
ENCODING 440
SWIDTH 600 0
DWIDTH 30 0
BBX 25 36 3 -1
BITMAP
3FFFFF00
3FFFFF00
3FFFFF00
3FFFFF00
1F000000
0F800000
07C00000
03E00000
01F80000
00FC0000
007E0000
003F0000
001F8000
000FC000
0007E000
007FE000
03FFE000
0FFFE000
1FFFE000
3F800000
7E000000
7C000000
F8000000
F8000000
F8000000
F8000000
F8000000
F8000000
7C000000
7E000000
3F000180
1FE03F80
0FFFFF80
07FFFF80
01FFFE00
00030000
ENDCHAR
STARTCHAR 01B9
ENCODING 441
SWIDTH 600 0
DWIDTH 30 0
BBX 23 39 4 -12
BITMAP
7FFFFE
7FFFFE
7FFFFE
7FFFFE
3E0000
1F0000
0F8000
07C000
03E000
01F000
00F800
007800
003C00
003E00
001F00
000F80
00FFC0
07FFC0
1FFFC0
3FFFC0
7F0000
7C0000
F80000
F80000
F00000
F00000
F00000
F00000
F00000
F00000
F80000
F80000
7C0000
7E0002
3F000E
1FFFFE
0FFFFE
03FFFE
007FE0
ENDCHAR
STARTCHAR 01BA
ENCODING 442
SWIDTH 600 0
DWIDTH 30 0
BBX 23 39 3 -12
BITMAP
7FFFFC
7FFFFC
7FFFFC
7FFFF8
0001F0
0003E0
000FC0
001F80
003F00
007E00
00F800
01F000
03FF00
03FFE0
03FFF8
03FFFC
0001FC
00007E
00003E
00001E
00001E
00001E
00001E
00001E
00003E
00007C
00FFF8
0FFFF0
3FFFE0
7FFF00
7C0000
780000
F80000
780000
7C0020
7FFFE0
3FFFE0
1FFFE0
03FF00
ENDCHAR
STARTCHAR 01BB
ENCODING 443
SWIDTH 600 0
DWIDTH 30 0
BBX 24 36 3 0
BITMAP
001000
03FF80
0FFFE0
3FFFF0
7F83F8
3C00F8
38007C
10007C
00003C
00003C
00003C
00003C
00007C
00007C
00007C
0000F8
0000F8
3FFFFF
3FFFFF
3FFFFF
3FFFFF
000F80
001F00
003E00
007C00
00F800
01F000
03E000
07C000
0F8000
1F0000
3E0000
7FFFFF
FFFFFF
FFFFFF
FFFFFF
ENDCHAR
STARTCHAR 01BC
ENCODING 444
SWIDTH 600 0
DWIDTH 30 0
BBX 23 36 3 -1
BITMAP
FFFFFC
FFFFFC
FFFFFC
FFFFFC
0F8000
0F8000
0F8000
0F8000
0F8000
0F8000
0F8000
0F8000
0F8000
0FF000
0FFF80
0FFFE0
0FFFF0
0003F8
0000FC
00007C
00003E
00003E
00003E
00003E
00003E
00003E
00003E
00003E
00007C
00007C
6001F8
7E07F8
7FFFF0
7FFFC0
1FFF00
006000
ENDCHAR
STARTCHAR 01BD
ENCODING 445
SWIDTH 600 0
DWIDTH 30 0
BBX 22 28 4 -1
BITMAP
FFFFF8
FFFFF8
FFFFF8
FFFFF8
078000
078000
078000
078000
078000
078000
07FF00
07FFE0
07FFF0
07FFF8
0001FC
00007C
00003C
00003C
00003C
00003C
00003C
00007C
C000F8
FC03F8
FFFFF0
FFFFC0
3FFF00
00E000
ENDCHAR
STARTCHAR 01BE
ENCODING 446
SWIDTH 600 0
DWIDTH 30 0
BBX 22 35 3 -1
BITMAP
00F000
00F000
00F000
00F000
01F000
01F000
01F000
7FFFFC
FFFFFC
FFFFFC
FFFFFC
01F000
01F000
01F000
01F000
01F000
01F000
01F000
01F800
00FF00
007FE0
003FF0
0007F8
0001FC
00007C
00003C
00003C
00003C
00003C
60007C
7E03F8
7FFFF0
7FFFE0
1FFF80
006000
ENDCHAR
STARTCHAR 01BF
ENCODING 447
SWIDTH 600 0
DWIDTH 30 0
BBX 23 40 4 -12
BITMAP
000800
F0FFC0
F1FFE0
F3FFF0
FF83F8
FE00FC
FC007C
FC003E
F8003E
F8003E
F8001E
F8001E
F8001E
F8003E
F8003E
F8003E
F8003E
F8007C
F8007C
F800F8
F801F8
F803F0
F807E0
F81FC0
F8FF80
FFFF00
FFFC00
FFE000
FC0000
F80000
F80000
F80000
F80000
F80000
F80000
F80000
F80000
F80000
F80000
F80000
ENDCHAR
STARTCHAR 01C0
ENCODING 448
SWIDTH 600 0
DWIDTH 30 0
BBX 4 38 13 0
BITMAP
F0
F0
F0
F0
F0
F0
F0
F0
F0
F0
F0
F0
F0
F0
F0
F0
F0
F0
F0
F0
F0
F0
F0
F0
F0
F0
F0
F0
F0
F0
F0
F0
F0
F0
F0
F0
F0
F0
ENDCHAR
STARTCHAR 01C1
ENCODING 449
SWIDTH 600 0
DWIDTH 30 0
BBX 18 38 6 0
BITMAP
F003C0
F003C0
F003C0
F003C0
F003C0
F003C0
F003C0
F003C0
F003C0
F003C0
F003C0
F003C0
F003C0
F003C0
F003C0
F003C0
F003C0
F003C0
F003C0
F003C0
F003C0
F003C0
F003C0
F003C0
F003C0
F003C0
F003C0
F003C0
F003C0
F003C0
F003C0
F003C0
F003C0
F003C0
F003C0
F003C0
F003C0
F003C0
ENDCHAR
STARTCHAR 01C2
ENCODING 450
SWIDTH 600 0
DWIDTH 30 0
BBX 20 38 5 0
BITMAP
00F000
00F000
00F000
00F000
00F000
00F000
00F000
00F000
00F000
00F000
00F000
00F000
FFFFF0
FFFFF0
FFFFF0
FFFFF0
00F000
00F000
00F000
00F000
00F000
00F000
FFFFF0
FFFFF0
FFFFF0
FFFFF0
00F000
00F000
00F000
00F000
00F000
00F000
00F000
00F000
00F000
00F000
00F000
00F000
ENDCHAR
STARTCHAR 01C3
ENCODING 451
SWIDTH 600 0
DWIDTH 30 0
BBX 6 36 12 -1
BITMAP
FC
FC
FC
FC
FC
FC
7C
7C
78
78
78
78
78
78
78
78
78
78
78
78
78
78
78
78
78
00
00
00
20
78
FC
FC
FC
FC
78
20
ENDCHAR
STARTCHAR 01C4
ENCODING 452
SWIDTH 1200 0
DWIDTH 60 0
BBX 48 47 6 0
BITMAP
00000003801E
00000003E07C
00000001F0F8
00000000F9F0
000000007FE0
000000003FC0
000000001F80
000000001F80
000000000000
000000000000
000000000000
000000000000
FFF80007FFFF
FFFF0007FFFF
FFFF8007FFFF
FFFFE007FFFF
F007F000001E
F001F800003E
F000F800003C
F0007C00007C
F0007C000078
F0003E0000F8
F0003E0000F0
F0001E0001E0
F0001F0003E0
F0001F0003C0
F0001F0007C0
F0001F000780
F0001F000F80
F0001F000F00
F0001F001F00
F0001F003E00
F0001F003C00
F0001F007C00
F0001E007800
F0001E00F800
F0003E00F000
F0003E01F000
F0007C01E000
F0007C03E000
F000F807C000
F003F0078000
F00FF00F8000
FFFFC00FFFFF
FFFF800FFFFF
FFFE000FFFFF
FFF0000FFFFF
ENDCHAR
STARTCHAR 01C5
ENCODING 453
SWIDTH 1200 0
DWIDTH 60 0
BBX 53 38 3 0
BITMAP
000000003C01E0
000000001E03C0
000000001F0F80
FFFC00000F9F00
FFFF800007FE00
FFFFC00003FC00
FFFFF00001F800
F803F80000F800
F801F800000000
F8007C00000000
F8003E00000000
F8003E00FFFFF0
F8001F00FFFFF0
F8001F00FFFFF0
F8001F00FFFFF0
F8000F000001F0
F8000F800003E0
F8000F800007C0
F8000F80000F80
F8000F80001F00
F8000F80001F00
F8000F80003E00
F8000F80007C00
F8000F8000F800
F8000F0000F800
F8000F0001F000
F8001F0003E000
F8001F0007C000
F8001E00078000
F8003E000F8000
F8007E001F0000
F800FC003E0000
F801F8003C0000
F807F0007C0000
FFFFE000FFFFF8
FFFFC001FFFFF8
FFFF0001FFFFF8
FFF80001FFFFF8
ENDCHAR
STARTCHAR 01C6
ENCODING 454
SWIDTH 1200 0
DWIDTH 60 0
BBX 53 39 3 -1
BITMAP
00001E003C01E0
00001E001E03C0
00001E001F0F80
00001E000F9F00
00001E0007FE00
00001E0003FC00
00001E0001F800
00001E0000F800
00001E00000000
00001E00000000
00101E00000000
03FF1E00FFFFF0
0FFF9E00FFFFF0
1FFFDE00FFFFF0
3F83FE00FFFFF0
3F00FE000001F0
7C007E000003E0
7C007E000007C0
F8003E00000F80
F8003E00001F00
F8003E00001F00
F8003E00003E00
F0003E00007C00
F0001E0000F800
F0001E0000F800
F0001E0001F000
F0001E0003E000
F0003E0007C000
F8003E00078000
F8003E000F8000
F8003E001F0000
7C007E003E0000
7C007E003C0000
3E00FE007C0000
3F83FE00FFFFF8
1FFFDE01FFFFF8
0FFF9E01FFFFF8
03FE1E01FFFFF8
00200000000000
ENDCHAR
STARTCHAR 01C7
ENCODING 455
SWIDTH 1200 0
DWIDTH 60 0
BBX 47 36 6 -1
BITMAP
F0000000001E
F0000000001E
F0000000001E
F0000000001E
F0000000001E
F0000000001E
F0000000001E
F0000000001E
F0000000001E
F0000000001E
F0000000001E
F0000000001E
F0000000001E
F0000000001E
F0000000001E
F0000000001E
F0000000001E
F0000000001E
F0000000001E
F0000000001E
F0000000001E
F0000000001E
F0000000001E
F0000000001E
F0000000001E
F0000000001E
F0000000001E
F0000000003E
F0000000003E
F0000000007C
F0000004007C
FFFFF00781F8
FFFFF007FFF8
FFFFF007FFF0
FFFFF003FFC0
000000000800
ENDCHAR
STARTCHAR 01C8
ENCODING 456
SWIDTH 1200 0
DWIDTH 60 0
BBX 44 50 6 -12
BITMAP
0000000001E0
0000000003F0
0000000003F0
F000000003F0
F000000003F0
F000000001E0
F00000000000
F00000000000
F00000000000
F00000000000
F00000000000
F0000001FFF0
F0000001FFF0
F0000001FFF0
F0000001FFF0
F000000001F0
F000000001F0
F000000001F0
F000000001F0
F000000001F0
F000000001F0
F000000001F0
F000000001F0
F000000001F0
F000000001F0
F000000001F0
F000000001F0
F000000001F0
F000000001F0
F000000001F0
F000000001F0
F000000001F0
F000000001F0
F000000001F0
FFFFF00001F0
FFFFF00001F0
FFFFF00001F0
FFFFF00001F0
0000000001F0
0000000001F0
0000000001F0
0000000001F0
0000000001F0
0000000001E0
0000000003E0
0000001007E0
0000001FFFC0
0000001FFF80
0000001FFF00
0000000FF800
ENDCHAR
STARTCHAR 01C9
ENCODING 457
SWIDTH 1200 0
DWIDTH 60 0
BBX 46 50 4 -12
BITMAP
FFFC00000078
FFFC000000FC
FFFC000000FC
FFFC000000FC
003C000000FC
003C00000078
003C00000000
003C00000000
003C00000000
003C00000000
003C00000000
003C00007FFC
003C00007FFC
003C00007FFC
003C00007FFC
003C0000007C
003C0000007C
003C0000007C
003C0000007C
003C0000007C
003C0000007C
003C0000007C
003C0000007C
003C0000007C
003C0000007C
003C0000007C
003C0000007C
003C0000007C
003C0000007C
003C0000007C
003C0000007C
003C0000007C
003C0000007C
003C0000007C
01FF8000007C
FFFFFE00007C
FFFFFE00007C
FFFFFE00007C
00000000007C
00000000007C
00000000007C
00000000007C
00000000007C
000000000078
0000000000F8
0000000401F8
00000007FFF0
00000007FFE0
00000007FFC0
00000003FE00
ENDCHAR
STARTCHAR 01CA
ENCODING 458
SWIDTH 1200 0
DWIDTH 60 0
BBX 50 36 3 -1
BITMAP
FE001F000003C0
FE001F000003C0
FF001F000003C0
FF001F000003C0
FF001F000003C0
F7801F000003C0
F7801F000003C0
F3C01F000003C0
FBC01F000003C0
F9E01F000003C0
F9E01F000003C0
F9F01F000003C0
F8F01F000003C0
F8F01F000003C0
F8781F000003C0
F8781F000003C0
F83C1F000003C0
F83C1F000003C0
F81E1F000003C0
F81E1F000003C0
F80F1F000003C0
F80F1F000003C0
F80F1F000003C0
F8079F000003C0
F8079F000003C0
F803DF000003C0
F803DF000003C0
F801FF000007C0
F801EF000007C0
F800FF00000F80
F800FF00800F80
F800FF00F03F00
F8007F00FFFF00
F8007F00FFFE00
F8003F007FF800
00000000010000
ENDCHAR
STARTCHAR 01CB
ENCODING 459
SWIDTH 1200 0
DWIDTH 60 0
BBX 47 50 3 -12
BITMAP
00000000003C
00000000007E
00000000007E
FE001F00007E
FE001F00007E
FF001F00003C
FF001F000000
FF001F000000
F7801F000000
F7801F000000
F3C01F000000
FBC01F003FFE
F9E01F003FFE
F9E01F003FFE
F9F01F003FFE
F8F01F00003E
F8F01F00003E
F8781F00003E
F8781F00003E
F83C1F00003E
F83C1F00003E
F81E1F00003E
F81E1F00003E
F80F1F00003E
F80F1F00003E
F80F1F00003E
F8079F00003E
F8079F00003E
F803DF00003E
F803DF00003E
F801FF00003E
F801EF00003E
F800FF00003E
F800FF00003E
F800FF00003E
F8007F00003E
F8007F00003E
F8003F00003E
00000000003E
00000000003E
00000000003E
00000000003E
00000000003E
00000000003C
00000000007C
0000000200FC
00000003FFF8
00000003FFF0
00000003FFE0
00000001FF00
ENDCHAR
STARTCHAR 01CC
ENCODING 460
SWIDTH 1200 0
DWIDTH 60 0
BBX 46 50 4 -12
BITMAP
000000000078
0000000000FC
0000000000FC
0000000000FC
0000000000FC
000000000078
000000000000
000000000000
000000000000
000000000000
000400000000
F0FFC0007FFC
F3FFE0007FFC
F7FFF0007FFC
F783F8007FFC
FE00FC00007C
FC007C00007C
FC007C00007C
F8003C00007C
F8003C00007C
F8003C00007C
F8003C00007C
F8003C00007C
F8003C00007C
F8003C00007C
F8003C00007C
F8003C00007C
F8003C00007C
F8003C00007C
F8003C00007C
F8003C00007C
F8003C00007C
F8003C00007C
F8003C00007C
F8003C00007C
F8003C00007C
F8003C00007C
F8003C00007C
00000000007C
00000000007C
00000000007C
00000000007C
00000000007C
000000000078
0000000000F8
0000000401F8
00000007FFF0
00000007FFE0
00000007FFC0
00000003FE00
ENDCHAR
STARTCHAR 01CD
ENCODING 461
SWIDTH 600 0
DWIDTH 30 0
BBX 28 47 1 0
BITMAP
03801C00
03E07C00
01F0F800
00F9F000
007FE000
003FC000
001F8000
001F8000
00000000
00000000
00000000
00000000
001F8000
001F8000
001F8000
003FC000
003FC000
003FC000
007FE000
0079E000
0079E000
00F9F000
00F0F000
00F0F000
01F0F800
01E07800
01E07800
03E07C00
03C03C00
03C03C00
07C03E00
07803E00
07FFFE00
0FFFFF00
0FFFFF00
0FFFFF00
1F000F80
1F000F80
1E000780
3E0007C0
3E0007C0
3C0003C0
7C0003E0
7C0003E0
780001E0
F80001F0
F80001F0
ENDCHAR
STARTCHAR 01CE
ENCODING 462
SWIDTH 600 0
DWIDTH 30 0
BBX 23 39 3 -1
BITMAP
0F0078
0780F0
07C3E0
03E7C0
01FF80
00FF00
007E00
003E00
000000
000000
001000
03FFC0
3FFFE0
1FFFF0
1F83F8
0C007C
00007C
00003C
00003C
00003C
00003E
00003E
00FFFE
07FFFE
1FFFFE
3FFFFE
7F003E
7C003E
78003E
78003E
F8003E
78007E
78007E
7C01FE
7F07FE
3FFF9E
1FFF1E
0FFC1E
00C000
ENDCHAR
STARTCHAR 01CF
ENCODING 463
SWIDTH 600 0
DWIDTH 30 0
BBX 20 47 5 0
BITMAP
3801C0
3E07C0
1F0F80
0F9F00
07FE00
03FC00
01F800
01F800
000000
000000
000000
000000
FFFFF0
FFFFF0
FFFFF0
1FFF80
00F000
00F000
00F000
00F000
00F000
00F000
00F000
00F000
00F000
00F000
00F000
00F000
00F000
00F000
00F000
00F000
00F000
00F000
00F000
00F000
00F000
00F000
00F000
00F000
00F000
00F000
00F000
03FC00
FFFFF0
FFFFF0
FFFFF0
ENDCHAR
STARTCHAR 01D0
ENCODING 464
SWIDTH 600 0
DWIDTH 30 0
BBX 23 38 4 0
BITMAP
1C00E0
1F03E0
0F87C0
07CF80
03FF00
01FE00
00FC00
00FC00
000000
000000
000000
7FFC00
7FFC00
7FFC00
07FC00
003C00
003C00
003C00
003C00
003C00
003C00
003C00
003C00
003C00
003C00
003C00
003C00
003C00
003C00
003C00
003C00
003C00
003C00
003C00
03FFC0
FFFFFE
FFFFFE
FFFFFE
ENDCHAR
STARTCHAR 01D1
ENCODING 465
SWIDTH 600 0
DWIDTH 30 0
BBX 26 48 2 -1
BITMAP
07003800
07C0F800
03E1F000
01F3E000
00FFC000
007F8000
003F0000
003F0000
00000000
00000000
00000000
00080000
00FFC000
03FFF000
07FFF800
0FE0FC00
1F807E00
1F003E00
3E001F00
3C000F00
7C000F80
7C000F80
78000F80
78000780
78000780
F80007C0
F80007C0
F80007C0
F80007C0
F80007C0
F80007C0
F80007C0
F80007C0
F80007C0
78000780
78000780
78000F80
7C000F80
7C000F80
3C000F00
3E001F00
1F003E00
1F807E00
0FE0FC00
07FFF800
03FFF000
00FFC000
000C0000
ENDCHAR
STARTCHAR 01D2
ENCODING 466
SWIDTH 600 0
DWIDTH 30 0
BBX 24 39 3 -1
BITMAP
0E0070
0F81F0
07C3E0
03E7C0
01FF80
00FF00
007E00
007E00
000000
000000
001000
01FF80
07FFE0
0FFFF0
1F83F8
3E00FC
7C007E
7C003E
78001E
F8001F
F8001F
F0001F
F0000F
F0000F
F0000F
F0000F
F0000F
F0001F
F8001F
F8001F
78001E
7C003E
7C007E
3F00FC
1F81F8
0FFFF0
07FFE0
01FF80
001800
ENDCHAR
STARTCHAR 01D3
ENCODING 467
SWIDTH 600 0
DWIDTH 30 0
BBX 24 48 3 -1
BITMAP
0E0070
0F81F0
07C3E0
03E7C0
01FF80
00FF00
007E00
007E00
000000
000000
000000
000000
F8001F
F8001F
F8001F
F8001F
F8001F
F8001F
F8001F
F8001F
F8001F
F8001F
F8001F
F8001F
F8001F
F8001F
F8001F
F8001F
F8001F
F8001F
F8001F
F8001F
F8001F
F8001F
F8001F
78001E
78001E
78001E
78001E
7C003E
7C003E
3E007C
3F007C
1F81F8
0FFFF0
07FFE0
03FFC0
001800
ENDCHAR
STARTCHAR 01D4
ENCODING 468
SWIDTH 600 0
DWIDTH 30 0
BBX 22 39 4 -1
BITMAP
1C00E0
1F03E0
0F87C0
07CF80
03FF00
01FE00
00FC00
00FC00
000000
000000
000000
F0007C
F0007C
F0007C
F0007C
F0007C
F0007C
F0007C
F0007C
F0007C
F0007C
F0007C
F0007C
F0007C
F0007C
F0007C
F0007C
F0007C
F0007C
F0007C
F0007C
F800FC
F800FC
FC01FC
7F07BC
7FFFBC
3FFF3C
0FFC3C
00C000
ENDCHAR
STARTCHAR 01D5
ENCODING 469
SWIDTH 600 0
DWIDTH 30 0
BBX 24 54 3 -1
BITMAP
07FFE0
07FFE0
07FFE0
07FFE0
000000
000000
000000
0700E0
0F81F0
0F81F0
0F81F0
0F81F0
0700E0
000000
000000
000000
000000
000000
F8001F
F8001F
F8001F
F8001F
F8001F
F8001F
F8001F
F8001F
F8001F
F8001F
F8001F
F8001F
F8001F
F8001F
F8001F
F8001F
F8001F
F8001F
F8001F
F8001F
F8001F
F8001F
F8001F
78001E
78001E
78001E
78001E
7C003E
7C003E
3E007C
3F007C
1F81F8
0FFFF0
07FFE0
03FFC0
001800
ENDCHAR
STARTCHAR 01D6
ENCODING 470
SWIDTH 600 0
DWIDTH 30 0
BBX 22 45 4 -1
BITMAP
0FFFC0
0FFFC0
0FFFC0
0FFFC0
000000
000000
000000
0E01C0
1F03E0
1F03E0
1F03E0
1F03E0
0E01C0
000000
000000
000000
000000
F0007C
F0007C
F0007C
F0007C
F0007C
F0007C
F0007C
F0007C
F0007C
F0007C
F0007C
F0007C
F0007C
F0007C
F0007C
F0007C
F0007C
F0007C
F0007C
F0007C
F800FC
F800FC
FC01FC
7F07BC
7FFFBC
3FFF3C
0FFC3C
00C000
ENDCHAR
STARTCHAR 01D7
ENCODING 471
SWIDTH 600 0
DWIDTH 30 0
BBX 24 57 3 -1
BITMAP
0003F0
0003E0
0007E0
0007C0
000F80
001F00
001E00
003C00
000000
000000
0700E0
0F81F0
0F81F0
0F81F0
0F81F0
0700E0
000000
000000
000000
000000
000000
F8001F
F8001F
F8001F
F8001F
F8001F
F8001F
F8001F
F8001F
F8001F
F8001F
F8001F
F8001F
F8001F
F8001F
F8001F
F8001F
F8001F
F8001F
F8001F
F8001F
F8001F
F8001F
F8001F
78001E
78001E
78001E
78001E
7C003E
7C003E
3E007C
3F007C
1F81F8
0FFFF0
07FFE0
03FFC0
001800
ENDCHAR
STARTCHAR 01D8
ENCODING 472
SWIDTH 600 0
DWIDTH 30 0
BBX 22 48 4 -1
BITMAP
0007E0
0007C0
000FC0
000F80
001F00
003E00
003C00
007800
000000
000000
0E01C0
1F03E0
1F03E0
1F03E0
1F03E0
0E01C0
000000
000000
000000
000000
F0007C
F0007C
F0007C
F0007C
F0007C
F0007C
F0007C
F0007C
F0007C
F0007C
F0007C
F0007C
F0007C
F0007C
F0007C
F0007C
F0007C
F0007C
F0007C
F0007C
F800FC
F800FC
FC01FC
7F07BC
7FFFBC
3FFF3C
0FFC3C
00C000
ENDCHAR
STARTCHAR 01D9
ENCODING 473
SWIDTH 600 0
DWIDTH 30 0
BBX 24 57 3 -1
BITMAP
0E0070
0F81F0
07C3E0
03E7C0
01FF80
00FF00
007E00
007E00
000000
000000
0700E0
0F81F0
0F81F0
0F81F0
0F81F0
0700E0
000000
000000
000000
000000
000000
F8001F
F8001F
F8001F
F8001F
F8001F
F8001F
F8001F
F8001F
F8001F
F8001F
F8001F
F8001F
F8001F
F8001F
F8001F
F8001F
F8001F
F8001F
F8001F
F8001F
F8001F
F8001F
F8001F
78001E
78001E
78001E
78001E
7C003E
7C003E
3E007C
3F007C
1F81F8
0FFFF0
07FFE0
03FFC0
001800
ENDCHAR
STARTCHAR 01DA
ENCODING 474
SWIDTH 600 0
DWIDTH 30 0
BBX 22 48 4 -1
BITMAP
1C00E0
1F03E0
0F87C0
07CF80
03FF00
01FE00
00FC00
00FC00
000000
000000
0E01C0
1F03E0
1F03E0
1F03E0
1F03E0
0E01C0
000000
000000
000000
000000
F0007C
F0007C
F0007C
F0007C
F0007C
F0007C
F0007C
F0007C
F0007C
F0007C
F0007C
F0007C
F0007C
F0007C
F0007C
F0007C
F0007C
F0007C
F0007C
F0007C
F800FC
F800FC
FC01FC
7F07BC
7FFFBC
3FFF3C
0FFC3C
00C000
ENDCHAR
STARTCHAR 01DB
ENCODING 475
SWIDTH 600 0
DWIDTH 30 0
BBX 24 57 3 -1
BITMAP
07E000
03F000
01F000
00F800
007800
003C00
001E00
000F00
000000
000000
0700E0
0F81F0
0F81F0
0F81F0
0F81F0
0700E0
000000
000000
000000
000000
000000
F8001F
F8001F
F8001F
F8001F
F8001F
F8001F
F8001F
F8001F
F8001F
F8001F
F8001F
F8001F
F8001F
F8001F
F8001F
F8001F
F8001F
F8001F
F8001F
F8001F
F8001F
F8001F
F8001F
78001E
78001E
78001E
78001E
7C003E
7C003E
3E007C
3F007C
1F81F8
0FFFF0
07FFE0
03FFC0
001800
ENDCHAR
STARTCHAR 01DC
ENCODING 476
SWIDTH 600 0
DWIDTH 30 0
BBX 22 48 4 -1
BITMAP
0FC000
07E000
03E000
01F000
00F000
007800
003C00
001E00
000000
000000
0E01C0
1F03E0
1F03E0
1F03E0
1F03E0
0E01C0
000000
000000
000000
000000
F0007C
F0007C
F0007C
F0007C
F0007C
F0007C
F0007C
F0007C
F0007C
F0007C
F0007C
F0007C
F0007C
F0007C
F0007C
F0007C
F0007C
F0007C
F0007C
F0007C
F800FC
F800FC
FC01FC
7F07BC
7FFFBC
3FFF3C
0FFC3C
00C000
ENDCHAR
STARTCHAR 01DD
ENCODING 477
SWIDTH 600 0
DWIDTH 30 0
BBX 24 29 3 -1
BITMAP
002000
0FFF00
7FFFC0
7FFFF0
7E07F8
6000FC
00007C
00003E
00003E
00001E
00001F
00001F
00001F
FFFFFF
FFFFFF
FFFFFF
FFFFFF
F8001F
F8001F
F8001E
78003E
7C003E
7C007C
3E00F8
1F83F8
1FFFF0
07FFC0
03FF80
003000
ENDCHAR
STARTCHAR 01DE
ENCODING 478
SWIDTH 600 0
DWIDTH 30 0
BBX 28 53 1 0
BITMAP
01FFF800
01FFF800
01FFF800
01FFF800
00000000
00000000
00000000
01C03800
03E07C00
03E07C00
03E07C00
03E07C00
01C03800
00000000
00000000
00000000
00000000
00000000
001F8000
001F8000
001F8000
003FC000
003FC000
003FC000
007FE000
0079E000
0079E000
00F9F000
00F0F000
00F0F000
01F0F800
01E07800
01E07800
03E07C00
03C03C00
03C03C00
07C03E00
07803E00
07FFFE00
0FFFFF00
0FFFFF00
0FFFFF00
1F000F80
1F000F80
1E000780
3E0007C0
3E0007C0
3C0003C0
7C0003E0
7C0003E0
780001E0
F80001F0
F80001F0
ENDCHAR
STARTCHAR 01DF
ENCODING 479
SWIDTH 600 0
DWIDTH 30 0
BBX 23 45 3 -1
BITMAP
07FFF0
07FFF0
07FFF0
07FFF0
000000
000000
000000
0700F0
0F81F0
0F81F8
0F81F8
0F80F0
0700F0
000000
000000
000000
001000
03FFC0
3FFFE0
1FFFF0
1F83F8
0C007C
00007C
00003C
00003C
00003C
00003E
00003E
00FFFE
07FFFE
1FFFFE
3FFFFE
7F003E
7C003E
78003E
78003E
F8003E
78007E
78007E
7C01FE
7F07FE
3FFF9E
1FFF1E
0FFC1E
00C000
ENDCHAR
STARTCHAR 01E0
ENCODING 480
SWIDTH 600 0
DWIDTH 30 0
BBX 28 53 1 0
BITMAP
01FFF800
01FFF800
01FFF800
01FFF800
00000000
00000000
00000000
000F0000
001F8000
001F8000
001F8000
001F8000
000F0000
00000000
00000000
00000000
00000000
00000000
001F8000
001F8000
001F8000
003FC000
003FC000
003FC000
007FE000
0079E000
0079E000
00F9F000
00F0F000
00F0F000
01F0F800
01E07800
01E07800
03E07C00
03C03C00
03C03C00
07C03E00
07803E00
07FFFE00
0FFFFF00
0FFFFF00
0FFFFF00
1F000F80
1F000F80
1E000780
3E0007C0
3E0007C0
3C0003C0
7C0003E0
7C0003E0
780001E0
F80001F0
F80001F0
ENDCHAR
STARTCHAR 01E1
ENCODING 481
SWIDTH 600 0
DWIDTH 30 0
BBX 23 45 3 -1
BITMAP
07FFF0
07FFF0
07FFF0
07FFF0
000000
000000
000000
003C00
007E00
007E00
007E00
007E00
003C00
000000
000000
000000
001000
03FFC0
3FFFE0
1FFFF0
1F83F8
0C007C
00007C
00003C
00003C
00003C
00003E
00003E
00FFFE
07FFFE
1FFFFE
3FFFFE
7F003E
7C003E
78003E
78003E
F8003E
78007E
78007E
7C01FE
7F07FE
3FFF9E
1FFF1E
0FFC1E
00C000
ENDCHAR
STARTCHAR 01E2
ENCODING 482
SWIDTH 600 0
DWIDTH 30 0
BBX 26 44 1 0
BITMAP
00FFFE00
00FFFE00
00FFFE00
00FFFE00
00000000
00000000
00000000
00000000
00000000
00FFFFC0
00FFFFC0
01FFFFC0
01FFFFC0
01E78000
01E78000
03C78000
03C78000
03C78000
03C78000
03C78000
07878000
07878000
07878000
07878000
0F87FF80
0F07FF80
0F07FF80
0F07FF80
0F078000
1FFF8000
1FFF8000
1FFF8000
1FFF8000
3E078000
3C078000
3C078000
3C078000
7C078000
7C078000
78078000
7807FFC0
7807FFC0
F807FFC0
F007FFC0
ENDCHAR
STARTCHAR 01E3
ENCODING 483
SWIDTH 600 0
DWIDTH 30 0
BBX 28 36 1 -1
BITMAP
01FFF800
01FFF800
01FFF800
01FFF800
00000000
00000000
00000000
00800800
0FF07F00
3FF8FF80
3FFDFFC0
1C3FE3C0
101FC1E0
001F81E0
000F81E0
000F00F0
000F00F0
000F00F0
000F00F0
07FFFFF0
1FFFFFF0
3FFFFFF0
7FFFFFF0
7C0F0000
F80F0000
F00F0000
F00F0000
F00F0000
F01F8000
F01F8000
F83FC020
7C7BF0E0
7FF9FFE0
3FF0FFE0
1FC07FC0
02000400
ENDCHAR
STARTCHAR 01E4
ENCODING 484
SWIDTH 600 0
DWIDTH 30 0
BBX 28 37 2 -1
BITMAP
00010000
003FFC00
01FFFF00
03FFFF00
07F81E00
0FC00200
1F800000
1F000000
3E000000
3E000000
7C000000
7C000000
7C000000
78000000
78000000
F8000000
F8000000
F807FF80
F807FF80
F807FF80
F807FF80
F8000F80
F8000F80
78000F80
7807FFF0
7C07FFF0
7C07FFF0
7C07FFF0
3E000F80
3F000F80
1F000F80
0FC00F80
0FF03F80
07FFFF80
01FFFF80
007FFC00
00030000
ENDCHAR
STARTCHAR 01E5
ENCODING 485
SWIDTH 600 0
DWIDTH 30 0
BBX 26 40 3 -12
BITMAP
00200000
03FE0E00
0FFF9E00
1FFFDE00
3F83FE00
3E00FE00
7C007E00
78003E00
F8003E00
F8003E00
F8001E00
F0001E00
F0001E00
F0001E00
F0001E00
F0001E00
F0001E00
F8001E00
F8003E00
F8003E00
7C003E00
7C007E00
3F00FE00
1FFFDE00
1FFFDE00
07FF1E00
01FC1E00
00001E00
00001E00
003FFFC0
003FFFC0
003FFFC0
003FFFC0
00003E00
20007C00
1C00FC00
1FFFF800
1FFFF000
1FFFE000
03FF8000
ENDCHAR
STARTCHAR 01E6
ENCODING 486
SWIDTH 600 0
DWIDTH 30 0
BBX 25 48 2 -1
BITMAP
03801E00
03E07C00
01F0F800
00F9F000
007FE000
003FC000
001F8000
001F8000
00000000
00000000
00000000
00010000
003FFC00
01FFFF00
03FFFF00
07F81E00
0FC00200
1F800000
1F000000
3E000000
3E000000
7C000000
7C000000
7C000000
78000000
78000000
F8000000
F8000000
F803FF80
F803FF80
F803FF80
F803FF80
F8000F80
F8000F80
78000F80
78000F80
7C000F80
7C000F80
7C000F80
3E000F80
3F000F80
1F000F80
0FC00F80
0FF01F80
07FFFF80
01FFFF80
007FFC00
00030000
ENDCHAR
STARTCHAR 01E7
ENCODING 487
SWIDTH 600 0
DWIDTH 30 0
BBX 23 50 3 -12
BITMAP
0E0070
0F81F0
07C3E0
03E7C0
01FF80
00FF00
007E00
007E00
000000
000000
002000
03FE1E
0FFF9E
1FFFDE
3F83FE
3E00FE
7C007E
7C003E
78003E
F8003E
F8001E
F8001E
F0001E
F0001E
F0001E
F0001E
F0001E
F8001E
F8001E
F8001E
F8003E
7C003E
7C007E
3E00FE
3F83FE
1FFFDE
0FFF9E
03FF1E
00301E
00001E
00001E
00003E
00003E
00003C
40007C
7001F8
7FFFF8
7FFFF0
3FFFC0
03FE00
ENDCHAR
STARTCHAR 01E8
ENCODING 488
SWIDTH 600 0
DWIDTH 30 0
BBX 25 47 3 0
BITMAP
0E007000
0F81F000
07C3E000
03E7C000
01FF8000
00FF0000
007E0000
007E0000
00000000
00000000
00000000
00000000
F8001F00
F8003E00
F8007C00
F800F800
F801F800
F801F000
F803E000
F807C000
F80FC000
F80F8000
F81F0000
F83E0000
F87E0000
F87C0000
F8F80000
F9F00000
F9F00000
FBF80000
FFFC0000
FFFC0000
FF3E0000
FE1F0000
FC1F0000
F80F8000
F807C000
F807C000
F803E000
F801F000
F801F000
F800F800
F800FC00
F8007C00
F8003E00
F8003F00
F8001F80
ENDCHAR
STARTCHAR 01E9
ENCODING 489
SWIDTH 600 0
DWIDTH 30 0
BBX 24 49 5 0
BITMAP
0E0070
0F81F0
07C3E0
03E7C0
01FF80
00FF00
007E00
007E00
000000
000000
000000
F80000
F80000
F80000
F80000
F80000
F80000
F80000
F80000
F80000
F80000
F80000
F8007E
F800F8
F801F8
F803F0
F807E0
F80FC0
F80F80
F81F00
F83E00
F87C00
F8F800
F9F000
FBF800
F7FC00
F7FC00
FF3E00
FE1F00
FC1F00
F80F80
F807C0
F803E0
F803E0
F801F0
F800F8
F800FC
F8007C
F8003F
ENDCHAR
STARTCHAR 01EA
ENCODING 490
SWIDTH 600 0
DWIDTH 30 0
BBX 26 47 2 -11
BITMAP
00080000
00FFC000
03FFF000
07FFF800
0FE0FC00
1F807E00
1F003E00
3E001F00
3C000F00
7C000F80
7C000F80
78000F80
78000780
78000780
F80007C0
F80007C0
F80007C0
F80007C0
F80007C0
F80007C0
F80007C0
F80007C0
F80007C0
78000780
78000780
78000F80
7C000F80
7C000F80
3C000F00
3E001F00
1F003E00
1F807E00
0FE0FC00
07FFF800
03FFF000
00FFC000
000E0000
001E0000
003C0000
00380000
00780000
00780000
00780000
00780000
007F8000
003F8000
001F8000
ENDCHAR
STARTCHAR 01EB
ENCODING 491
SWIDTH 600 0
DWIDTH 30 0
BBX 24 39 3 -11
BITMAP
001000
01FF80
07FFE0
0FFFF0
1F83F8
3E00FC
7C007E
7C003E
78001E
F8001F
F8001F
F0001F
F0000F
F0000F
F0000F
F0000F
F0000F
F0001F
F8001F
F8001F
78001E
7C003E
7C007E
3F00FC
1F81F8
0FFFF0
07FFE0
01FF80
001C00
003C00
007800
007000
00F000
00F000
00F000
00F000
00FF00
007F00
003F00
ENDCHAR
STARTCHAR 01EC
ENCODING 492
SWIDTH 600 0
DWIDTH 30 0
BBX 26 55 2 -11
BITMAP
03FFF000
03FFF000
03FFF000
03FFF000
00000000
00000000
00000000
00000000
00080000
00FFC000
03FFF000
07FFF800
0FE0FC00
1F807E00
1F003E00
3E001F00
3C000F00
7C000F80
7C000F80
78000F80
78000780
78000780
F80007C0
F80007C0
F80007C0
F80007C0
F80007C0
F80007C0
F80007C0
F80007C0
F80007C0
78000780
78000780
78000F80
7C000F80
7C000F80
3C000F00
3E001F00
1F003E00
1F807E00
0FE0FC00
07FFF800
03FFF000
00FFC000
000E0000
001E0000
003C0000
00380000
00780000
00780000
00780000
00780000
007F8000
003F8000
001F8000
ENDCHAR
STARTCHAR 01ED
ENCODING 493
SWIDTH 600 0
DWIDTH 30 0
BBX 24 46 3 -11
BITMAP
07FFE0
07FFE0
07FFE0
07FFE0
000000
000000
000000
001000
01FF80
07FFE0
0FFFF0
1F83F8
3E00FC
7C007E
7C003E
78001E
F8001F
F8001F
F0001F
F0000F
F0000F
F0000F
F0000F
F0000F
F0001F
F8001F
F8001F
78001E
7C003E
7C007E
3F00FC
1F81F8
0FFFF0
07FFE0
01FF80
001C00
003C00
007800
007000
00F000
00F000
00F000
00F000
00FF00
007F00
003F00
ENDCHAR
STARTCHAR 01EE
ENCODING 494
SWIDTH 600 0
DWIDTH 30 0
BBX 25 48 2 -1
BITMAP
07003800
07C0F800
03E1F000
01F3E000
00FFC000
007F8000
003F0000
003F0000
00000000
00000000
00000000
00000000
7FFFFE00
7FFFFE00
7FFFFE00
7FFFFE00
00007C00
0000F800
0001F000
0003E000
000FC000
001F8000
003F0000
007E0000
00FC0000
01F80000
03F00000
03FF0000
03FFE000
03FFF800
03FFFC00
0000FE00
00003F00
00001F00
00000F80
00000F80
00000F80
00000F80
00000F80
00000F00
00001F00
00003F00
C0007E00
FE03FC00
FFFFF800
FFFFF000
3FFFC000
00600000
ENDCHAR
STARTCHAR 01EF
ENCODING 495
SWIDTH 600 0
DWIDTH 30 0
BBX 23 50 3 -12
BITMAP
1E00F0
0F01E0
0F87C0
07CF80
03FF00
01FE00
00FC00
007C00
000000
000000
000000
FFFFFC
FFFFFC
FFFFFC
FFFFFC
0000F8
0001F0
0003E0
0007C0
000F80
001F00
003E00
003C00
007800
00F800
01F000
03E000
07FE00
07FFC0
07FFF0
07FFF8
0001FC
00007C
00003E
00003E
00001E
00001E
00001E
00001E
00001E
00001E
00003E
00003E
00007C
8000FC
E001F8
FFFFF0
FFFFE0
FFFF80
0FFC00
ENDCHAR
STARTCHAR 01F0
ENCODING 496
SWIDTH 600 0
DWIDTH 30 0
BBX 22 50 3 -12
BITMAP
03801C
03E07C
01F0F8
00F9F0
007FE0
003FC0
001F80
001F80
000000
000000
000000
0FFF80
0FFF80
0FFF80
0FFF80
000F80
000F80
000F80
000F80
000F80
000F80
000F80
000F80
000F80
000F80
000F80
000F80
000F80
000F80
000F80
000F80
000F80
000F80
000F80
000F80
000F80
000F80
000F80
000F80
000F80
000F80
000F80
000F80
000F00
001F00
803F00
FFFE00
FFFC00
FFF800
7FC000
ENDCHAR
STARTCHAR 01F1
ENCODING 497
SWIDTH 1200 0
DWIDTH 60 0
BBX 48 35 6 0
BITMAP
FFF80007FFFF
FFFF0007FFFF
FFFF8007FFFF
FFFFE007FFFF
F007F000001E
F001F800003E
F000F800003C
F0007C00007C
F0007C000078
F0003E0000F8
F0003E0000F0
F0001E0001E0
F0001F0003E0
F0001F0003C0
F0001F0007C0
F0001F000780
F0001F000F80
F0001F000F00
F0001F001F00
F0001F003E00
F0001F003C00
F0001F007C00
F0001E007800
F0001E00F800
F0003E00F000
F0003E01F000
F0007C01E000
F0007C03E000
F000F807C000
F003F0078000
F00FF00F8000
FFFFC00FFFFF
FFFF800FFFFF
FFFE000FFFFF
FFF0000FFFFF
ENDCHAR
STARTCHAR 01F2
ENCODING 498
SWIDTH 1200 0
DWIDTH 60 0
BBX 53 35 3 0
BITMAP
FFFC0000000000
FFFF8000000000
FFFFC000000000
FFFFF000000000
F803F800000000
F801F800000000
F8007C00000000
F8003E00000000
F8003E00FFFFF0
F8001F00FFFFF0
F8001F00FFFFF0
F8001F00FFFFF0
F8000F000001F0
F8000F800003E0
F8000F800007C0
F8000F80000F80
F8000F80001F00
F8000F80001F00
F8000F80003E00
F8000F80007C00
F8000F8000F800
F8000F0000F800
F8000F0001F000
F8001F0003E000
F8001F0007C000
F8001E00078000
F8003E000F8000
F8007E001F0000
F800FC003E0000
F801F8003C0000
F807F0007C0000
FFFFE000FFFFF8
FFFFC001FFFFF8
FFFF0001FFFFF8
FFF80001FFFFF8
ENDCHAR
STARTCHAR 01F3
ENCODING 499
SWIDTH 1200 0
DWIDTH 60 0
BBX 53 39 3 -1
BITMAP
00001E00000000
00001E00000000
00001E00000000
00001E00000000
00001E00000000
00001E00000000
00001E00000000
00001E00000000
00001E00000000
00001E00000000
00101E00000000
03FF1E00FFFFF0
0FFF9E00FFFFF0
1FFFDE00FFFFF0
3F83FE00FFFFF0
3F00FE000001F0
7C007E000003E0
7C007E000007C0
F8003E00000F80
F8003E00001F00
F8003E00001F00
F8003E00003E00
F0003E00007C00
F0001E0000F800
F0001E0000F800
F0001E0001F000
F0001E0003E000
F0003E0007C000
F8003E00078000
F8003E000F8000
F8003E001F0000
7C007E003E0000
7C007E003C0000
3E00FE007C0000
3F83FE00FFFFF8
1FFFDE01FFFFF8
0FFF9E01FFFFF8
03FE1E01FFFFF8
00200000000000
ENDCHAR
STARTCHAR 01F4
ENCODING 500
SWIDTH 600 0
DWIDTH 30 0
BBX 25 48 2 -1
BITMAP
00007C00
0000F800
0001F800
0001F000
0003E000
0007C000
00078000
000F0000
00000000
00000000
00000000
00010000
003FFC00
01FFFF00
03FFFF00
07F81E00
0FC00200
1F800000
1F000000
3E000000
3E000000
7C000000
7C000000
7C000000
78000000
78000000
F8000000
F8000000
F803FF80
F803FF80
F803FF80
F803FF80
F8000F80
F8000F80
78000F80
78000F80
7C000F80
7C000F80
7C000F80
3E000F80
3F000F80
1F000F80
0FC00F80
0FF01F80
07FFFF80
01FFFF80
007FFC00
00030000
ENDCHAR
STARTCHAR 01F5
ENCODING 501
SWIDTH 600 0
DWIDTH 30 0
BBX 23 50 3 -12
BITMAP
0003F0
0003E0
0007E0
0007C0
000F80
001F00
001E00
003C00
000000
000000
002000
03FE1E
0FFF9E
1FFFDE
3F83FE
3E00FE
7C007E
7C003E
78003E
F8003E
F8001E
F8001E
F0001E
F0001E
F0001E
F0001E
F0001E
F8001E
F8001E
F8001E
F8003E
7C003E
7C007E
3E00FE
3F83FE
1FFFDE
0FFF9E
03FF1E
00301E
00001E
00001E
00003E
00003E
00003C
40007C
7001F8
7FFFF8
7FFFF0
3FFFC0
03FE00
ENDCHAR
STARTCHAR 01F6
ENCODING 502
SWIDTH 600 0
DWIDTH 30 0
BBX 24 36 3 -1
BITMAP
F03C00
F03C00
F03C00
F03C00
F03C00
F03C00
F03C00
F03C00
F03C0F
F03C0F
F03C0F
F03C0F
F03C0F
F03C0F
F03C0F
FFFC0F
FFFC0F
FFFC0F
FFFC0F
F03C0F
F03C0F
F03C0F
F03C0F
F03C0F
F03C0F
F03C0F
F03C0F
F03C0F
F03C0F
F03C0F
F03E1F
F01F1F
F01FFE
F00FFC
F007F8
000040
ENDCHAR
STARTCHAR 01F7
ENCODING 503
SWIDTH 600 0
DWIDTH 30 0
BBX 24 48 4 -12
BITMAP
000400
F07FE0
F0FFF0
F3FFF8
F3C1FC
FF007E
FE003E
FE001E
FC001F
FC001F
F8001F
F8000F
F8000F
F8001F
F8001F
F8001F
F8001F
F8001E
F8001E
F8003E
F8003E
F8007C
F8007C
F800F8
F801F0
F803F0
F807E0
F80FC0
F81F80
F83F00
F8FE00
F9FC00
FFF000
FFE000
FF8000
FE0000
F80000
F80000
F80000
F80000
F80000
F80000
F80000
F80000
F80000
F80000
F80000
F80000
ENDCHAR
STARTCHAR 01F8
ENCODING 504
SWIDTH 600 0
DWIDTH 30 0
BBX 24 47 3 0
BITMAP
03E000
03F000
01F000
00F800
007C00
003C00
001E00
000F00
000000
000000
000000
000000
FE001F
FE001F
FF001F
FF001F
FF001F
F7801F
F7801F
F3C01F
FBC01F
F9E01F
F9E01F
F9F01F
F8F01F
F8F01F
F8781F
F8781F
F83C1F
F83C1F
F81E1F
F81E1F
F80F1F
F80F1F
F80F1F
F8079F
F8079F
F803DF
F803DF
F801FF
F801EF
F800FF
F800FF
F800FF
F8007F
F8007F
F8003F
ENDCHAR
STARTCHAR 01F9
ENCODING 505
SWIDTH 600 0
DWIDTH 30 0
BBX 22 38 4 0
BITMAP
07E000
03E000
01F000
01F000
00F800
007C00
003C00
000E00
000000
000000
000400
F0FFC0
F3FFE0
F7FFF0
F783F8
FE00FC
FC007C
FC007C
F8003C
F8003C
F8003C
F8003C
F8003C
F8003C
F8003C
F8003C
F8003C
F8003C
F8003C
F8003C
F8003C
F8003C
F8003C
F8003C
F8003C
F8003C
F8003C
F8003C
ENDCHAR
STARTCHAR 01FA
ENCODING 506
SWIDTH 600 0
DWIDTH 30 0
BBX 28 53 1 0
BITMAP
0000FC00
0000F800
0001F800
0001F000
0003E000
0007C000
00078000
000F0000
00000000
000F0000
003FC000
007FE000
0070E000
0060E000
00E07000
00606000
0070E000
007FE000
003FC000
001F8000
001F8000
003FC000
003FC000
003FC000
007FE000
0079E000
0079E000
00F9F000
00F0F000
00F0F000
01F0F800
01E07800
01E07800
03E07C00
03C03C00
03C03C00
07C03E00
07803E00
07FFFE00
0FFFFF00
0FFFFF00
0FFFFF00
1F000F80
1F000F80
1E000780
3E0007C0
3E0007C0
3C0003C0
7C0003E0
7C0003E0
780001E0
F80001F0
F80001F0
ENDCHAR
STARTCHAR 01FB
ENCODING 507
SWIDTH 600 0
DWIDTH 30 0
BBX 23 53 3 -1
BITMAP
0001F0
0003F0
0003E0
0007C0
000F80
000F00
001E00
003C00
000000
000000
000000
003C00
00FF00
01FF80
01E380
01C1C0
01C1C0
01C1C0
01C380
01FF80
00FF00
003E00
000000
000000
001000
03FFC0
3FFFE0
1FFFF0
1F83F8
0C007C
00007C
00003C
00003C
00003C
00003E
00003E
00FFFE
07FFFE
1FFFFE
3FFFFE
7F003E
7C003E
78003E
78003E
F8003E
78007E
78007E
7C01FE
7F07FE
3FFF9E
1FFF1E
0FFC1E
00C000
ENDCHAR
STARTCHAR 01FC
ENCODING 508
SWIDTH 600 0
DWIDTH 30 0
BBX 26 47 1 0
BITMAP
00003E00
00007E00
00007C00
0000F800
0001F000
0001E000
0003C000
00078000
00000000
00000000
00000000
00000000
00FFFFC0
00FFFFC0
01FFFFC0
01FFFFC0
01E78000
01E78000
03C78000
03C78000
03C78000
03C78000
03C78000
07878000
07878000
07878000
07878000
0F87FF80
0F07FF80
0F07FF80
0F07FF80
0F078000
1FFF8000
1FFF8000
1FFF8000
1FFF8000
3E078000
3C078000
3C078000
3C078000
7C078000
7C078000
78078000
7807FFC0
7807FFC0
F807FFC0
F007FFC0
ENDCHAR
STARTCHAR 01FD
ENCODING 509
SWIDTH 600 0
DWIDTH 30 0
BBX 28 39 1 -1
BITMAP
0000FC00
0000F800
0001F800
0001F000
0003E000
0007C000
00078000
000F0000
00000000
00000000
00800800
0FF07F00
3FF8FF80
3FFDFFC0
1C3FE3C0
101FC1E0
001F81E0
000F81E0
000F00F0
000F00F0
000F00F0
000F00F0
07FFFFF0
1FFFFFF0
3FFFFFF0
7FFFFFF0
7C0F0000
F80F0000
F00F0000
F00F0000
F00F0000
F01F8000
F01F8000
F83FC020
7C7BF0E0
7FF9FFE0
3FF0FFE0
1FC07FC0
02000400
ENDCHAR
STARTCHAR 01FE
ENCODING 510
SWIDTH 600 0
DWIDTH 30 0
BBX 26 49 2 -2
BITMAP
0001F800
0001F000
0003F000
0003E000
0007C000
000F8000
000F0000
001E0000
00000000
00000000
00000200
00080300
00FFC7C0
03FFFF80
07FFFF00
0FE1FF00
1F807E00
1F003E00
3E003F00
3C007F00
7C00FF80
7C00FF80
7801E780
7801E780
7803C780
F807C7C0
F80787C0
F80F87C0
F80F07C0
F81E07C0
F81E07C0
F83C07C0
F87C07C0
F87807C0
78F80780
78F00780
79E00F80
7DE00F80
7FC00F80
3FC00F00
3F801F00
1F803E00
1F807E00
1FE0FC00
3FFFF800
3FFFF000
7CFFC000
780C0000
10000000
ENDCHAR
STARTCHAR 01FF
ENCODING 511
SWIDTH 600 0
DWIDTH 30 0
BBX 24 40 3 -2
BITMAP
0003F0
0003E0
0007E0
0007C0
000F80
001F00
001E00
003C00
000000
000000
00100C
01FF9F
07FFFE
0FFFFC
1F83FC
3E00FC
7C00FC
7C01FE
7803FE
F803DF
F8079F
F00F9F
F00F0F
F01E0F
F03C0F
F07C0F
F0780F
F0F01F
F9F01F
F9E01F
7BC01E
7F803E
7F807E
3F00FC
1FC1F8
3FFFF0
3FFFE0
79FF80
301800
100000
ENDCHAR
STARTCHAR 0200
ENCODING 512
SWIDTH 600 0
DWIDTH 30 0
BBX 28 47 1 0
BITMAP
1F8F8000
0F87C000
07C3C000
03C3E000
01E1F000
01E0F000
00F07800
00383800
00000000
00000000
00000000
00000000
001F8000
001F8000
001F8000
003FC000
003FC000
003FC000
007FE000
0079E000
0079E000
00F9F000
00F0F000
00F0F000
01F0F800
01E07800
01E07800
03E07C00
03C03C00
03C03C00
07C03E00
07803E00
07FFFE00
0FFFFF00
0FFFFF00
0FFFFF00
1F000F80
1F000F80
1E000780
3E0007C0
3E0007C0
3C0003C0
7C0003E0
7C0003E0
780001E0
F80001F0
F80001F0
ENDCHAR
STARTCHAR 0201
ENCODING 513
SWIDTH 600 0
DWIDTH 30 0
BBX 23 39 3 -1
BITMAP
3E1F00
3E1F00
1F0F80
0F0780
0783C0
03C1C0
01C1E0
00E070
000000
000000
001000
03FFC0
3FFFE0
1FFFF0
1F83F8
0C007C
00007C
00003C
00003C
00003C
00003E
00003E
00FFFE
07FFFE
1FFFFE
3FFFFE
7F003E
7C003E
78003E
78003E
F8003E
78007E
78007E
7C01FE
7F07FE
3FFF9E
1FFF1E
0FFC1E
00C000
ENDCHAR
STARTCHAR 0202
ENCODING 514
SWIDTH 600 0
DWIDTH 30 0
BBX 28 48 1 0
BITMAP
001F8000
007FE000
00FFF000
01FFF800
01E03800
03C03C00
03801C00
00000000
00000000
00000000
00000000
00000000
00000000
001F8000
001F8000
001F8000
003FC000
003FC000
003FC000
007FE000
0079E000
0079E000
00F9F000
00F0F000
00F0F000
01F0F800
01E07800
01E07800
03E07C00
03C03C00
03C03C00
07C03E00
07803E00
07FFFE00
0FFFFF00
0FFFFF00
0FFFFF00
1F000F80
1F000F80
1E000780
3E0007C0
3E0007C0
3C0003C0
7C0003E0
7C0003E0
780001E0
F80001F0
F80001F0
ENDCHAR
STARTCHAR 0203
ENCODING 515
SWIDTH 600 0
DWIDTH 30 0
BBX 23 40 3 -1
BITMAP
007E00
01FF80
03FFE0
07FFE0
0780F0
070070
0E0070
000000
000000
000000
000000
001000
03FFC0
3FFFE0
1FFFF0
1F83F8
0C007C
00007C
00003C
00003C
00003C
00003E
00003E
00FFFE
07FFFE
1FFFFE
3FFFFE
7F003E
7C003E
78003E
78003E
F8003E
78007E
78007E
7C01FE
7F07FE
3FFF9E
1FFF1E
0FFC1E
00C000
ENDCHAR
STARTCHAR 0204
ENCODING 516
SWIDTH 600 0
DWIDTH 30 0
BBX 21 47 5 0
BITMAP
F87C00
F87C00
7C3E00
3C1E00
1E0F00
0F0700
070380
0381C0
000000
000000
000000
000000
FFFFF8
FFFFF8
FFFFF8
FFFFF8
F00000
F00000
F00000
F00000
F00000
F00000
F00000
F00000
F00000
F00000
F00000
FFFFF0
FFFFF0
FFFFF0
FFFFF0
F00000
F00000
F00000
F00000
F00000
F00000
F00000
F00000
F00000
F00000
F00000
F00000
FFFFF8
FFFFF8
FFFFF8
FFFFF8
ENDCHAR
STARTCHAR 0205
ENCODING 517
SWIDTH 600 0
DWIDTH 30 0
BBX 24 39 3 -1
BITMAP
3E3F00
3E1F00
1F0F80
0F0780
0783C0
03C3C0
01C1E0
00E070
000000
000000
000800
01FFC0
03FFE0
0FFFF8
1FC1F8
3F007C
3E003E
7C003E
7C001E
78001F
F8001F
F8001F
FFFFFF
FFFFFF
FFFFFF
FFFFFF
F80000
F80000
F80000
780000
7C0000
7C0000
3E0000
3F0006
1FE07E
0FFFFE
03FFFE
00FFF8
000600
ENDCHAR
STARTCHAR 0206
ENCODING 518
SWIDTH 600 0
DWIDTH 30 0
BBX 21 48 5 0
BITMAP
01FC00
07FE00
0FFF80
1FFF80
1E03C0
1C01C0
3801C0
000000
000000
000000
000000
000000
000000
FFFFF8
FFFFF8
FFFFF8
FFFFF8
F00000
F00000
F00000
F00000
F00000
F00000
F00000
F00000
F00000
F00000
F00000
FFFFF0
FFFFF0
FFFFF0
FFFFF0
F00000
F00000
F00000
F00000
F00000
F00000
F00000
F00000
F00000
F00000
F00000
F00000
FFFFF8
FFFFF8
FFFFF8
FFFFF8
ENDCHAR
STARTCHAR 0207
ENCODING 519
SWIDTH 600 0
DWIDTH 30 0
BBX 24 40 3 -1
BITMAP
007E00
01FF80
03FFC0
07FFE0
0780F0
0F0070
0E0070
000000
000000
000000
000000
000800
01FFC0
03FFE0
0FFFF8
1FC1F8
3F007C
3E003E
7C003E
7C001E
78001F
F8001F
F8001F
FFFFFF
FFFFFF
FFFFFF
FFFFFF
F80000
F80000
F80000
780000
7C0000
7C0000
3E0000
3F0006
1FE07E
0FFFFE
03FFFE
00FFF8
000600
ENDCHAR
STARTCHAR 0208
ENCODING 520
SWIDTH 600 0
DWIDTH 30 0
BBX 21 47 4 0
BITMAP
FC7C00
7C3E00
3E1E00
1E1F00
0F0F80
0F0780
0783C0
01C1C0
000000
000000
000000
000000
7FFFF8
7FFFF8
7FFFF8
0FFFC0
007800
007800
007800
007800
007800
007800
007800
007800
007800
007800
007800
007800
007800
007800
007800
007800
007800
007800
007800
007800
007800
007800
007800
007800
007800
007800
007800
01FE00
7FFFF8
7FFFF8
7FFFF8
ENDCHAR
STARTCHAR 0209
ENCODING 521
SWIDTH 600 0
DWIDTH 30 0
BBX 23 38 4 0
BITMAP
FC7C00
7C3E00
3E1E00
1E1F00
0F0F80
0F0780
0783C0
01C1C0
000000
000000
000000
7FFC00
7FFC00
7FFC00
07FC00
003C00
003C00
003C00
003C00
003C00
003C00
003C00
003C00
003C00
003C00
003C00
003C00
003C00
003C00
003C00
003C00
003C00
003C00
003C00
03FFC0
FFFFFE
FFFFFE
FFFFFE
ENDCHAR
STARTCHAR 020A
ENCODING 522
SWIDTH 600 0
DWIDTH 30 0
BBX 20 48 5 0
BITMAP
01F800
07FE00
0FFF00
1FFF80
1E0380
3C03C0
3801C0
000000
000000
000000
000000
000000
000000
FFFFF0
FFFFF0
FFFFF0
1FFF80
00F000
00F000
00F000
00F000
00F000
00F000
00F000
00F000
00F000
00F000
00F000
00F000
00F000
00F000
00F000
00F000
00F000
00F000
00F000
00F000
00F000
00F000
00F000
00F000
00F000
00F000
00F000
03FC00
FFFFF0
FFFFF0
FFFFF0
ENDCHAR
STARTCHAR 020B
ENCODING 523
SWIDTH 600 0
DWIDTH 30 0
BBX 23 39 4 0
BITMAP
00FC00
03FF00
07FF80
0FFFC0
0F01C0
1E01E0
1C00E0
000000
000000
000000
000000
000000
7FFC00
7FFC00
7FFC00
07FC00
003C00
003C00
003C00
003C00
003C00
003C00
003C00
003C00
003C00
003C00
003C00
003C00
003C00
003C00
003C00
003C00
003C00
003C00
003C00
03FFC0
FFFFFE
FFFFFE
FFFFFE
ENDCHAR
STARTCHAR 020C
ENCODING 524
SWIDTH 600 0
DWIDTH 30 0
BBX 26 48 2 -1
BITMAP
3F1F0000
1F0F8000
0F878000
0787C000
03C3E000
03C1E000
01E0F000
00707000
00000000
00000000
00000000
00080000
00FFC000
03FFF000
07FFF800
0FE0FC00
1F807E00
1F003E00
3E001F00
3C000F00
7C000F80
7C000F80
78000F80
78000780
78000780
F80007C0
F80007C0
F80007C0
F80007C0
F80007C0
F80007C0
F80007C0
F80007C0
F80007C0
78000780
78000780
78000F80
7C000F80
7C000F80
3C000F00
3E001F00
1F003E00
1F807E00
0FE0FC00
07FFF800
03FFF000
00FFC000
000C0000
ENDCHAR
STARTCHAR 020D
ENCODING 525
SWIDTH 600 0
DWIDTH 30 0
BBX 24 39 3 -1
BITMAP
7E3E00
3E1F00
1F0F00
0F0F80
0787C0
0783C0
03C1E0
00E0E0
000000
000000
001000
01FF80
07FFE0
0FFFF0
1F83F8
3E00FC
7C007E
7C003E
78001E
F8001F
F8001F
F0001F
F0000F
F0000F
F0000F
F0000F
F0000F
F0001F
F8001F
F8001F
78001E
7C003E
7C007E
3F00FC
1F81F8
0FFFF0
07FFE0
01FF80
001800
ENDCHAR
STARTCHAR 020E
ENCODING 526
SWIDTH 600 0
DWIDTH 30 0
BBX 26 49 2 -1
BITMAP
003F0000
00FFC000
01FFE000
03FFF000
03C07000
07807800
07003800
00000000
00000000
00000000
00000000
00000000
00080000
00FFC000
03FFF000
07FFF800
0FE0FC00
1F807E00
1F003E00
3E001F00
3C000F00
7C000F80
7C000F80
78000F80
78000780
78000780
F80007C0
F80007C0
F80007C0
F80007C0
F80007C0
F80007C0
F80007C0
F80007C0
F80007C0
78000780
78000780
78000F80
7C000F80
7C000F80
3C000F00
3E001F00
1F003E00
1F807E00
0FE0FC00
07FFF800
03FFF000
00FFC000
000C0000
ENDCHAR
STARTCHAR 020F
ENCODING 527
SWIDTH 600 0
DWIDTH 30 0
BBX 24 40 3 -1
BITMAP
007E00
01FF80
03FFC0
07FFE0
0780E0
0F00F0
0E0070
000000
000000
000000
000000
001000
01FF80
07FFE0
0FFFF0
1F83F8
3E00FC
7C007E
7C003E
78001E
F8001F
F8001F
F0001F
F0000F
F0000F
F0000F
F0000F
F0000F
F0001F
F8001F
F8001F
78001E
7C003E
7C007E
3F00FC
1F81F8
0FFFF0
07FFE0
01FF80
001800
ENDCHAR
STARTCHAR 0210
ENCODING 528
SWIDTH 600 0
DWIDTH 30 0
BBX 24 47 4 0
BITMAP
FC7C00
7C3E00
3E1E00
1E1F00
0F0F80
0F0780
0783C0
01C1C0
000000
000000
000000
000000
7FFC00
7FFF80
7FFFE0
7FFFF0
7803F0
7801F8
7800F8
780078
78007C
78007C
78007C
78007C
780078
7800F8
7800F8
7801F0
7807E0
7FFFC0
7FFF80
7FFE00
7FFF00
781F00
780F80
780780
7807C0
7803E0
7803E0
7801F0
7800F0
7800F8
78007C
78007C
78003E
78001F
78001F
ENDCHAR
STARTCHAR 0211
ENCODING 529
SWIDTH 600 0
DWIDTH 30 0
BBX 26 38 3 0
BITMAP
1F8F8000
0F87C000
07C3C000
03C3E000
01E1F000
01E0F000
00F07800
00383800
00000000
00000000
00000800
7FF0FFC0
7FF1FF80
7FF3FF80
00F7C180
00F70000
00FE0000
00FE0000
00FC0000
00FC0000
00F80000
00F80000
00F80000
00F80000
00F80000
00F80000
00F80000
00F80000
00F80000
00F80000
00F80000
00F80000
00F80000
00F80000
07FF0000
FFFFF800
FFFFF800
FFFFF800
ENDCHAR
STARTCHAR 0212
ENCODING 530
SWIDTH 600 0
DWIDTH 30 0
BBX 23 48 5 0
BITMAP
01F800
07FE00
0FFF00
1FFF80
1E0380
3C03C0
3801C0
000000
000000
000000
000000
000000
000000
FFF800
FFFF00
FFFFC0
FFFFE0
F007E0
F003F0
F001F0
F000F0
F000F8
F000F8
F000F8
F000F8
F000F0
F001F0
F001F0
F003E0
F00FC0
FFFF80
FFFF00
FFFC00
FFFE00
F03E00
F01F00
F00F00
F00F80
F007C0
F007C0
F003E0
F001E0
F001F0
F000F8
F000F8
F0007C
F0003E
F0003E
ENDCHAR
STARTCHAR 0213
ENCODING 531
SWIDTH 600 0
DWIDTH 30 0
BBX 26 39 3 0
BITMAP
001F8000
007FE000
00FFF000
01FFF800
01E03800
03C03C00
03801C00
00000000
00000000
00000000
00000000
00000800
7FF0FFC0
7FF1FF80
7FF3FF80
00F7C180
00F70000
00FE0000
00FE0000
00FC0000
00FC0000
00F80000
00F80000
00F80000
00F80000
00F80000
00F80000
00F80000
00F80000
00F80000
00F80000
00F80000
00F80000
00F80000
00F80000
07FF0000
FFFFF800
FFFFF800
FFFFF800
ENDCHAR
STARTCHAR 0214
ENCODING 532
SWIDTH 600 0
DWIDTH 30 0
BBX 24 48 3 -1
BITMAP
7E3E00
3E1F00
1F0F00
0F0F80
0787C0
0783C0
03C1E0
00E0E0
000000
000000
000000
000000
F8001F
F8001F
F8001F
F8001F
F8001F
F8001F
F8001F
F8001F
F8001F
F8001F
F8001F
F8001F
F8001F
F8001F
F8001F
F8001F
F8001F
F8001F
F8001F
F8001F
F8001F
F8001F
F8001F
78001E
78001E
78001E
78001E
7C003E
7C003E
3E007C
3F007C
1F81F8
0FFFF0
07FFE0
03FFC0
001800
ENDCHAR
STARTCHAR 0215
ENCODING 533
SWIDTH 600 0
DWIDTH 30 0
BBX 22 39 4 -1
BITMAP
FC7C00
7C3E00
3E1E00
1E1F00
0F0F80
0F0780
0783C0
01C1C0
000000
000000
000000
F0007C
F0007C
F0007C
F0007C
F0007C
F0007C
F0007C
F0007C
F0007C
F0007C
F0007C
F0007C
F0007C
F0007C
F0007C
F0007C
F0007C
F0007C
F0007C
F0007C
F800FC
F800FC
FC01FC
7F07BC
7FFFBC
3FFF3C
0FFC3C
00C000
ENDCHAR
STARTCHAR 0216
ENCODING 534
SWIDTH 600 0
DWIDTH 30 0
BBX 24 49 3 -1
BITMAP
007E00
01FF80
03FFC0
07FFE0
0780E0
0F00F0
0E0070
000000
000000
000000
000000
000000
000000
F8001F
F8001F
F8001F
F8001F
F8001F
F8001F
F8001F
F8001F
F8001F
F8001F
F8001F
F8001F
F8001F
F8001F
F8001F
F8001F
F8001F
F8001F
F8001F
F8001F
F8001F
F8001F
F8001F
78001E
78001E
78001E
78001E
7C003E
7C003E
3E007C
3F007C
1F81F8
0FFFF0
07FFE0
03FFC0
001800
ENDCHAR
STARTCHAR 0217
ENCODING 535
SWIDTH 600 0
DWIDTH 30 0
BBX 22 40 4 -1
BITMAP
00FC00
03FF00
07FF80
0FFFC0
0F01C0
1E01E0
1C00E0
000000
000000
000000
000000
000000
F0007C
F0007C
F0007C
F0007C
F0007C
F0007C
F0007C
F0007C
F0007C
F0007C
F0007C
F0007C
F0007C
F0007C
F0007C
F0007C
F0007C
F0007C
F0007C
F0007C
F800FC
F800FC
FC01FC
7F07BC
7FFFBC
3FFF3C
0FFC3C
00C000
ENDCHAR
STARTCHAR 0218
ENCODING 536
SWIDTH 600 0
DWIDTH 30 0
BBX 22 47 4 -11
BITMAP
000800
01FFE0
07FFFC
1FFFF8
1FC0F8
3E0018
3C0000
7C0000
7C0000
7C0000
7C0000
7C0000
7C0000
3E0000
3F8000
1FE000
0FF800
07FF00
01FF80
007FE0
001FF0
0007F8
0001FC
00007C
00007C
00003C
00003C
00003C
00003C
00007C
00007C
C000F8
FC03F8
FFFFF0
FFFFE0
3FFF80
006000
000000
000000
007800
007800
00F000
00F000
00F000
00E000
01C000
01C000
ENDCHAR
STARTCHAR 0219
ENCODING 537
SWIDTH 600 0
DWIDTH 30 0
BBX 20 39 5 -11
BITMAP
002000
07FFC0
1FFFE0
3FFFE0
7F03E0
7C0040
780000
780000
780000
7C0000
7E0000
3F8000
1FE000
0FFC00
03FF00
00FF80
003FC0
0007E0
0003F0
0001F0
0001F0
0001F0
0001F0
C003E0
F80FE0
FFFFC0
FFFF80
3FFE00
00C000
000000
000000
00F800
00F000
00F000
01E000
01E000
01C000
03C000
038000
ENDCHAR
STARTCHAR 021A
ENCODING 538
SWIDTH 600 0
DWIDTH 30 0
BBX 26 46 2 -11
BITMAP
FFFFFFC0
FFFFFFC0
FFFFFFC0
FFFFFFC0
001E0000
001E0000
001E0000
001E0000
001E0000
001E0000
001E0000
001E0000
001E0000
001E0000
001E0000
001E0000
001E0000
001E0000
001E0000
001E0000
001E0000
001E0000
001E0000
001E0000
001E0000
001E0000
001E0000
001E0000
001E0000
001E0000
001E0000
001E0000
001E0000
001E0000
001E0000
00000000
00000000
00000000
001E0000
001E0000
003C0000
003C0000
003C0000
00380000
00700000
00700000
ENDCHAR
STARTCHAR 021B
ENCODING 539
SWIDTH 600 0
DWIDTH 30 0
BBX 23 45 3 -11
BITMAP
00F000
00F000
00F000
00F000
01F000
01F000
01F000
7FFFFC
FFFFFC
FFFFFC
FFFFFC
01F000
01F000
01F000
01F000
01F000
01F000
01F000
01F000
01F000
01F000
01F000
01F000
01F000
01F000
01F000
01F000
01F000
01F000
00F800
00FE06
007FFE
003FFE
001FFE
0000C0
000000
000000
0003C0
0007C0
000780
000780
000700
000F00
000E00
000C00
ENDCHAR
STARTCHAR 021C
ENCODING 540
SWIDTH 600 0
DWIDTH 30 0
BBX 24 45 3 -9
BITMAP
001000
07FF80
1FFFE0
7FFFF8
FF03F8
7800FC
20007C
00003E
00003E
00003E
00003E
00003E
00007C
00007C
0001F8
0007F0
001FE0
00FFC0
07FFC0
07FFF0
07C1F8
0600FC
00007C
00003E
00003E
00001E
00001F
00001F
00001F
00001E
00003E
00003E
00007E
0000FC
0001FC
0003F8
000FF0
003FE0
00FFC0
07FF00
3FFC00
FFF000
FF8000
FC0000
E00000
ENDCHAR
STARTCHAR 021D
ENCODING 541
SWIDTH 600 0
DWIDTH 30 0
BBX 25 40 2 -12
BITMAP
00080000
07FFC000
3FFFF000
3FFFFC00
3F01FC00
18007E00
00003E00
00001E00
00001E00
00001E00
00001E00
00003E00
00007E00
0000FC00
0003F800
003FF000
03FFF000
03FFF800
03F8FE00
01803F00
00001F00
00000F80
00000F80
00000780
00000780
00000780
00000F80
00000F80
00001F00
00003F00
00007E00
0001FC00
0007F800
003FF000
03FFC000
7FFF0000
FFF80000
FFC00000
FC000000
80000000
ENDCHAR
STARTCHAR 021E
ENCODING 542
SWIDTH 600 0
DWIDTH 30 0
BBX 24 47 3 0
BITMAP
0E0070
0F81F0
07C3E0
03E7C0
01FF80
00FF00
007E00
007E00
000000
000000
000000
000000
F8001F
F8001F
F8001F
F8001F
F8001F
F8001F
F8001F
F8001F
F8001F
F8001F
F8001F
F8001F
F8001F
F8001F
F8001F
FFFFFF
FFFFFF
FFFFFF
FFFFFF
F8001F
F8001F
F8001F
F8001F
F8001F
F8001F
F8001F
F8001F
F8001F
F8001F
F8001F
F8001F
F8001F
F8001F
F8001F
F8001F
ENDCHAR
STARTCHAR 021F
ENCODING 543
SWIDTH 600 0
DWIDTH 30 0
BBX 28 49 -2 0
BITMAP
F0078000
780F0000
7C3E0000
3E7C0000
1FF80000
0FF00000
07E00000
03E00000
00000000
00000000
00000000
03E00000
03E00000
03E00000
03E00000
03E00000
03E00000
03E00000
03E00000
03E00000
03E00000
03E02000
03C3FF00
03C7FF80
03CFFFC0
03DF0FE0
03FC03E0
03F801F0
03F001F0
03E001F0
03E000F0
03E000F0
03E000F0
03E000F0
03E000F0
03E000F0
03E000F0
03E000F0
03E000F0
03E000F0
03E000F0
03E000F0
03E000F0
03E000F0
03E000F0
03E000F0
03E000F0
03E000F0
03E000F0
ENDCHAR
STARTCHAR 0220
ENCODING 544
SWIDTH 600 0
DWIDTH 30 0
BBX 23 48 4 -12
BITMAP
000800
F0FF80
F3FFE0
F7FFF0
F783F8
FE00F8
FC007C
FC003C
F8003C
F8003E
F8003E
F8003E
F8003E
F0003E
F0003E
F0003E
F0003E
F0003E
F0003E
F0003E
F0003E
F0003E
F0003E
F0003E
F0003E
F0003E
F0003E
F0003E
F0003E
F0003E
F0003E
F0003E
F0003E
F0003E
F0003E
F0003E
00003E
00003E
00003E
00003E
00003E
00003E
00003E
00003E
00003E
00003E
00003E
00003E
ENDCHAR
STARTCHAR 0221
ENCODING 545
SWIDTH 600 0
DWIDTH 30 0
BBX 28 43 1 -5
BITMAP
000F0000
000F0000
000F0000
000F0000
000F0000
000F0000
000F0000
000F0000
000F0000
000F0000
010F0000
07EF0000
1FFF0000
1FFF0000
3E3F0000
3C1F0000
7C1F0000
780F0000
780F0000
780F0000
780F0000
780F0000
F80F0000
F80F0000
F80F0000
F80F0000
F80F0100
780F0FC0
780F1FE0
780F3FF0
780F38F0
780F78F0
7C1FF0F0
3C1FF0F0
3E3FF1F0
3FFBFFE0
1FF1FFC0
0FE0FF80
0101E000
0001E000
0001C000
0001C000
0001C000
ENDCHAR
STARTCHAR 0222
ENCODING 546
SWIDTH 600 0
DWIDTH 30 0
BBX 24 36 3 -1
BITMAP
78003E
78003E
78003E
78003E
78003E
78003E
78003E
7C003E
3C003C
3C003C
3E007C
1E0078
1F81F8
0FFFF0
07FFE0
0FFFF0
3FFFF8
3E00FC
7C003E
F8001E
F8001F
F0000F
F0000F
F0000F
F0000F
F0000F
F0000F
F0001F
F8001F
7C003E
7E007E
3F81FC
1FFFF8
0FFFF0
03FFC0
001800
ENDCHAR
STARTCHAR 0223
ENCODING 547
SWIDTH 600 0
DWIDTH 30 0
BBX 24 39 3 -1
BITMAP
7C003E
7C003E
7C003E
7C003E
7C003E
7C003E
7C003E
7C003E
7C003E
7C003E
3C003C
3E007C
3E00FC
1F81F8
0FFFF0
07FFE0
07FFE0
1FFFF8
3F00FC
7C003E
7C003E
F8001F
F8001F
F0000F
F0000F
F0000F
F0000F
F0000F
F0000F
F8001F
F8001F
78001F
7C003E
3E007E
3F81FC
1FFFF8
07FFE0
03FFC0
001800
ENDCHAR
STARTCHAR 0224
ENCODING 548
SWIDTH 600 0
DWIDTH 30 0
BBX 21 45 5 -10
BITMAP
7FFFF0
7FFFF0
7FFFF0
7FFFF0
0001F0
0001E0
0003C0
0007C0
000780
000F80
000F00
001F00
001E00
003E00
007C00
007800
00F800
00F000
01F000
01E000
03E000
03C000
07C000
0F8000
0F0000
1F0000
1E0000
3E0000
3C0000
7C0000
F80000
FFFFF8
FFFFF8
FFFFF8
FFFFF8
000078
000078
000078
000078
000078
000078
000FF8
000FF0
000FE0
000300
ENDCHAR
STARTCHAR 0225
ENCODING 549
SWIDTH 600 0
DWIDTH 30 0
BBX 22 37 4 -10
BITMAP
7FFFF8
7FFFF8
7FFFF8
7FFFF8
0000F8
0001F0
0003E0
0007C0
000F80
000F80
001F00
003E00
007C00
007C00
00F800
01F000
03E000
03C000
07C000
0F8000
1F0000
1E0000
3E0000
7FFFFC
FFFFFC
FFFFFC
FFFFFC
00003C
00003C
00003C
00003C
00003C
00007C
0007FC
0007F8
0007F0
000180
ENDCHAR
STARTCHAR 0226
ENCODING 550
SWIDTH 600 0
DWIDTH 30 0
BBX 28 46 1 0
BITMAP
000F0000
001F8000
001F8000
001F8000
001F8000
000F0000
00000000
00000000
00000000
00000000
00000000
001F8000
001F8000
001F8000
003FC000
003FC000
003FC000
007FE000
0079E000
0079E000
00F9F000
00F0F000
00F0F000
01F0F800
01E07800
01E07800
03E07C00
03C03C00
03C03C00
07C03E00
07803E00
07FFFE00
0FFFFF00
0FFFFF00
0FFFFF00
1F000F80
1F000F80
1E000780
3E0007C0
3E0007C0
3C0003C0
7C0003E0
7C0003E0
780001E0
F80001F0
F80001F0
ENDCHAR
STARTCHAR 0227
ENCODING 551
SWIDTH 600 0
DWIDTH 30 0
BBX 23 38 3 -1
BITMAP
003C00
007E00
007E00
007E00
007E00
003C00
000000
000000
000000
001000
03FFC0
3FFFE0
1FFFF0
1F83F8
0C007C
00007C
00003C
00003C
00003C
00003E
00003E
00FFFE
07FFFE
1FFFFE
3FFFFE
7F003E
7C003E
78003E
78003E
F8003E
78007E
78007E
7C01FE
7F07FE
3FFF9E
1FFF1E
0FFC1E
00C000
ENDCHAR
STARTCHAR 0228
ENCODING 552
SWIDTH 600 0
DWIDTH 30 0
BBX 21 47 5 -12
BITMAP
FFFFF8
FFFFF8
FFFFF8
FFFFF8
F00000
F00000
F00000
F00000
F00000
F00000
F00000
F00000
F00000
F00000
F00000
FFFFF0
FFFFF0
FFFFF0
FFFFF0
F00000
F00000
F00000
F00000
F00000
F00000
F00000
F00000
F00000
F00000
F00000
F00000
FFFFF8
FFFFF8
FFFFF8
FFFFF8
007000
00E000
00E000
01F000
01FC00
003E00
001E00
001E00
001E00
07FC00
07F800
07E000
ENDCHAR
STARTCHAR 0229
ENCODING 553
SWIDTH 600 0
DWIDTH 30 0
BBX 24 40 3 -12
BITMAP
000800
01FFC0
03FFE0
0FFFF8
1FC1F8
3F007C
3E003E
7C003E
7C001E
78001F
F8001F
F8001F
FFFFFF
FFFFFF
FFFFFF
FFFFFF
F80000
F80000
F80000
780000
7C0000
7C0000
3E0000
3F0006
1FE07E
0FFFFE
03FFFE
00FFF8
001E00
001800
003800
003E00
007F00
000780
000380
000380
000780
01FF80
01FF00
01FC00
ENDCHAR
STARTCHAR 022A
ENCODING 554
SWIDTH 600 0
DWIDTH 30 0
BBX 26 54 2 -1
BITMAP
03FFF000
03FFF000
03FFF000
03FFF000
00000000
00000000
00000000
03807000
07C0F800
07C0F800
07C0F800
07C0F800
03807000
00000000
00000000
00000000
00000000
00080000
00FFC000
03FFF000
07FFF800
0FE0FC00
1F807E00
1F003E00
3E001F00
3C000F00
7C000F80
7C000F80
78000F80
78000780
78000780
F80007C0
F80007C0
F80007C0
F80007C0
F80007C0
F80007C0
F80007C0
F80007C0
F80007C0
78000780
78000780
78000F80
7C000F80
7C000F80
3C000F00
3E001F00
1F003E00
1F807E00
0FE0FC00
07FFF800
03FFF000
00FFC000
000C0000
ENDCHAR
STARTCHAR 022B
ENCODING 555
SWIDTH 600 0
DWIDTH 30 0
BBX 24 45 3 -1
BITMAP
07FFE0
07FFE0
07FFE0
07FFE0
000000
000000
000000
0700E0
0F81F0
0F81F0
0F81F0
0F81F0
0700E0
000000
000000
000000
001000
01FF80
07FFE0
0FFFF0
1F83F8
3E00FC
7C007E
7C003E
78001E
F8001F
F8001F
F0001F
F0000F
F0000F
F0000F
F0000F
F0000F
F0001F
F8001F
F8001F
78001E
7C003E
7C007E
3F00FC
1F81F8
0FFFF0
07FFE0
01FF80
001800
ENDCHAR
STARTCHAR 022C
ENCODING 556
SWIDTH 600 0
DWIDTH 30 0
BBX 26 55 2 -1
BITMAP
03FFF000
03FFF000
03FFF000
03FFF000
00000000
00000000
00000000
00000000
00401C00
03F81C00
07FC1C00
07FFF800
0F1FF800
0E07F000
0E03E000
00000000
00000000
00000000
00080000
00FFC000
03FFF000
07FFF800
0FE0FC00
1F807E00
1F003E00
3E001F00
3C000F00
7C000F80
7C000F80
78000F80
78000780
78000780
F80007C0
F80007C0
F80007C0
F80007C0
F80007C0
F80007C0
F80007C0
F80007C0
F80007C0
78000780
78000780
78000F80
7C000F80
7C000F80
3C000F00
3E001F00
1F003E00
1F807E00
0FE0FC00
07FFF800
03FFF000
00FFC000
000C0000
ENDCHAR
STARTCHAR 022D
ENCODING 557
SWIDTH 600 0
DWIDTH 30 0
BBX 24 46 3 -1
BITMAP
07FFE0
07FFE0
07FFE0
07FFE0
000000
000000
000000
000000
008038
07F038
0FF838
0FFFF0
1E3FF0
1C0FE0
1C07C0
000000
000000
001000
01FF80
07FFE0
0FFFF0
1F83F8
3E00FC
7C007E
7C003E
78001E
F8001F
F8001F
F0001F
F0000F
F0000F
F0000F
F0000F
F0000F
F0001F
F8001F
F8001F
78001E
7C003E
7C007E
3F00FC
1F81F8
0FFFF0
07FFE0
01FF80
001800
ENDCHAR
STARTCHAR 022E
ENCODING 558
SWIDTH 600 0
DWIDTH 30 0
BBX 26 47 2 -1
BITMAP
001E0000
003F0000
003F0000
003F0000
003F0000
001E0000
00000000
00000000
00000000
00000000
00080000
00FFC000
03FFF000
07FFF800
0FE0FC00
1F807E00
1F003E00
3E001F00
3C000F00
7C000F80
7C000F80
78000F80
78000780
78000780
F80007C0
F80007C0
F80007C0
F80007C0
F80007C0
F80007C0
F80007C0
F80007C0
F80007C0
78000780
78000780
78000F80
7C000F80
7C000F80
3C000F00
3E001F00
1F003E00
1F807E00
0FE0FC00
07FFF800
03FFF000
00FFC000
000C0000
ENDCHAR
STARTCHAR 022F
ENCODING 559
SWIDTH 600 0
DWIDTH 30 0
BBX 24 38 3 -1
BITMAP
003C00
007E00
007E00
007E00
007E00
003C00
000000
000000
000000
001000
01FF80
07FFE0
0FFFF0
1F83F8
3E00FC
7C007E
7C003E
78001E
F8001F
F8001F
F0001F
F0000F
F0000F
F0000F
F0000F
F0000F
F0001F
F8001F
F8001F
78001E
7C003E
7C007E
3F00FC
1F81F8
0FFFF0
07FFE0
01FF80
001800
ENDCHAR
STARTCHAR 0230
ENCODING 560
SWIDTH 600 0
DWIDTH 30 0
BBX 26 54 2 -1
BITMAP
03FFF000
03FFF000
03FFF000
03FFF000
00000000
00000000
00000000
001E0000
003F0000
003F0000
003F0000
003F0000
001E0000
00000000
00000000
00000000
00000000
00080000
00FFC000
03FFF000
07FFF800
0FE0FC00
1F807E00
1F003E00
3E001F00
3C000F00
7C000F80
7C000F80
78000F80
78000780
78000780
F80007C0
F80007C0
F80007C0
F80007C0
F80007C0
F80007C0
F80007C0
F80007C0
F80007C0
78000780
78000780
78000F80
7C000F80
7C000F80
3C000F00
3E001F00
1F003E00
1F807E00
0FE0FC00
07FFF800
03FFF000
00FFC000
000C0000
ENDCHAR
STARTCHAR 0231
ENCODING 561
SWIDTH 600 0
DWIDTH 30 0
BBX 24 45 3 -1
BITMAP
07FFE0
07FFE0
07FFE0
07FFE0
000000
000000
000000
003C00
007E00
007E00
007E00
007E00
003C00
000000
000000
000000
001000
01FF80
07FFE0
0FFFF0
1F83F8
3E00FC
7C007E
7C003E
78001E
F8001F
F8001F
F0001F
F0000F
F0000F
F0000F
F0000F
F0000F
F0001F
F8001F
F8001F
78001E
7C003E
7C007E
3F00FC
1F81F8
0FFFF0
07FFE0
01FF80
001800
ENDCHAR
STARTCHAR 0232
ENCODING 562
SWIDTH 600 0
DWIDTH 30 0
BBX 26 44 2 0
BITMAP
03FFF000
03FFF000
03FFF000
03FFF000
00000000
00000000
00000000
00000000
00000000
F80007C0
78000780
7C000F80
3C000F00
3E001F00
1E001E00
1F003E00
0F003C00
0F807C00
07807800
07C0F800
03C0F000
03E0F000
01E1E000
01F1E000
00F3C000
00F3C000
007F8000
007F8000
003F0000
003F0000
001E0000
001E0000
001E0000
001E0000
001E0000
001E0000
001E0000
001E0000
001E0000
001E0000
001E0000
001E0000
001E0000
001E0000
ENDCHAR
STARTCHAR 0233
ENCODING 563
SWIDTH 600 0
DWIDTH 30 0
BBX 26 47 2 -12
BITMAP
03FFF000
03FFF000
03FFF000
03FFF000
00000000
00000000
00000000
00000000
F80007C0
78000780
7C000F80
3C000F00
3C000F00
1E001F00
1E001E00
1F001E00
0F003E00
0F803C00
07803C00
07807800
07C07800
03C07800
03E0F000
01E0F000
01E0F000
00F1E000
00F1E000
00F1C000
007BC000
007BC000
003B8000
003F8000
003F8000
001F0000
001F0000
001E0000
001E0000
003E0000
003C0000
003C0000
007C0000
00F80000
01F80000
7FF00000
7FE00000
7FC00000
7F000000
ENDCHAR
STARTCHAR 0234
ENCODING 564
SWIDTH 600 0
DWIDTH 30 0
BBX 23 39 3 -1
BITMAP
07C000
07C000
07C000
07C000
07C000
07C000
07C000
07C000
07C000
07C000
07C000
07C000
07C000
07C000
07C000
07C000
07C000
07C000
07C000
07C000
07C000
07C000
07C000
07C000
07C000
07C000
07C300
07FFF0
07FFF8
07FFFC
07E07C
0FC03E
1FC01E
3FE03C
7FF07C
79FFFC
F0FFF8
F07FE0
E00600
ENDCHAR
STARTCHAR 0235
ENCODING 565
SWIDTH 600 0
DWIDTH 30 0
BBX 27 29 2 -1
BITMAP
00200000
E3FE0000
E7FF0000
FFFF8000
FE1F8000
FC07C000
F807C000
F803C000
F003C000
F003C000
F003C000
F003C000
F003C000
F003C000
F003C000
F003C000
F003C400
F003FF80
F003FFC0
F003FFC0
F003E1E0
F003C1E0
F007C0E0
F007E1E0
F007E1E0
F00FFFC0
F00EFFC0
F00E7F80
001E0800
ENDCHAR
STARTCHAR 0236
ENCODING 566
SWIDTH 600 0
DWIDTH 30 0
BBX 25 35 2 -1
BITMAP
00700000
00700000
00F00000
00F00000
00F00000
00F00000
00F00000
3FFFFE00
FFFFFE00
FFFFFE00
FFFFFE00
00F00000
00F00000
00F00000
00F00000
00F00000
00F00000
00F00000
00F00000
00F00000
00F00000
00F00000
00F1C000
00FFFC00
00FFFE00
00FFFF00
00FC1F00
01F80F80
03F80780
07F80F80
0FFE1F00
0F3FFF00
1F3FFE00
1E0FFC00
0E008000
ENDCHAR
STARTCHAR 0237
ENCODING 567
SWIDTH 600 0
DWIDTH 30 0
BBX 17 39 3 -12
BITMAP
0FFF80
0FFF80
0FFF80
0FFF80
000F80
000F80
000F80
000F80
000F80
000F80
000F80
000F80
000F80
000F80
000F80
000F80
000F80
000F80
000F80
000F80
000F80
000F80
000F80
000F80
000F80
000F80
000F80
000F80
000F80
000F80
000F80
000F80
000F00
001F00
803F00
FFFE00
FFFC00
FFF800
7FC000
ENDCHAR
STARTCHAR 0238
ENCODING 568
SWIDTH 600 0
DWIDTH 30 0
BBX 26 39 2 -1
BITMAP
001E0000
001E0000
001E0000
001E0000
001E0000
001E0000
001E0000
001E0000
001E0000
001E0000
021E1000
1F9EFE00
3FDFFF00
7FFFFF00
7CFF8F80
783F0780
F83F0780
F03E03C0
F01E03C0
F01E03C0
F01E03C0
F01E03C0
F01E03C0
F01E03C0
F01E03C0
F01E03C0
F01E03C0
F01E03C0
F01E03C0
F01E03C0
F01E03C0
F03E03C0
F83F0780
783F0780
7CF78F80
3FF3FF00
3FE3FE00
1FC1FC00
03002000
ENDCHAR
STARTCHAR 0239
ENCODING 569
SWIDTH 600 0
DWIDTH 30 0
BBX 26 39 2 -11
BITMAP
01002000
0FE0FC00
1FF1FF00
3FF3FF00
7C7BCF80
783F0780
783F07C0
F01F03C0
F01E03C0
F01E03C0
F01E03C0
F01E03C0
F01E03C0
F01E03C0
F01E03C0
F01E03C0
F01E03C0
F01E03C0
F01E03C0
F01E03C0
F01E03C0
F01F03C0
F83F07C0
783F0780
7C7FCF80
3FFFFF80
3FFEFF00
1FDE7E00
021E1000
001E0000
001E0000
001E0000
001E0000
001E0000
001E0000
001E0000
001E0000
001E0000
001E0000
ENDCHAR
STARTCHAR 023A
ENCODING 570
SWIDTH 600 0
DWIDTH 30 0
BBX 28 41 1 -3
BITMAP
00001E00
00001C00
00001C00
001FBC00
001FB800
001FB800
003FF800
003FF800
003FF000
007FF000
0079F000
0079E000
00F9F000
00F1F000
00F1F000
01F1F800
01E3F800
01E3F800
03E3FC00
03C3BC00
03C7BC00
07C73E00
07873E00
07FFFE00
0FFFFF00
0FFFFF00
0FFFFF00
1F1C0F80
1F1C0F80
1E3C0780
3E3807C0
3E3807C0
3C7803C0
7C7003E0
7C7003E0
78F001E0
F8F001F0
F8E001F0
00E00000
01E00000
01C00000
ENDCHAR
STARTCHAR 023B
ENCODING 571
SWIDTH 600 0
DWIDTH 30 0
BBX 25 41 3 -3
BITMAP
00003800
00003800
0001F800
003FFC00
00FFFF80
03FFFF00
07F8FF00
0FC0E200
1F81E000
1F01C000
3E01C000
3E03C000
7C03C000
7C038000
7C038000
78078000
78070000
F8070000
F80F0000
F80E0000
F80E0000
F81E0000
F81C0000
F81C0000
F83C0000
783C0000
78380000
7C380000
7C780000
3C700000
3E700000
3FF00000
1FE00000
0FE00200
0FF01E00
07FFFE00
01FFFE00
03FFFC00
03830000
03800000
07800000
ENDCHAR
STARTCHAR 023C
ENCODING 572
SWIDTH 600 0
DWIDTH 30 0
BBX 22 48 4 -10
BITMAP
00001C
00003C
000038
000038
000078
000070
0000F0
0000E0
0000E0
0001E0
0007C0
00FFF0
07FFF8
0FFFF8
1FC7F0
3F0790
3E0700
7C0F00
7C0F00
780E00
781E00
F81C00
F81C00
F83C00
F83800
F83800
F87800
F87000
F87000
78F000
7CE000
7CE000
3FE000
3FC008
1FE078
0FFFF8
07FFF8
07FFF0
070C00
070000
0F0000
0E0000
0E0000
1E0000
1C0000
1C0000
3C0000
380000
ENDCHAR
STARTCHAR 023D
ENCODING 573
SWIDTH 600 0
DWIDTH 30 0
BBX 26 35 0 0
BITMAP
03C00000
03C00000
03C00000
03C00000
03C00000
03C00000
03C00000
03C00000
03C00000
03C00000
03C00000
03C00000
03C00000
03C00000
03C00000
FFFFC000
FFFFC000
FFFFC000
FFFFC000
03C00000
03C00000
03C00000
03C00000
03C00000
03C00000
03C00000
03C00000
03C00000
03C00000
03C00000
03C00000
03FFFFC0
03FFFFC0
03FFFFC0
03FFFFC0
ENDCHAR
STARTCHAR 023E
ENCODING 574
SWIDTH 600 0
DWIDTH 30 0
BBX 26 41 2 -3
BITMAP
00000780
00000700
00000700
FFFFFFC0
FFFFFFC0
FFFFFFC0
FFFFFFC0
001E3800
001E7800
001E7000
001EF000
001EF000
001EE000
001FE000
001FC000
001FC000
001F8000
001F8000
001F0000
001F0000
001E0000
001E0000
001E0000
003E0000
003E0000
007E0000
007E0000
00FE0000
00FE0000
01FE0000
01DE0000
03DE0000
039E0000
079E0000
071E0000
0F1E0000
0E1E0000
1E1E0000
1C000000
3C000000
78000000
ENDCHAR
STARTCHAR 023F
ENCODING 575
SWIDTH 600 0
DWIDTH 30 0
BBX 20 40 5 -12
BITMAP
002000
07FFC0
1FFFE0
3FFFE0
7F03E0
7C0040
780000
780000
780000
7C0000
7E0000
3F8000
1FE000
0FFC00
03FF00
00FF80
003FC0
0007E0
0003F0
0001F0
0001F0
0001F0
0001F0
C003E0
F80FE0
FFFFC0
FFFF80
3FFE00
0FC000
078000
07C000
03C000
03C000
03E000
01E000
01F000
00FFE0
007FE0
003FE0
001FC0
ENDCHAR
STARTCHAR 0240
ENCODING 576
SWIDTH 600 0
DWIDTH 30 0
BBX 22 39 4 -12
BITMAP
7FFFF8
7FFFF8
7FFFF8
7FFFF8
0000F0
0001F0
0003E0
0007C0
000F80
000F80
001F00
003E00
007C00
007800
00F800
01F000
03E000
07C000
07C000
0F8000
1F0000
3E0000
3C0000
7C0000
FF0000
FFC000
FFC000
07E000
01E000
01F000
00F000
00F800
007800
007800
007E00
003FFC
001FFC
000FFC
0003F8
ENDCHAR
STARTCHAR 0241
ENCODING 577
SWIDTH 600 0
DWIDTH 30 0
BBX 24 36 3 0
BITMAP
001000
0FFFC0
3FFFF0
FFFFF8
FF03FC
78007E
60003E
00003E
00001F
00001F
00001F
00001F
00001F
00001F
00003E
00003E
00007C
0001FC
0003F8
001FF0
007FC0
007F00
007C00
007800
007800
007800
007800
007800
007800
007800
007800
007800
007800
007800
007800
007800
ENDCHAR
STARTCHAR 0242
ENCODING 578
SWIDTH 600 0
DWIDTH 30 0
BBX 20 28 5 0
BITMAP
004000
0FFE00
3FFF00
FFFF80
7C0FC0
7007E0
2003E0
0001E0
0001F0
0001F0
0001F0
0001F0
0001E0
0001E0
0003E0
0003C0
0007C0
000F80
001F80
007F00
01FC00
03F800
03E000
03C000
03C000
03C000
03C000
03C000
ENDCHAR
STARTCHAR 0243
ENCODING 579
SWIDTH 600 0
DWIDTH 30 0
BBX 27 35 0 0
BITMAP
07FFE000
07FFFC00
07FFFF00
07FFFF80
07801F80
078007C0
078007C0
078003C0
078003C0
078003C0
078003C0
078007C0
078007C0
07800F80
07803F00
07FFFE00
07FFF000
07FFFC00
07FFFF00
07800F80
078007C0
078003E0
078003E0
FFFE01E0
FFFE01E0
FFFE01E0
FFFE03E0
078003E0
078003E0
078007C0
07800FC0
07FFFF80
07FFFF00
07FFFE00
07FFF000
ENDCHAR
ENDFONT
